<svg xmlns="http://www.w3.org/2000/svg" viewBox="0 0 728 90"><g id="Layer_2" data-name="Layer 2"><g id="Bubble"><g id="Content"><g id="BUBBLE-2" data-name="BUBBLE"><rect x="248.84" y="6" width="240.02" height="78" rx="20" fill="#fff"/></g><g id="Walmart_is_very_convenient_and_saves_busy_parents_lots_of_time" data-name="Walmart+ is very convenient and saves busy parents lots of time"><path d="M261.93,49.74a.26.26,0,0,1,.27-.36h1a.3.3,0,0,1,.27.21l1.82,6.88h.06l2.44-7.08a.27.27,0,0,1,.26-.16h.27a.26.26,0,0,1,.25.16l2.48,7.08h.06l1.78-6.88a.3.3,0,0,1,.27-.21h1a.26.26,0,0,1,.27.36L271.6,59.82a.29.29,0,0,1-.27.21h-.24a.29.29,0,0,1-.25-.17l-2.64-7.45h-.08l-2.59,7.45a.29.29,0,0,1-.26.17H265a.29.29,0,0,1-.27-.21Z" fill="#091b43"/><path d="M277.38,55.5a5.27,5.27,0,0,1,1.39.21c0-1.1-.52-1.59-1.39-1.59a4.74,4.74,0,0,0-1.65.33.32.32,0,0,1-.39-.29l-.14-.57a.31.31,0,0,1,.23-.4,4.17,4.17,0,0,1,2-.39c2.22,0,2.83,1.33,2.83,3.06v3.78a.3.3,0,0,1-.31.3.88.88,0,0,1-.92-.81,3,3,0,0,1-2.17.91,2.14,2.14,0,0,1-2.24-2.31C274.6,56.46,275.59,55.5,277.38,55.5Zm-.23,3.31a2.14,2.14,0,0,0,1.61-.84V56.82a3.15,3.15,0,0,0-1.26-.24c-.81,0-1.43.42-1.43,1.14A1,1,0,0,0,277.15,58.81Z" fill="#091b43"/><path d="M282.18,49.71a.34.34,0,0,1,.33-.33h.84a.35.35,0,0,1,.33.33v9.84a.35.35,0,0,1-.33.33h-.84a.33.33,0,0,1-.33-.33Z" fill="#091b43"/><path d="M285.67,53.19a.29.29,0,0,1,.32-.3.88.88,0,0,1,.9.81,3,3,0,0,1,2.16-.9,2.38,2.38,0,0,1,2.11,1.09,3.33,3.33,0,0,1,2.34-1.09c2.12,0,2.64,1.47,2.64,3.27v3.48a.32.32,0,0,1-.33.33H295a.31.31,0,0,1-.33-.33V56c0-1.11-.42-1.79-1.36-1.79a2.19,2.19,0,0,0-1.67.81,6.48,6.48,0,0,1,.06.93v3.59a.33.33,0,0,1-.31.33h-.86a.33.33,0,0,1-.33-.33V56c0-1.13-.4-1.79-1.36-1.79a1.77,1.77,0,0,0-1.64,1v4.32a.34.34,0,0,1-.33.33H286a.33.33,0,0,1-.33-.33Z" fill="#091b43"/><path d="M300.27,55.5a5.27,5.27,0,0,1,1.39.21c0-1.1-.52-1.59-1.39-1.59a4.74,4.74,0,0,0-1.65.33.32.32,0,0,1-.39-.29l-.14-.57a.31.31,0,0,1,.23-.4,4.17,4.17,0,0,1,2-.39c2.22,0,2.83,1.33,2.83,3.06v3.78a.3.3,0,0,1-.31.3.88.88,0,0,1-.92-.81,3,3,0,0,1-2.17.91,2.14,2.14,0,0,1-2.24-2.31C297.49,56.46,298.48,55.5,300.27,55.5ZM300,58.81a2.14,2.14,0,0,0,1.61-.84V56.82a3.15,3.15,0,0,0-1.26-.24c-.81,0-1.43.42-1.43,1.14A1,1,0,0,0,300,58.81Z" fill="#091b43"/><path d="M305,53.19a.29.29,0,0,1,.32-.3.9.9,0,0,1,.91.87,2.64,2.64,0,0,1,2.06-1c.66,0,1.48.18,1.26.64l-.36.75a.3.3,0,0,1-.42.17,1.73,1.73,0,0,0-.63-.14,2,2,0,0,0-1.64.93v4.4c0,.3-.19.33-.48.33h-.69a.33.33,0,0,1-.33-.33Z" fill="#091b43"/><path d="M310.33,54.22a.33.33,0,0,1-.33-.33v-.61a.31.31,0,0,1,.33-.33h.8V51a.33.33,0,0,1,.33-.33h.85a.32.32,0,0,1,.32.33V53h1.83a.32.32,0,0,1,.33.33v.61a.34.34,0,0,1-.33.33h-1.83v3.69c0,.59.37.71.82.71a1.9,1.9,0,0,0,.84-.26.26.26,0,0,1,.41.15l.27.71c.07.18,0,.3-.17.4a3.26,3.26,0,0,1-1.5.42A1.91,1.91,0,0,1,311.13,58V54.22Z" fill="#091b43"/><path d="M319.06,55.29h-2.31a.3.3,0,0,1-.28-.29v-.63a.29.29,0,0,1,.28-.28h2.31V51.76a.29.29,0,0,1,.29-.27H320a.28.28,0,0,1,.28.27v2.33h2.31a.28.28,0,0,1,.27.28V55a.29.29,0,0,1-.27.29h-2.31v2.29a.28.28,0,0,1-.28.27h-.63a.29.29,0,0,1-.29-.27Z" fill="#091b43"/><path d="M328.27,50.46a1,1,0,0,1,1-1,1,1,0,1,1,0,2A1,1,0,0,1,328.27,50.46Zm.24,2.82a.34.34,0,0,1,.33-.33h.84a.35.35,0,0,1,.33.33v6.27a.34.34,0,0,1-.33.33h-.84a.33.33,0,0,1-.33-.33Z" fill="#091b43"/><path d="M331.68,59.34a.28.28,0,0,1-.12-.36l.31-.65a.31.31,0,0,1,.45-.09,3.2,3.2,0,0,0,1.73.51c.58,0,.91-.28.91-.67s-.52-.77-1.48-1.2-1.88-1.05-1.88-2.19c0-.87.62-1.89,2.3-1.89a3.79,3.79,0,0,1,2,.51.4.4,0,0,1,.15.51l-.24.48a.32.32,0,0,1-.45.13,3.57,3.57,0,0,0-1.48-.34c-.6,0-.89.3-.89.61s.5.72,1.19,1c1.27.54,2.23,1,2.23,2.3A2.2,2.2,0,0,1,334,60,4,4,0,0,1,331.68,59.34Z" fill="#091b43"/><path d="M340.57,53.34c-.12-.21,0-.39.26-.39h.91a.29.29,0,0,1,.3.19l1.85,4.25h0l1.93-4.25c.09-.19.27-.19.47-.19H347c.26,0,.38.18.26.39l-3,6.52A.32.32,0,0,1,344,60h-.09a.34.34,0,0,1-.3-.18Z" fill="#091b43"/><path d="M351.28,52.8A3.09,3.09,0,0,1,354.45,56c0,.12,0,.36,0,.48a.33.33,0,0,1-.32.3h-4.78a2,2,0,0,0,2.07,1.89,2.68,2.68,0,0,0,1.69-.59c.15-.1.29-.15.41,0l.4.63c.12.15.18.29,0,.47a4,4,0,0,1-2.56.85,3.62,3.62,0,0,1,0-7.24ZM353,55.65a1.64,1.64,0,0,0-1.71-1.58,1.77,1.77,0,0,0-1.86,1.58Z" fill="#091b43"/><path d="M355.87,53.19a.29.29,0,0,1,.32-.3.9.9,0,0,1,.91.87,2.64,2.64,0,0,1,2.06-1c.66,0,1.48.18,1.26.64l-.36.75a.3.3,0,0,1-.42.17,1.73,1.73,0,0,0-.63-.14,2,2,0,0,0-1.64.93v4.4c0,.3-.19.33-.48.33h-.69a.33.33,0,0,1-.33-.33Z" fill="#091b43"/><path d="M360.81,53.4a.31.31,0,0,1,.3-.45h1a.35.35,0,0,1,.3.19L364,57.9h0l2-4.76c.06-.16.2-.19.36-.19h.93a.3.3,0,0,1,.3.45l-4.23,9.84a.36.36,0,0,1-.28.21h-1a.31.31,0,0,1-.3-.47l1.39-3.34Z" fill="#091b43"/><path d="M375,52.8a3,3,0,0,1,2.52,1.2.33.33,0,0,1-.06.49L377,55c-.19.18-.33,0-.45-.08A2.12,2.12,0,1,0,375,58.62a2.15,2.15,0,0,0,1.64-.86.31.31,0,0,1,.46,0l.47.38c.16.15.24.31.12.49A3.15,3.15,0,0,1,375,60a3.53,3.53,0,0,1-3.54-3.61A3.59,3.59,0,0,1,375,52.8Z" fill="#091b43"/><path d="M382.17,52.8a3.62,3.62,0,1,1-3.54,3.6A3.59,3.59,0,0,1,382.17,52.8Zm0,5.82a2.1,2.1,0,0,0,2.05-2.22,2.06,2.06,0,1,0-4.12,0A2.11,2.11,0,0,0,382.17,58.62Z" fill="#091b43"/><path d="M387.21,53.19a.29.29,0,0,1,.31-.3.88.88,0,0,1,.9.84,3.19,3.19,0,0,1,2.3-.93c2.11,0,2.68,1.47,2.68,3.27v3.48a.34.34,0,0,1-.33.33h-.84a.33.33,0,0,1-.33-.33V56c0-1.13-.46-1.79-1.36-1.79a2.09,2.09,0,0,0-1.83,1v4.32c0,.22-.12.33-.41.33h-.76a.33.33,0,0,1-.33-.33Z" fill="#091b43"/><path d="M394.53,53.34c-.12-.21,0-.39.25-.39h.92a.3.3,0,0,1,.3.19l1.84,4.25h0l1.94-4.25c.09-.19.27-.19.46-.19H401c.25,0,.37.18.25.39l-3,6.52a.3.3,0,0,1-.28.18h-.09a.33.33,0,0,1-.3-.18Z" fill="#091b43"/><path d="M405.24,52.8A3.08,3.08,0,0,1,408.4,56a3.87,3.87,0,0,1,0,.48.32.32,0,0,1-.31.3h-4.79a2,2,0,0,0,2.07,1.89,2.69,2.69,0,0,0,1.7-.59c.15-.1.28-.15.4,0l.41.63c.12.15.18.29,0,.47a4,4,0,0,1-2.57.85,3.62,3.62,0,0,1,0-7.24Zm1.68,2.85a1.64,1.64,0,0,0-1.71-1.58,1.76,1.76,0,0,0-1.86,1.58Z" fill="#091b43"/><path d="M409.83,53.19a.29.29,0,0,1,.31-.3.88.88,0,0,1,.9.84,3.19,3.19,0,0,1,2.3-.93c2.11,0,2.68,1.47,2.68,3.27v3.48a.34.34,0,0,1-.33.33h-.84a.33.33,0,0,1-.33-.33V56c0-1.13-.46-1.79-1.36-1.79a2.09,2.09,0,0,0-1.83,1v4.32c0,.22-.12.33-.41.33h-.76a.33.33,0,0,1-.33-.33Z" fill="#091b43"/><path d="M417.66,50.46a1,1,0,0,1,1-1,1,1,0,1,1,0,2A1,1,0,0,1,417.66,50.46Zm.24,2.82a.34.34,0,0,1,.33-.33h.84a.35.35,0,0,1,.33.33v6.27a.35.35,0,0,1-.33.33h-.84a.33.33,0,0,1-.33-.33Z" fill="#091b43"/><path d="M424.38,52.8A3.08,3.08,0,0,1,427.54,56a3.87,3.87,0,0,1,0,.48.32.32,0,0,1-.31.3h-4.79a2,2,0,0,0,2.07,1.89,2.69,2.69,0,0,0,1.7-.59c.15-.1.28-.15.4,0l.41.63c.12.15.18.29,0,.47a4,4,0,0,1-2.57.85,3.62,3.62,0,0,1,0-7.24Zm1.68,2.85a1.64,1.64,0,0,0-1.71-1.58,1.76,1.76,0,0,0-1.86,1.58Z" fill="#091b43"/><path d="M429,53.19a.29.29,0,0,1,.32-.3.88.88,0,0,1,.9.84,3.16,3.16,0,0,1,2.29-.93c2.12,0,2.69,1.47,2.69,3.27v3.48a.34.34,0,0,1-.33.33H434a.33.33,0,0,1-.33-.33V56c0-1.13-.46-1.79-1.37-1.79a2.13,2.13,0,0,0-1.83,1v4.32c0,.22-.12.33-.4.33h-.77a.34.34,0,0,1-.33-.33Z" fill="#091b43"/><path d="M436.7,54.22a.33.33,0,0,1-.33-.33v-.61a.31.31,0,0,1,.33-.33h.8V51a.33.33,0,0,1,.33-.33h.85A.32.32,0,0,1,439,51V53h1.83a.32.32,0,0,1,.33.33v.61a.34.34,0,0,1-.33.33H439v3.69c0,.59.37.71.82.71a1.9,1.9,0,0,0,.84-.26.26.26,0,0,1,.41.15l.27.71c.07.18,0,.3-.17.4a3.26,3.26,0,0,1-1.5.42A1.91,1.91,0,0,1,437.5,58V54.22Z" fill="#091b43"/><path d="M448.28,55.5a5.39,5.39,0,0,1,1.4.21c0-1.1-.53-1.59-1.4-1.59a4.79,4.79,0,0,0-1.65.33c-.21,0-.34-.09-.39-.29l-.13-.57a.31.31,0,0,1,.22-.4,4.21,4.21,0,0,1,2-.39c2.22,0,2.84,1.33,2.84,3.06v3.78a.3.3,0,0,1-.32.3.88.88,0,0,1-.91-.81,3,3,0,0,1-2.18.91,2.14,2.14,0,0,1-2.23-2.31C445.51,56.46,446.5,55.5,448.28,55.5Zm-.22,3.31a2.12,2.12,0,0,0,1.6-.84V56.82a3.15,3.15,0,0,0-1.26-.24c-.81,0-1.42.42-1.42,1.14A1,1,0,0,0,448.06,58.81Z" fill="#091b43"/><path d="M453,53.19a.29.29,0,0,1,.32-.3.87.87,0,0,1,.89.84,3.19,3.19,0,0,1,2.3-.93c2.12,0,2.69,1.47,2.69,3.27v3.48a.35.35,0,0,1-.33.33h-.84a.33.33,0,0,1-.33-.33V56c0-1.13-.47-1.79-1.37-1.79a2.13,2.13,0,0,0-1.83,1v4.32c0,.22-.12.33-.41.33h-.76a.33.33,0,0,1-.33-.33Z" fill="#091b43"/><path d="M464,52.8a4.85,4.85,0,0,1,1.74.36V49.71a.35.35,0,0,1,.33-.33H467a.34.34,0,0,1,.33.33v9.93a.3.3,0,0,1-.32.3.87.87,0,0,1-.91-.8,3.3,3.3,0,0,1-2.21.9,3.38,3.38,0,0,1-3.16-3.63A3.42,3.42,0,0,1,464,52.8Zm0,5.82a2,2,0,0,0,1.73-1v-3a3.42,3.42,0,0,0-1.59-.41,2.1,2.1,0,0,0-2,2.19A2,2,0,0,0,464.06,58.62Z" fill="#091b43"/><path d="M262.3,74.34a.3.3,0,0,1-.12-.36l.32-.65a.31.31,0,0,1,.45-.09,3.16,3.16,0,0,0,1.72.51c.59,0,.92-.28.92-.67s-.53-.77-1.49-1.2-1.87-1-1.87-2.19c0-.87.61-1.89,2.29-1.89a3.86,3.86,0,0,1,2,.51.41.41,0,0,1,.15.51l-.24.48a.32.32,0,0,1-.45.13,3.61,3.61,0,0,0-1.49-.34c-.6,0-.88.3-.88.61s.49.72,1.18,1c1.28.54,2.24,1,2.24,2.3a2.2,2.2,0,0,1-2.48,2A4,4,0,0,1,262.3,74.34Z" fill="#091b43"/><path d="M270.75,70.5a5.27,5.27,0,0,1,1.39.21c0-1.1-.52-1.59-1.39-1.59a4.74,4.74,0,0,0-1.65.33.32.32,0,0,1-.39-.29l-.14-.57a.31.31,0,0,1,.23-.4,4.17,4.17,0,0,1,2-.39c2.22,0,2.83,1.33,2.83,3.06v3.78a.3.3,0,0,1-.31.3.88.88,0,0,1-.92-.81,3,3,0,0,1-2.17.91A2.14,2.14,0,0,1,268,72.73C268,71.46,269,70.5,270.75,70.5Zm-.23,3.31a2.14,2.14,0,0,0,1.61-.84V71.82a3.15,3.15,0,0,0-1.26-.24c-.81,0-1.43.42-1.43,1.14A1,1,0,0,0,270.52,73.81Z" fill="#091b43"/><path d="M274.59,68.34c-.12-.21,0-.39.25-.39h.92a.3.3,0,0,1,.3.19l1.84,4.25h0l1.94-4.25c.09-.19.27-.19.46-.19H281c.25,0,.37.18.25.39l-3,6.52A.3.3,0,0,1,278,75h-.09a.33.33,0,0,1-.3-.18Z" fill="#091b43"/><path d="M285.3,67.8A3.08,3.08,0,0,1,288.46,71a3.87,3.87,0,0,1,0,.48.32.32,0,0,1-.31.3h-4.79a2,2,0,0,0,2.07,1.89,2.69,2.69,0,0,0,1.7-.59c.15-.1.28-.15.4,0l.41.63c.12.15.18.29,0,.47a4,4,0,0,1-2.57.85,3.62,3.62,0,0,1,0-7.24ZM287,70.65a1.64,1.64,0,0,0-1.71-1.58,1.76,1.76,0,0,0-1.86,1.58Z" fill="#091b43"/><path d="M289.6,74.34a.3.3,0,0,1-.12-.36l.32-.65a.31.31,0,0,1,.45-.09,3.16,3.16,0,0,0,1.72.51c.59,0,.92-.28.92-.67s-.53-.77-1.49-1.2-1.87-1-1.87-2.19c0-.87.61-1.89,2.29-1.89a3.86,3.86,0,0,1,2,.51.41.41,0,0,1,.15.51l-.24.48a.32.32,0,0,1-.45.13,3.61,3.61,0,0,0-1.49-.34c-.6,0-.88.3-.88.61s.49.72,1.18,1c1.28.54,2.24,1,2.24,2.3a2.2,2.2,0,0,1-2.48,2A4,4,0,0,1,289.6,74.34Z" fill="#091b43"/><path d="M299.25,64.71a.34.34,0,0,1,.33-.33h.85a.35.35,0,0,1,.33.33v3.45a4.92,4.92,0,0,1,1.74-.36,3.47,3.47,0,0,1,3.41,3.61A3.44,3.44,0,0,1,302.68,75a3.24,3.24,0,0,1-2.22-.91.86.86,0,0,1-.9.81.3.3,0,0,1-.31-.3Zm1.5,7.9a2,2,0,0,0,1.71,1,2.1,2.1,0,0,0,2-2.21,2.15,2.15,0,0,0-2.07-2.19,3.63,3.63,0,0,0-1.59.38Z" fill="#091b43"/><path d="M307.36,68.28a.35.35,0,0,1,.33-.33h.84a.34.34,0,0,1,.33.33V72c0,1.14.47,1.65,1.35,1.65a1.72,1.72,0,0,0,1.62-1.14v-4.2c0-.29.14-.33.39-.33H313a.35.35,0,0,1,.34.33v6.36a.3.3,0,0,1-.31.3.89.89,0,0,1-.92-.81,2.79,2.79,0,0,1-2.16.91c-2.07,0-2.58-1.36-2.58-3.18Z" fill="#091b43"/><path d="M315,74.34a.28.28,0,0,1-.12-.36l.31-.65a.31.31,0,0,1,.45-.09,3.2,3.2,0,0,0,1.73.51c.58,0,.91-.28.91-.67s-.52-.77-1.48-1.2-1.88-1-1.88-2.19c0-.87.62-1.89,2.3-1.89a3.79,3.79,0,0,1,2,.51.4.4,0,0,1,.15.51l-.24.48a.32.32,0,0,1-.45.13,3.57,3.57,0,0,0-1.48-.34c-.6,0-.89.3-.89.61s.5.72,1.19,1c1.27.54,2.23,1,2.23,2.3a2.2,2.2,0,0,1-2.47,2A4,4,0,0,1,315,74.34Z" fill="#091b43"/><path d="M320.38,68.4a.31.31,0,0,1,.3-.45h1a.33.33,0,0,1,.3.19l1.61,4.76h0l1.95-4.76c.06-.16.19-.19.36-.19h.93a.3.3,0,0,1,.3.45l-4.23,9.84a.36.36,0,0,1-.29.21h-1a.32.32,0,0,1-.3-.47l1.4-3.34Z" fill="#091b43"/><path d="M333,78.12a.33.33,0,0,1-.36.33h-.84a.33.33,0,0,1-.33-.33V68.19a.29.29,0,0,1,.31-.3.87.87,0,0,1,.89.72,3.15,3.15,0,0,1,2.16-.81,3.4,3.4,0,0,1,3.27,3.61A3.44,3.44,0,0,1,334.8,75a3.69,3.69,0,0,1-1.77-.48Zm0-5a2.88,2.88,0,0,0,1.6.51,2.1,2.1,0,0,0,2-2.21,2,2,0,0,0-2-2.19,1.88,1.88,0,0,0-1.66,1Z" fill="#091b43"/><path d="M341.91,70.5a5.27,5.27,0,0,1,1.39.21c0-1.1-.52-1.59-1.39-1.59a4.74,4.74,0,0,0-1.65.33.32.32,0,0,1-.39-.29l-.14-.57a.31.31,0,0,1,.23-.4,4.17,4.17,0,0,1,2-.39c2.22,0,2.83,1.33,2.83,3.06v3.78a.3.3,0,0,1-.31.3.88.88,0,0,1-.92-.81,3,3,0,0,1-2.17.91,2.14,2.14,0,0,1-2.24-2.31C339.13,71.46,340.12,70.5,341.91,70.5Zm-.23,3.31a2.14,2.14,0,0,0,1.61-.84V71.82a3.15,3.15,0,0,0-1.26-.24c-.81,0-1.43.42-1.43,1.14A1,1,0,0,0,341.68,73.81Z" fill="#091b43"/><path d="M346.66,68.19a.29.29,0,0,1,.32-.3.9.9,0,0,1,.91.87,2.64,2.64,0,0,1,2.06-1c.66,0,1.48.18,1.26.64l-.36.75a.3.3,0,0,1-.42.17,1.73,1.73,0,0,0-.63-.14,2,2,0,0,0-1.64.93v4.4c0,.3-.19.33-.48.33H347a.33.33,0,0,1-.33-.33Z" fill="#091b43"/><path d="M355.33,67.8A3.09,3.09,0,0,1,358.5,71c0,.12,0,.36,0,.48a.33.33,0,0,1-.32.3h-4.78a2,2,0,0,0,2.07,1.89,2.68,2.68,0,0,0,1.69-.59c.15-.1.29-.15.41,0l.4.63c.12.15.18.29,0,.47a4,4,0,0,1-2.56.85,3.62,3.62,0,0,1,0-7.24ZM357,70.65a1.64,1.64,0,0,0-1.71-1.58,1.77,1.77,0,0,0-1.86,1.58Z" fill="#091b43"/><path d="M359.92,68.19a.29.29,0,0,1,.32-.3.88.88,0,0,1,.9.84,3.16,3.16,0,0,1,2.29-.93c2.12,0,2.69,1.47,2.69,3.27v3.48a.35.35,0,0,1-.33.33H365a.33.33,0,0,1-.33-.33V71c0-1.13-.47-1.79-1.37-1.79a2.13,2.13,0,0,0-1.83,1v4.32c0,.22-.12.33-.4.33h-.77a.33.33,0,0,1-.33-.33Z" fill="#091b43"/><path d="M367.66,69.22a.33.33,0,0,1-.33-.33v-.61a.31.31,0,0,1,.33-.33h.8V66a.33.33,0,0,1,.33-.33h.85A.32.32,0,0,1,370,66V68h1.83a.32.32,0,0,1,.33.33v.61a.34.34,0,0,1-.33.33H370v3.69c0,.59.37.71.82.71a1.9,1.9,0,0,0,.84-.26.26.26,0,0,1,.41.15l.27.71c.07.18,0,.3-.17.4a3.26,3.26,0,0,1-1.5.42A1.91,1.91,0,0,1,368.46,73V69.22Z" fill="#091b43"/><path d="M373.26,74.34a.28.28,0,0,1-.12-.36l.31-.65a.31.31,0,0,1,.45-.09,3.2,3.2,0,0,0,1.73.51c.58,0,.91-.28.91-.67s-.52-.77-1.48-1.2-1.88-1-1.88-2.19c0-.87.62-1.89,2.3-1.89a3.79,3.79,0,0,1,2,.51.4.4,0,0,1,.15.51l-.24.48a.32.32,0,0,1-.45.13,3.57,3.57,0,0,0-1.48-.34c-.6,0-.89.3-.89.61s.5.72,1.19,1c1.27.54,2.23,1,2.23,2.3a2.2,2.2,0,0,1-2.47,2A4,4,0,0,1,373.26,74.34Z" fill="#091b43"/><path d="M383,64.71a.34.34,0,0,1,.33-.33h.84a.35.35,0,0,1,.33.33v9.84a.35.35,0,0,1-.33.33h-.84a.33.33,0,0,1-.33-.33Z" fill="#091b43"/><path d="M389.55,67.8A3.62,3.62,0,1,1,386,71.4,3.59,3.59,0,0,1,389.55,67.8Zm0,5.82a2.1,2.1,0,0,0,2.05-2.22,2.06,2.06,0,1,0-4.12,0A2.11,2.11,0,0,0,389.55,73.62Z" fill="#091b43"/><path d="M394.17,69.22a.33.33,0,0,1-.33-.33v-.61a.31.31,0,0,1,.33-.33H395V66a.33.33,0,0,1,.33-.33h.86a.32.32,0,0,1,.31.33V68h1.83a.32.32,0,0,1,.33.33v.61a.34.34,0,0,1-.33.33h-1.83v3.69c0,.59.38.71.83.71a2,2,0,0,0,.84-.26.26.26,0,0,1,.4.15l.27.71c.08.18,0,.3-.16.4a3.34,3.34,0,0,1-1.5.42A1.92,1.92,0,0,1,395,73V69.22Z" fill="#091b43"/><path d="M399.76,74.34a.3.3,0,0,1-.12-.36l.32-.65a.31.31,0,0,1,.45-.09,3.16,3.16,0,0,0,1.72.51c.59,0,.92-.28.92-.67s-.53-.77-1.49-1.2-1.87-1-1.87-2.19c0-.87.61-1.89,2.29-1.89a3.86,3.86,0,0,1,2,.51.41.41,0,0,1,.15.51l-.24.48a.32.32,0,0,1-.45.13,3.61,3.61,0,0,0-1.49-.34c-.6,0-.88.3-.88.61s.49.72,1.18,1c1.28.54,2.24,1,2.24,2.3A2.2,2.2,0,0,1,402,75,4,4,0,0,1,399.76,74.34Z" fill="#091b43"/><path d="M412.51,67.8A3.62,3.62,0,1,1,409,71.4,3.6,3.6,0,0,1,412.51,67.8Zm0,5.82a2.1,2.1,0,0,0,2.06-2.22,2.07,2.07,0,1,0-4.13,0A2.11,2.11,0,0,0,412.51,73.62Z" fill="#091b43"/><path d="M418,69.34h-.9a.33.33,0,0,1-.33-.33v-.73a.31.31,0,0,1,.33-.33h.9v-.8c0-1.86.89-2.92,2.57-2.92a3,3,0,0,1,2,.69.3.3,0,0,1,.06.39l-.43.63a.29.29,0,0,1-.45.06,1.85,1.85,0,0,0-1.11-.35c-.78,0-1.1.63-1.1,1.5V68h2a.32.32,0,0,1,.33.33V69a.34.34,0,0,1-.33.33h-2v5.21a.34.34,0,0,1-.33.33h-.84a.35.35,0,0,1-.33-.33Z" fill="#091b43"/><path d="M426,69.22a.33.33,0,0,1-.33-.33v-.61A.31.31,0,0,1,426,68h.79V66a.33.33,0,0,1,.33-.33H428a.32.32,0,0,1,.31.33V68h1.83a.32.32,0,0,1,.33.33v.61a.34.34,0,0,1-.33.33h-1.83v3.69c0,.59.38.71.83.71a2,2,0,0,0,.84-.26.26.26,0,0,1,.4.15l.27.71c.08.18,0,.3-.17.4A3.26,3.26,0,0,1,429,75,1.91,1.91,0,0,1,426.79,73V69.22Z" fill="#091b43"/><path d="M431.63,65.46a1,1,0,0,1,1-1,1,1,0,1,1,0,2A1,1,0,0,1,431.63,65.46Zm.25,2.82a.34.34,0,0,1,.33-.33H433a.36.36,0,0,1,.34.33v6.27a.35.35,0,0,1-.34.33h-.83a.33.33,0,0,1-.33-.33Z" fill="#091b43"/><path d="M435.33,68.19a.29.29,0,0,1,.31-.3.87.87,0,0,1,.9.81,3,3,0,0,1,2.16-.9,2.39,2.39,0,0,1,2.12,1.09,3.28,3.28,0,0,1,2.34-1.09c2.11,0,2.63,1.47,2.63,3.27v3.48a.32.32,0,0,1-.33.33h-.84a.32.32,0,0,1-.33-.33V71c0-1.11-.41-1.79-1.36-1.79a2.19,2.19,0,0,0-1.67.81,6.18,6.18,0,0,1,.07.93v3.59a.34.34,0,0,1-.32.33h-.85a.32.32,0,0,1-.33-.33V71c0-1.13-.41-1.79-1.37-1.79a1.74,1.74,0,0,0-1.63,1v4.32a.35.35,0,0,1-.33.33h-.84a.33.33,0,0,1-.33-.33Z" fill="#091b43"/><path d="M450.7,67.8A3.09,3.09,0,0,1,453.87,71a3.88,3.88,0,0,1,0,.48.32.32,0,0,1-.31.3h-4.78a2,2,0,0,0,2.06,1.89,2.69,2.69,0,0,0,1.7-.59c.15-.1.29-.15.41,0l.4.63c.12.15.18.29,0,.47a4,4,0,0,1-2.57.85,3.62,3.62,0,0,1,0-7.24Zm1.68,2.85a1.64,1.64,0,0,0-1.71-1.58,1.77,1.77,0,0,0-1.86,1.58Z" fill="#091b43"/><path d="M456.11,72.85a1.08,1.08,0,1,1-1.05,1.08A1.08,1.08,0,0,1,456.11,72.85Z" fill="#091b43"/></g><g id="Lansing_MI" data-name="Lansing, MI"><path d="M262,30.47a.25.25,0,0,1,.25-.25h.86a.25.25,0,0,1,.24.25v7.64h3.53a.25.25,0,0,1,.24.25v.71a.25.25,0,0,1-.24.25h-4.63a.25.25,0,0,1-.25-.25Z" fill="#0071de"/><path d="M270.22,35.53a4.72,4.72,0,0,1,1.21.18c0-1-.46-1.38-1.21-1.38a4,4,0,0,0-1.43.29.29.29,0,0,1-.34-.25l-.11-.5a.28.28,0,0,1,.19-.35,3.72,3.72,0,0,1,1.72-.33c1.92,0,2.45,1.15,2.45,2.65v3.27a.25.25,0,0,1-.27.26.76.76,0,0,1-.79-.7,2.59,2.59,0,0,1-1.89.79,1.85,1.85,0,0,1-1.93-2C267.82,36.36,268.67,35.53,270.22,35.53ZM270,38.4a1.89,1.89,0,0,0,1.39-.73v-1a2.8,2.8,0,0,0-1.1-.21c-.7,0-1.23.37-1.23,1A.88.88,0,0,0,270,38.4Z" fill="#0071de"/><path d="M274.31,33.52a.25.25,0,0,1,.27-.26.77.77,0,0,1,.78.73,2.78,2.78,0,0,1,2-.8c1.83,0,2.33,1.27,2.33,2.83v3a.3.3,0,0,1-.29.28h-.73a.29.29,0,0,1-.28-.28V36c0-1-.41-1.55-1.19-1.55a1.81,1.81,0,0,0-1.58.87V39c0,.19-.11.28-.36.28h-.66a.29.29,0,0,1-.28-.28Z" fill="#0071de"/><path d="M281,38.85a.25.25,0,0,1-.11-.31l.28-.56a.27.27,0,0,1,.39-.08,2.74,2.74,0,0,0,1.49.45c.51,0,.8-.25.8-.59s-.46-.66-1.29-1-1.63-.91-1.63-1.9c0-.75.54-1.63,2-1.63a3.34,3.34,0,0,1,1.76.44.35.35,0,0,1,.13.44l-.21.42a.28.28,0,0,1-.39.11,3.17,3.17,0,0,0-1.29-.3c-.52,0-.77.26-.77.54s.43.62,1,.88c1.11.47,1.94.87,1.94,2A1.91,1.91,0,0,1,283,39.46,3.42,3.42,0,0,1,281,38.85Z" fill="#0071de"/><path d="M286.12,31.16a.86.86,0,0,1,.85-.89A.88.88,0,1,1,287,32,.85.85,0,0,1,286.12,31.16Zm.2,2.44a.3.3,0,0,1,.29-.29h.73a.31.31,0,0,1,.28.29V39a.29.29,0,0,1-.28.28h-.73a.29.29,0,0,1-.29-.28Z" fill="#0071de"/><path d="M289.27,33.52a.26.26,0,0,1,.27-.26.77.77,0,0,1,.78.73,2.8,2.8,0,0,1,2-.8c1.84,0,2.33,1.27,2.33,2.83v3a.3.3,0,0,1-.29.28h-.72a.29.29,0,0,1-.29-.28V36c0-1-.4-1.55-1.18-1.55a1.83,1.83,0,0,0-1.59.87V39c0,.19-.1.28-.35.28h-.66a.29.29,0,0,1-.29-.28Z" fill="#0071de"/><path d="M301.64,39.36a2.6,2.6,0,0,1-2.79,2.81,3.24,3.24,0,0,1-2.08-.76.27.27,0,0,1-.06-.33l.31-.58a.26.26,0,0,1,.4-.09,2.27,2.27,0,0,0,1.41.56c.79,0,1.49-.39,1.49-1.61V39a3.26,3.26,0,0,1-1.53.42,3,3,0,0,1-2.9-3.14,2.94,2.94,0,0,1,2.83-3.13,2.89,2.89,0,0,1,1.88.68.75.75,0,0,1,.76-.61.26.26,0,0,1,.28.26ZM299,38.23a2.45,2.45,0,0,0,1.39-.48V35.27a1.75,1.75,0,0,0-1.45-.85,1.77,1.77,0,0,0-1.7,1.9A1.85,1.85,0,0,0,299,38.23Z" fill="#0071de"/><path d="M304,37.59c.65,0,1.08.6,1.08,1.5a2.69,2.69,0,0,1-.94,2.06.16.16,0,0,1-.25,0l-.27-.26c-.08-.09,0-.18,0-.26a1.85,1.85,0,0,0,.66-1.21,1.32,1.32,0,0,0,0-.27.91.91,0,0,1-.44.13.75.75,0,0,1-.74-.78A.83.83,0,0,1,304,37.59Z" fill="#0071de"/><path d="M310.9,30.29a.26.26,0,0,1,.23-.2h.21a.27.27,0,0,1,.22.14l2.72,6.65h.05L317,30.23a.25.25,0,0,1,.22-.14h.21a.26.26,0,0,1,.23.2L319.3,39a.22.22,0,0,1-.24.3h-.84a.27.27,0,0,1-.25-.18l-1-5.81h0l-2.34,6a.22.22,0,0,1-.22.14h-.23a.22.22,0,0,1-.22-.14l-2.36-6h-.05l-.94,5.81a.25.25,0,0,1-.23.18h-.84a.23.23,0,0,1-.25-.3Z" fill="#0071de"/><path d="M320.93,30.47a.25.25,0,0,1,.24-.25H322a.26.26,0,0,1,.25.25v8.6a.26.26,0,0,1-.25.25h-.86a.25.25,0,0,1-.24-.25Z" fill="#0071de"/></g><g id="Alicia"><path d="M260.3,22.39,264,14.32a.23.23,0,0,1,.21-.13h.12a.19.19,0,0,1,.2.13l3.7,8.07a.22.22,0,0,1-.21.32h-1a.35.35,0,0,1-.35-.24l-.59-1.3h-3.58l-.59,1.3a.38.38,0,0,1-.35.24h-1A.22.22,0,0,1,260.3,22.39Zm5.18-2.55-1.19-2.64h0l-1.18,2.64Z" fill="#0071de"/><path d="M269,14.57a.28.28,0,0,1,.26-.26h1a.29.29,0,0,1,.27.26v7.87a.29.29,0,0,1-.27.27h-1a.28.28,0,0,1-.26-.27Z" fill="#0071de"/><path d="M271.71,15.26a1,1,0,0,1,1.91,0,1,1,0,1,1-1.91,0Zm.22,2.17a.27.27,0,0,1,.26-.27h1a.27.27,0,0,1,.26.27v5a.28.28,0,0,1-.26.27h-1a.28.28,0,0,1-.26-.27Z" fill="#0071de"/><path d="M277.39,17a2.76,2.76,0,0,1,2.06.94c.12.12.06.28-.06.4l-.5.55c-.12.13-.26.07-.36,0a1.54,1.54,0,0,0-1.11-.48,1.53,1.53,0,0,0,0,3.06,1.5,1.5,0,0,0,1.18-.61.25.25,0,0,1,.34,0l.54.46c.14.12.2.25.1.39a2.47,2.47,0,0,1-2.19,1.17,2.9,2.9,0,1,1,0-5.8Z" fill="#0071de"/><path d="M280.32,15.26a1,1,0,0,1,1.91,0,1,1,0,1,1-1.91,0Zm.22,2.17a.27.27,0,0,1,.26-.27h1a.27.27,0,0,1,.26.27v5a.28.28,0,0,1-.26.27h-1a.28.28,0,0,1-.26-.27Z" fill="#0071de"/><path d="M285.24,19.2a4,4,0,0,1,1.07.16,1,1,0,0,0-1.05-1,4.52,4.52,0,0,0-1.28.2c-.18.06-.29-.07-.31-.24l-.12-.62a.26.26,0,0,1,.18-.34,5.27,5.27,0,0,1,1.62-.28,2.14,2.14,0,0,1,2.36,2.42v3a.25.25,0,0,1-.29.25.8.8,0,0,1-.82-.56,2.48,2.48,0,0,1-1.7.65,1.77,1.77,0,0,1-1.87-1.9C283,20,283.84,19.2,285.24,19.2Zm0,2.52a1.17,1.17,0,0,0,1-.59v-.81a2.16,2.16,0,0,0-.81-.17c-.64,0-1,.3-1,.79A.73.73,0,0,0,285.28,21.72Z" fill="#0071de"/></g><g id="Layer_20" data-name="Layer 20"><polygon points="395.01 14.12 393.01 19.39 387.37 19.67 391.76 23.21 390.29 28.66 395.01 25.57 399.74 28.66 398.26 23.21 402.66 19.67 397.02 19.39 395.01 14.12" fill="#ffc220"/><polygon points="412.94 14.12 410.94 19.39 405.3 19.67 409.69 23.21 408.22 28.66 412.94 25.57 417.67 28.66 416.19 23.21 420.58 19.67 414.95 19.39 412.94 14.12" fill="#ffc220"/><polygon points="430.87 14.12 428.86 19.39 423.23 19.67 427.62 23.21 426.15 28.66 430.87 25.57 435.59 28.66 434.12 23.21 438.51 19.67 432.88 19.39 430.87 14.12" fill="#ffc220"/><polygon points="448.8 14.12 446.79 19.39 441.16 19.67 445.55 23.21 444.07 28.66 448.8 25.57 453.52 28.66 452.05 23.21 456.44 19.67 450.81 19.39 448.8 14.12" fill="#ffc220"/><polygon points="466.73 14.12 464.72 19.39 459.08 19.67 463.48 23.21 462 28.66 466.73 25.57 471.45 28.66 469.98 23.21 474.37 19.67 468.74 19.39 466.73 14.12" fill="#ffc220"/></g></g><g id="rect"><rect width="728" height="90" fill="none"/></g></g></g></svg>