<svg xmlns="http://www.w3.org/2000/svg" viewBox="0 0 970 250"><g id="Layer_2" data-name="Layer 2"><g id="_970x250_Reviews_Hero_G_F1" data-name="970x250_Reviews_Hero G_F1" style="isolation:isolate"><g id="Bubble"><g id="Content"><g id="BUBBLE-2" data-name="BUBBLE"><rect x="309" y="15" width="588" height="216" rx="60" fill="#fff"/></g><g id="I_love_that_Walmart_has_saved_me_so_much_money._And_I_love_ord" data-name="I love that Walmart+ has saved me so much money. And I love ord"><path d="M346.42,115.37a.59.59,0,0,1,.57-.57h2a.59.59,0,0,1,.57.57v19.86a.59.59,0,0,1-.57.57h-2a.59.59,0,0,1-.57-.57Z" fill="#091b43"/><path d="M361.06,115.46a.69.69,0,0,1,.66-.66h1.68a.71.71,0,0,1,.66.66v19.68a.69.69,0,0,1-.66.66h-1.68a.67.67,0,0,1-.66-.66Z" fill="#091b43"/><path d="M374.26,121.64a7.25,7.25,0,1,1-7.08,7.2A7.2,7.2,0,0,1,374.26,121.64Zm0,11.64a4.2,4.2,0,0,0,4.11-4.44,4.13,4.13,0,1,0-8.25,0A4.2,4.2,0,0,0,374.26,133.28Z" fill="#091b43"/><path d="M382.45,122.72c-.24-.42,0-.78.51-.78h1.83a.6.6,0,0,1,.6.39l3.69,8.49h.06l3.87-8.49c.18-.39.54-.39.93-.39h1.35c.51,0,.75.36.51.78l-6,13.05a.62.62,0,0,1-.57.36h-.18a.67.67,0,0,1-.6-.36Z" fill="#091b43"/><path d="M403.87,121.64A6.17,6.17,0,0,1,410.2,128c0,.24,0,.72-.06,1a.65.65,0,0,1-.63.6h-9.57a4.05,4.05,0,0,0,4.14,3.78,5.38,5.38,0,0,0,3.39-1.17c.3-.21.57-.3.81.06l.81,1.26c.24.3.36.57-.06.93a7.94,7.94,0,0,1-5.13,1.71c-4.2,0-6.93-3.3-6.93-7.26S399.7,121.64,403.87,121.64Zm3.36,5.7a3.27,3.27,0,0,0-3.42-3.15,3.52,3.52,0,0,0-3.72,3.15Z" fill="#091b43"/><path d="M419,124.49a.67.67,0,0,1-.66-.66V122.6a.63.63,0,0,1,.66-.66h1.59v-3.87a.67.67,0,0,1,.66-.66H423a.64.64,0,0,1,.63.66v3.87h3.66a.65.65,0,0,1,.66.66v1.23a.69.69,0,0,1-.66.66h-3.66v7.38c0,1.17.75,1.41,1.65,1.41a3.85,3.85,0,0,0,1.68-.51.52.52,0,0,1,.81.3l.53,1.41c.16.36,0,.6-.32.81a6.64,6.64,0,0,1-3,.84c-3,0-4.35-1.68-4.35-4.14v-7.5Z" fill="#091b43"/><path d="M430.75,115.46a.68.68,0,0,1,.66-.66h1.67a.71.71,0,0,1,.67.66v7.62a6.66,6.66,0,0,1,4-1.44c3.93,0,5.37,2.76,5.37,6.54v7a.69.69,0,0,1-.66.66h-1.68a.67.67,0,0,1-.66-.66v-7c0-2.28-1-3.63-2.75-3.63a4.12,4.12,0,0,0-3.63,2v8.64a.64.64,0,0,1-.69.66h-1.65a.66.66,0,0,1-.66-.66Z" fill="#091b43"/><path d="M451.38,127a10.66,10.66,0,0,1,2.79.42c.06-2.19-1.05-3.18-2.79-3.18a9.77,9.77,0,0,0-3.3.66c-.42.09-.68-.18-.78-.57l-.27-1.14a.63.63,0,0,1,.45-.81,8.52,8.52,0,0,1,4-.78c4.44,0,5.67,2.67,5.67,6.12v7.56a.59.59,0,0,1-.63.6,1.76,1.76,0,0,1-1.83-1.62,6,6,0,0,1-4.35,1.83,4.28,4.28,0,0,1-4.47-4.62C445.83,129,447.81,127,451.38,127Zm-.45,6.63a4.29,4.29,0,0,0,3.21-1.68v-2.31a6.3,6.3,0,0,0-2.52-.48c-1.62,0-2.85.84-2.85,2.28A2,2,0,0,0,450.93,133.67Z" fill="#091b43"/><path d="M460.23,124.49a.67.67,0,0,1-.66-.66V122.6a.63.63,0,0,1,.66-.66h1.59v-3.87a.67.67,0,0,1,.66-.66h1.71a.64.64,0,0,1,.63.66v3.87h3.66a.65.65,0,0,1,.66.66v1.23a.69.69,0,0,1-.66.66h-3.66v7.38c0,1.17.75,1.41,1.65,1.41a3.85,3.85,0,0,0,1.68-.51.52.52,0,0,1,.81.3l.54,1.41c.15.36,0,.6-.33.81a6.6,6.6,0,0,1-3,.84c-3,0-4.35-1.68-4.35-4.14v-7.5Z" fill="#091b43"/><path d="M477.57,115.52a.52.52,0,0,1,.54-.72h2a.62.62,0,0,1,.54.42L484.29,129h.12l4.89-14.16a.54.54,0,0,1,.51-.33h.54a.54.54,0,0,1,.51.33L495.81,129h.12l3.57-13.77a.62.62,0,0,1,.54-.42h2a.52.52,0,0,1,.54.72l-5.67,20.16a.58.58,0,0,1-.54.42h-.48a.57.57,0,0,1-.51-.33l-5.28-14.91H490l-5.19,14.91a.57.57,0,0,1-.51.33h-.48a.58.58,0,0,1-.54-.42Z" fill="#091b43"/><path d="M508.47,127a10.66,10.66,0,0,1,2.79.42c.06-2.19-1.05-3.18-2.79-3.18a9.77,9.77,0,0,0-3.3.66.64.64,0,0,1-.78-.57l-.27-1.14a.63.63,0,0,1,.45-.81,8.52,8.52,0,0,1,4-.78c4.44,0,5.67,2.67,5.67,6.12v7.56a.59.59,0,0,1-.63.6,1.76,1.76,0,0,1-1.83-1.62,6,6,0,0,1-4.35,1.83,4.28,4.28,0,0,1-4.47-4.62C502.92,129,504.9,127,508.47,127Zm-.45,6.63a4.29,4.29,0,0,0,3.21-1.68v-2.31a6.3,6.3,0,0,0-2.52-.48c-1.62,0-2.85.84-2.85,2.28A2,2,0,0,0,508,133.67Z" fill="#091b43"/><path d="M518.07,115.46a.69.69,0,0,1,.66-.66h1.68a.71.71,0,0,1,.66.66v19.68a.69.69,0,0,1-.66.66h-1.68a.67.67,0,0,1-.66-.66Z" fill="#091b43"/><path d="M525.06,122.42a.59.59,0,0,1,.63-.6,1.75,1.75,0,0,1,1.8,1.62,6,6,0,0,1,4.32-1.8,4.74,4.74,0,0,1,4.23,2.19,6.59,6.59,0,0,1,4.68-2.19c4.23,0,5.28,2.94,5.28,6.54v7a.65.65,0,0,1-.66.66h-1.68a.63.63,0,0,1-.66-.66v-7.08c0-2.22-.84-3.57-2.73-3.57a4.32,4.32,0,0,0-3.33,1.62,13,13,0,0,1,.12,1.86v7.17a.66.66,0,0,1-.63.66h-1.71a.65.65,0,0,1-.66-.66v-7.08c0-2.25-.81-3.57-2.73-3.57a3.52,3.52,0,0,0-3.27,2v8.64a.69.69,0,0,1-.66.66h-1.68a.67.67,0,0,1-.66-.66Z" fill="#091b43"/><path d="M554.25,127a10.66,10.66,0,0,1,2.79.42c.06-2.19-1-3.18-2.79-3.18a9.77,9.77,0,0,0-3.3.66.64.64,0,0,1-.78-.57l-.27-1.14a.63.63,0,0,1,.45-.81,8.52,8.52,0,0,1,4-.78c4.44,0,5.67,2.67,5.67,6.12v7.56a.59.59,0,0,1-.63.6,1.76,1.76,0,0,1-1.83-1.62,6,6,0,0,1-4.35,1.83,4.28,4.28,0,0,1-4.47-4.62C548.7,129,550.68,127,554.25,127Zm-.45,6.63A4.29,4.29,0,0,0,557,132v-2.31a6.3,6.3,0,0,0-2.52-.48c-1.62,0-2.85.84-2.85,2.28A2,2,0,0,0,553.8,133.67Z" fill="#091b43"/><path d="M563.76,122.42a.59.59,0,0,1,.63-.6,1.82,1.82,0,0,1,1.83,1.74,5.27,5.27,0,0,1,4.11-1.92c1.32,0,3,.36,2.52,1.29l-.72,1.5a.6.6,0,0,1-.84.33,3.42,3.42,0,0,0-1.26-.27,4,4,0,0,0-3.27,1.86v8.79c0,.6-.39.66-1,.66h-1.38a.67.67,0,0,1-.66-.66Z" fill="#091b43"/><path d="M574.38,124.49a.67.67,0,0,1-.66-.66V122.6a.63.63,0,0,1,.66-.66H576v-3.87a.67.67,0,0,1,.66-.66h1.71a.64.64,0,0,1,.63.66v3.87h3.66a.65.65,0,0,1,.66.66v1.23a.69.69,0,0,1-.66.66H579v7.38c0,1.17.75,1.41,1.65,1.41a3.85,3.85,0,0,0,1.68-.51.52.52,0,0,1,.81.3l.54,1.41c.15.36,0,.6-.33.81a6.6,6.6,0,0,1-3,.84c-3,0-4.35-1.68-4.35-4.14v-7.5Z" fill="#091b43"/><path d="M591.84,126.62h-4.62a.59.59,0,0,1-.57-.57v-1.26a.59.59,0,0,1,.57-.57h4.62v-4.65a.56.56,0,0,1,.57-.54h1.26a.56.56,0,0,1,.57.54v4.65h4.62a.56.56,0,0,1,.54.57v1.26a.56.56,0,0,1-.54.57h-4.62v4.59a.56.56,0,0,1-.57.54h-1.26a.56.56,0,0,1-.57-.54Z" fill="#091b43"/><path d="M610.74,115.46a.69.69,0,0,1,.66-.66h1.68a.71.71,0,0,1,.66.66v7.62a6.7,6.7,0,0,1,4-1.44c3.93,0,5.37,2.76,5.37,6.54v7a.69.69,0,0,1-.66.66h-1.68a.67.67,0,0,1-.66-.66v-7c0-2.28-1-3.63-2.76-3.63a4.13,4.13,0,0,0-3.63,2v8.64a.64.64,0,0,1-.69.66H611.4a.67.67,0,0,1-.66-.66Z" fill="#091b43"/><path d="M631.38,127a10.66,10.66,0,0,1,2.79.42c.06-2.19-1-3.18-2.79-3.18a9.77,9.77,0,0,0-3.3.66.64.64,0,0,1-.78-.57l-.27-1.14a.63.63,0,0,1,.45-.81,8.52,8.52,0,0,1,4-.78c4.44,0,5.67,2.67,5.67,6.12v7.56a.59.59,0,0,1-.63.6,1.76,1.76,0,0,1-1.83-1.62,6,6,0,0,1-4.35,1.83,4.28,4.28,0,0,1-4.47-4.62C625.83,129,627.81,127,631.38,127Zm-.45,6.63a4.29,4.29,0,0,0,3.21-1.68v-2.31a6.3,6.3,0,0,0-2.52-.48c-1.62,0-2.85.84-2.85,2.28A2,2,0,0,0,630.93,133.67Z" fill="#091b43"/><path d="M640.32,134.72a.57.57,0,0,1-.24-.72l.63-1.29a.62.62,0,0,1,.9-.18,6.44,6.44,0,0,0,3.45,1c1.17,0,1.83-.57,1.83-1.35s-1-1.53-3-2.4c-2.13-1-3.75-2.1-3.75-4.38,0-1.74,1.23-3.78,4.59-3.78a7.74,7.74,0,0,1,4,1,.82.82,0,0,1,.3,1l-.48,1a.65.65,0,0,1-.9.27,7.19,7.19,0,0,0-3-.69c-1.2,0-1.77.6-1.77,1.23,0,.9,1,1.44,2.37,2,2.55,1.08,4.47,2,4.47,4.59,0,2.16-1.86,4-5,4A8,8,0,0,1,640.32,134.72Z" fill="#091b43"/><path d="M659,134.72a.57.57,0,0,1-.24-.72l.63-1.29a.62.62,0,0,1,.9-.18,6.44,6.44,0,0,0,3.45,1c1.17,0,1.83-.57,1.83-1.35s-1.05-1.53-3-2.4c-2.13-1-3.75-2.1-3.75-4.38,0-1.74,1.23-3.78,4.59-3.78a7.74,7.74,0,0,1,4,1,.82.82,0,0,1,.3,1l-.48,1a.65.65,0,0,1-.9.27,7.19,7.19,0,0,0-3-.69c-1.2,0-1.77.6-1.77,1.23,0,.9,1,1.44,2.37,2,2.55,1.08,4.47,2,4.47,4.59,0,2.16-1.86,4-4.95,4A8,8,0,0,1,659,134.72Z" fill="#091b43"/><path d="M675.93,127a10.66,10.66,0,0,1,2.79.42c.06-2.19-1.05-3.18-2.79-3.18a9.77,9.77,0,0,0-3.3.66.64.64,0,0,1-.78-.57l-.27-1.14a.63.63,0,0,1,.45-.81,8.52,8.52,0,0,1,4-.78c4.44,0,5.67,2.67,5.67,6.12v7.56a.59.59,0,0,1-.63.6,1.76,1.76,0,0,1-1.83-1.62,6,6,0,0,1-4.35,1.83,4.28,4.28,0,0,1-4.47-4.62C670.38,129,672.36,127,675.93,127Zm-.45,6.63a4.29,4.29,0,0,0,3.21-1.68v-2.31a6.3,6.3,0,0,0-2.52-.48c-1.62,0-2.85.84-2.85,2.28A2,2,0,0,0,675.48,133.67Z" fill="#091b43"/><path d="M683.61,122.72c-.24-.42,0-.78.51-.78H686a.6.6,0,0,1,.6.39l3.69,8.49h.06l3.87-8.49c.18-.39.54-.39.93-.39h1.35c.51,0,.75.36.51.78l-6,13.05a.62.62,0,0,1-.57.36h-.18a.67.67,0,0,1-.6-.36Z" fill="#091b43"/><path d="M705,121.64a6.17,6.17,0,0,1,6.33,6.36c0,.24,0,.72-.06,1a.65.65,0,0,1-.63.6H701.1a4.05,4.05,0,0,0,4.14,3.78,5.38,5.38,0,0,0,3.39-1.17c.3-.21.57-.3.81.06l.81,1.26c.24.3.36.57-.06.93a7.94,7.94,0,0,1-5.13,1.71c-4.2,0-6.93-3.3-6.93-7.26S700.86,121.64,705,121.64Zm3.36,5.7a3.27,3.27,0,0,0-3.42-3.15,3.52,3.52,0,0,0-3.72,3.15Z" fill="#091b43"/><path d="M720.06,121.64a10,10,0,0,1,3.48.72v-6.9a.71.71,0,0,1,.66-.66h1.71a.69.69,0,0,1,.66.66v19.86a.59.59,0,0,1-.63.6,1.76,1.76,0,0,1-1.83-1.59,6.64,6.64,0,0,1-4.41,1.8c-3.66,0-6.33-3.3-6.33-7.26S716.22,121.64,720.06,121.64Zm.06,11.64a4,4,0,0,0,3.45-2V125.3a6.91,6.91,0,0,0-3.18-.81,4.2,4.2,0,0,0-4,4.38C716.37,131.21,717.9,133.28,720.12,133.28Z" fill="#091b43"/><path d="M737.37,122.42a.59.59,0,0,1,.63-.6,1.75,1.75,0,0,1,1.8,1.62,6,6,0,0,1,4.32-1.8,4.74,4.74,0,0,1,4.23,2.19,6.59,6.59,0,0,1,4.68-2.19c4.23,0,5.28,2.94,5.28,6.54v7a.65.65,0,0,1-.66.66H756a.63.63,0,0,1-.66-.66v-7.08c0-2.22-.84-3.57-2.73-3.57a4.32,4.32,0,0,0-3.33,1.62,13,13,0,0,1,.12,1.86v7.17a.66.66,0,0,1-.63.66H747a.65.65,0,0,1-.66-.66v-7.08c0-2.25-.81-3.57-2.73-3.57a3.52,3.52,0,0,0-3.27,2v8.64a.69.69,0,0,1-.66.66H738a.67.67,0,0,1-.66-.66Z" fill="#091b43"/><path d="M768.12,121.64a6.17,6.17,0,0,1,6.33,6.36c0,.24,0,.72-.06,1a.65.65,0,0,1-.63.6h-9.57a4.05,4.05,0,0,0,4.14,3.78,5.38,5.38,0,0,0,3.39-1.17c.3-.21.57-.3.81.06l.81,1.26c.24.3.36.57-.06.93a7.94,7.94,0,0,1-5.13,1.71c-4.2,0-6.93-3.3-6.93-7.26S764,121.64,768.12,121.64Zm3.36,5.7a3.27,3.27,0,0,0-3.42-3.15,3.52,3.52,0,0,0-3.72,3.15Z" fill="#091b43"/><path d="M783.63,134.72a.57.57,0,0,1-.24-.72l.63-1.29a.62.62,0,0,1,.9-.18,6.44,6.44,0,0,0,3.45,1c1.17,0,1.83-.57,1.83-1.35s-1.05-1.53-3-2.4c-2.13-1-3.75-2.1-3.75-4.38,0-1.74,1.23-3.78,4.59-3.78a7.74,7.74,0,0,1,4,1,.82.82,0,0,1,.3,1l-.48,1a.65.65,0,0,1-.9.27,7.19,7.19,0,0,0-3-.69c-1.2,0-1.77.6-1.77,1.23,0,.9,1,1.44,2.37,2,2.55,1.08,4.47,2,4.47,4.59,0,2.16-1.86,4-4.95,4A8,8,0,0,1,783.63,134.72Z" fill="#091b43"/><path d="M802.23,121.64a7.25,7.25,0,1,1-7.08,7.2A7.19,7.19,0,0,1,802.23,121.64Zm0,11.64a4.2,4.2,0,0,0,4.11-4.44,4.13,4.13,0,1,0-8.25,0A4.2,4.2,0,0,0,802.23,133.28Z" fill="#091b43"/><path d="M345.79,155.42a.59.59,0,0,1,.63-.6,1.75,1.75,0,0,1,1.8,1.62,6,6,0,0,1,4.32-1.8,4.74,4.74,0,0,1,4.23,2.19,6.59,6.59,0,0,1,4.68-2.19c4.23,0,5.28,2.94,5.28,6.54v7a.65.65,0,0,1-.66.66h-1.68a.63.63,0,0,1-.66-.66v-7.08c0-2.22-.84-3.57-2.73-3.57a4.32,4.32,0,0,0-3.33,1.62,13,13,0,0,1,.12,1.86v7.17a.66.66,0,0,1-.63.66h-1.71a.65.65,0,0,1-.66-.66v-7.08c0-2.25-.81-3.57-2.73-3.57a3.52,3.52,0,0,0-3.27,2v8.64a.69.69,0,0,1-.66.66h-1.68a.67.67,0,0,1-.66-.66Z" fill="#091b43"/><path d="M370.33,155.6a.71.71,0,0,1,.66-.66h1.68a.69.69,0,0,1,.66.66V163c0,2.28.93,3.3,2.7,3.3a3.43,3.43,0,0,0,3.24-2.28v-8.4c0-.57.27-.66.78-.66h1.53a.71.71,0,0,1,.69.66v12.72a.59.59,0,0,1-.63.6,1.76,1.76,0,0,1-1.83-1.62,5.57,5.57,0,0,1-4.32,1.83c-4.14,0-5.16-2.73-5.16-6.36Z" fill="#091b43"/><path d="M392.41,154.64a6.08,6.08,0,0,1,5,2.4.69.69,0,0,1-.12,1l-1.08,1c-.39.36-.66.09-.9-.15a4.18,4.18,0,0,0-2.85-1.38,4.4,4.4,0,0,0-.09,8.79c1.8,0,2.52-1,3.27-1.71a.64.64,0,0,1,.93-.06l.93.75c.33.3.48.63.24,1a6.33,6.33,0,0,1-5.4,2.88,7.07,7.07,0,0,1-7.08-7.23A7.2,7.2,0,0,1,392.41,154.64Z" fill="#091b43"/><path d="M400.63,148.46a.69.69,0,0,1,.66-.66H403a.71.71,0,0,1,.66.66v7.62a6.7,6.7,0,0,1,4-1.44c3.93,0,5.37,2.76,5.37,6.54v7a.69.69,0,0,1-.67.66h-1.67a.66.66,0,0,1-.66-.66v-7c0-2.28-1-3.63-2.76-3.63a4.13,4.13,0,0,0-3.63,2v8.64a.64.64,0,0,1-.69.66h-1.65a.67.67,0,0,1-.66-.66Z" fill="#091b43"/><path d="M423.67,155.42a.58.58,0,0,1,.62-.6,1.75,1.75,0,0,1,1.8,1.62,6,6,0,0,1,4.32-1.8,4.74,4.74,0,0,1,4.23,2.19,6.59,6.59,0,0,1,4.68-2.19c4.23,0,5.28,2.94,5.28,6.54v7a.65.65,0,0,1-.66.66h-1.68a.63.63,0,0,1-.66-.66v-7.08c0-2.22-.84-3.57-2.73-3.57a4.32,4.32,0,0,0-3.33,1.62,13,13,0,0,1,.12,1.86v7.17a.66.66,0,0,1-.63.66h-1.71a.65.65,0,0,1-.66-.66v-7.08c0-2.25-.81-3.57-2.73-3.57a3.49,3.49,0,0,0-3.26,2v8.64a.7.7,0,0,1-.67.66h-1.68a.66.66,0,0,1-.65-.66Z" fill="#091b43"/><path d="M454.56,154.64a7.25,7.25,0,1,1-7.08,7.2A7.19,7.19,0,0,1,454.56,154.64Zm0,11.64a4.2,4.2,0,0,0,4.11-4.44,4.13,4.13,0,1,0-8.25,0A4.2,4.2,0,0,0,454.56,166.28Z" fill="#091b43"/><path d="M464.64,155.42a.59.59,0,0,1,.63-.6,1.76,1.76,0,0,1,1.8,1.68,6.39,6.39,0,0,1,4.59-1.86c4.23,0,5.37,2.94,5.37,6.54v7a.69.69,0,0,1-.66.66h-1.68a.67.67,0,0,1-.66-.66v-7.08c0-2.25-.93-3.57-2.73-3.57a4.22,4.22,0,0,0-3.66,2v8.64c0,.45-.24.66-.81.66H465.3a.67.67,0,0,1-.66-.66Z" fill="#091b43"/><path d="M486.84,154.64a6.17,6.17,0,0,1,6.33,6.36c0,.24,0,.72-.06,1a.65.65,0,0,1-.63.6h-9.57a4.05,4.05,0,0,0,4.14,3.78,5.38,5.38,0,0,0,3.39-1.17c.3-.21.57-.3.81.06l.81,1.26c.24.3.36.57-.06.93a7.94,7.94,0,0,1-5.13,1.71c-4.2,0-6.93-3.3-6.93-7.26S482.67,154.64,486.84,154.64Zm3.36,5.7a3.27,3.27,0,0,0-3.42-3.15,3.52,3.52,0,0,0-3.72,3.15Z" fill="#091b43"/><path d="M494.4,155.84a.61.61,0,0,1,.6-.9h2a.69.69,0,0,1,.6.39l3.21,9.51h.06l3.9-9.51c.12-.33.39-.39.72-.39h1.86a.6.6,0,0,1,.6.9l-8.46,19.68a.7.7,0,0,1-.57.42H497a.63.63,0,0,1-.6-.93l2.79-6.69Z" fill="#091b43"/><path d="M512.07,164.75a2.15,2.15,0,1,1-2.1,2.16A2.15,2.15,0,0,1,512.07,164.75Z" fill="#091b43"/><path d="M522.63,168l9.21-20.19a.7.7,0,0,1,.51-.33h.3a.7.7,0,0,1,.51.33L542.31,168a.53.53,0,0,1-.51.78h-1.89a.7.7,0,0,1-.69-.45l-1.86-4.11h-9.81l-1.83,4.11a.75.75,0,0,1-.69.45h-1.89A.53.53,0,0,1,522.63,168Zm13.59-6.36-3.69-8.22h-.15l-3.66,8.22Z" fill="#091b43"/><path d="M544.29,155.42a.59.59,0,0,1,.63-.6,1.76,1.76,0,0,1,1.8,1.68,6.39,6.39,0,0,1,4.59-1.86c4.23,0,5.37,2.94,5.37,6.54v7a.69.69,0,0,1-.66.66h-1.68a.67.67,0,0,1-.66-.66v-7.08c0-2.25-.93-3.57-2.73-3.57a4.22,4.22,0,0,0-3.66,2v8.64c0,.45-.24.66-.81.66H545a.67.67,0,0,1-.66-.66Z" fill="#091b43"/><path d="M566.28,154.64a10,10,0,0,1,3.48.72v-6.9a.71.71,0,0,1,.66-.66h1.71a.69.69,0,0,1,.66.66v19.86a.59.59,0,0,1-.63.6,1.76,1.76,0,0,1-1.83-1.59,6.64,6.64,0,0,1-4.41,1.8c-3.66,0-6.33-3.3-6.33-7.26S562.44,154.64,566.28,154.64Zm.06,11.64a4,4,0,0,0,3.45-2V158.3a6.91,6.91,0,0,0-3.18-.81,4.2,4.2,0,0,0-4,4.38C562.59,164.21,564.12,166.28,566.34,166.28Z" fill="#091b43"/><path d="M584.22,148.37a.59.59,0,0,1,.57-.57h2a.59.59,0,0,1,.57.57v19.86a.59.59,0,0,1-.57.57h-2a.59.59,0,0,1-.57-.57Z" fill="#091b43"/><path d="M598.86,148.46a.69.69,0,0,1,.66-.66h1.68a.71.71,0,0,1,.66.66v19.68a.69.69,0,0,1-.66.66h-1.68a.67.67,0,0,1-.66-.66Z" fill="#091b43"/><path d="M612.06,154.64a7.25,7.25,0,1,1-7.08,7.2A7.19,7.19,0,0,1,612.06,154.64Zm0,11.64a4.2,4.2,0,0,0,4.11-4.44,4.13,4.13,0,1,0-8.25,0A4.2,4.2,0,0,0,612.06,166.28Z" fill="#091b43"/><path d="M620.25,155.72c-.24-.42,0-.78.51-.78h1.83a.6.6,0,0,1,.6.39l3.69,8.49h.06l3.87-8.49c.18-.39.54-.39.93-.39h1.35c.51,0,.75.36.51.78l-6,13.05a.62.62,0,0,1-.57.36h-.18a.67.67,0,0,1-.6-.36Z" fill="#091b43"/><path d="M641.67,154.64A6.17,6.17,0,0,1,648,161c0,.24,0,.72-.06,1a.65.65,0,0,1-.63.6h-9.57a4.05,4.05,0,0,0,4.14,3.78,5.38,5.38,0,0,0,3.39-1.17c.3-.21.57-.3.81.06l.81,1.26c.24.3.36.57-.06.93a7.94,7.94,0,0,1-5.13,1.71c-4.2,0-6.93-3.3-6.93-7.26S637.5,154.64,641.67,154.64Zm3.36,5.7a3.27,3.27,0,0,0-3.42-3.15,3.52,3.52,0,0,0-3.72,3.15Z" fill="#091b43"/><path d="M664,154.64a7.25,7.25,0,1,1-7.08,7.2A7.19,7.19,0,0,1,664,154.64Zm0,11.64a4.2,4.2,0,0,0,4.11-4.44,4.13,4.13,0,1,0-8.25,0A4.2,4.2,0,0,0,664,166.28Z" fill="#091b43"/><path d="M674,155.42a.59.59,0,0,1,.63-.6,1.82,1.82,0,0,1,1.83,1.74,5.27,5.27,0,0,1,4.11-1.92c1.32,0,3,.36,2.52,1.29l-.72,1.5a.6.6,0,0,1-.84.33,3.42,3.42,0,0,0-1.26-.27,4,4,0,0,0-3.27,1.86v8.79c0,.6-.39.66-1,.66H674.7a.67.67,0,0,1-.66-.66Z" fill="#091b43"/><path d="M691.17,154.64a10,10,0,0,1,3.48.72v-6.9a.71.71,0,0,1,.66-.66H697a.69.69,0,0,1,.66.66v19.86a.59.59,0,0,1-.63.6,1.76,1.76,0,0,1-1.83-1.59,6.64,6.64,0,0,1-4.41,1.8c-3.66,0-6.33-3.3-6.33-7.26S687.33,154.64,691.17,154.64Zm.06,11.64a4,4,0,0,0,3.45-2V158.3a6.91,6.91,0,0,0-3.18-.81,4.2,4.2,0,0,0-4,4.38C687.48,164.21,689,166.28,691.23,166.28Z" fill="#091b43"/><path d="M707.64,154.64A6.17,6.17,0,0,1,714,161c0,.24,0,.72-.06,1a.65.65,0,0,1-.63.6h-9.57a4.05,4.05,0,0,0,4.14,3.78,5.38,5.38,0,0,0,3.39-1.17c.3-.21.57-.3.81.06l.81,1.26c.24.3.36.57-.06.93a7.94,7.94,0,0,1-5.13,1.71c-4.2,0-6.93-3.3-6.93-7.26S703.47,154.64,707.64,154.64Zm3.36,5.7a3.27,3.27,0,0,0-3.42-3.15,3.52,3.52,0,0,0-3.72,3.15Z" fill="#091b43"/><path d="M716.82,155.42a.59.59,0,0,1,.63-.6,1.82,1.82,0,0,1,1.83,1.74,5.27,5.27,0,0,1,4.11-1.92c1.32,0,3,.36,2.52,1.29l-.72,1.5a.6.6,0,0,1-.84.33,3.42,3.42,0,0,0-1.26-.27,4,4,0,0,0-3.27,1.86v8.79c0,.6-.39.66-1,.66h-1.38a.67.67,0,0,1-.66-.66Z" fill="#091b43"/><path d="M727.62,150a2,2,0,0,1,2-2,2,2,0,1,1,0,4.05A2,2,0,0,1,727.62,150Zm.48,5.64a.69.69,0,0,1,.66-.66h1.68a.71.71,0,0,1,.66.66v12.54a.69.69,0,0,1-.66.66h-1.68a.67.67,0,0,1-.66-.66Z" fill="#091b43"/><path d="M735,155.42a.59.59,0,0,1,.63-.6,1.76,1.76,0,0,1,1.8,1.68,6.39,6.39,0,0,1,4.59-1.86c4.23,0,5.37,2.94,5.37,6.54v7a.69.69,0,0,1-.66.66h-1.68a.67.67,0,0,1-.66-.66v-7.08c0-2.25-.93-3.57-2.73-3.57a4.22,4.22,0,0,0-3.66,2v8.64c0,.45-.24.66-.81.66h-1.53a.67.67,0,0,1-.66-.66Z" fill="#091b43"/><path d="M763.56,168.89c0,4.32-2.79,6.48-6.42,6.48a7.49,7.49,0,0,1-4.8-1.74.64.64,0,0,1-.15-.78l.72-1.32a.59.59,0,0,1,.93-.21,5.21,5.21,0,0,0,3.24,1.29c1.83,0,3.45-.9,3.45-3.72v-.75a7.39,7.39,0,0,1-3.54,1c-3.78,0-6.69-3.21-6.69-7.26s2.73-7.23,6.54-7.23a6.59,6.59,0,0,1,4.32,1.59,1.73,1.73,0,0,1,1.77-1.41.59.59,0,0,1,.63.6Zm-6.21-2.61a5.64,5.64,0,0,0,3.21-1.11v-5.73a3.91,3.91,0,0,0-7.26,2.43A4.27,4.27,0,0,0,757.35,166.28Z" fill="#091b43"/><path d="M773.4,157.49a.67.67,0,0,1-.66-.66V155.6a.63.63,0,0,1,.66-.66H775v-3.87a.67.67,0,0,1,.66-.66h1.71a.64.64,0,0,1,.63.66v3.87h3.66a.65.65,0,0,1,.66.66v1.23a.69.69,0,0,1-.66.66H778v7.38c0,1.17.75,1.41,1.65,1.41a3.85,3.85,0,0,0,1.68-.51.52.52,0,0,1,.81.3l.54,1.41c.15.36,0,.6-.33.81a6.6,6.6,0,0,1-3,.84c-3,0-4.35-1.68-4.35-4.14v-7.5Z" fill="#091b43"/><path d="M785.16,148.46a.69.69,0,0,1,.66-.66h1.68a.71.71,0,0,1,.66.66v7.62a6.7,6.7,0,0,1,4-1.44c3.93,0,5.37,2.76,5.37,6.54v7a.69.69,0,0,1-.66.66h-1.68a.67.67,0,0,1-.66-.66v-7c0-2.28-1-3.63-2.76-3.63a4.13,4.13,0,0,0-3.63,2v8.64a.64.64,0,0,1-.69.66h-1.65a.67.67,0,0,1-.66-.66Z" fill="#091b43"/><path d="M800.82,150a2,2,0,0,1,2-2,2,2,0,1,1,0,4.05A2,2,0,0,1,800.82,150Zm.48,5.64a.69.69,0,0,1,.66-.66h1.68a.71.71,0,0,1,.66.66v12.54a.69.69,0,0,1-.66.66H802a.67.67,0,0,1-.66-.66Z" fill="#091b43"/><path d="M808.2,155.42a.59.59,0,0,1,.63-.6,1.76,1.76,0,0,1,1.8,1.68,6.39,6.39,0,0,1,4.59-1.86c4.23,0,5.37,2.94,5.37,6.54v7a.69.69,0,0,1-.66.66h-1.68a.67.67,0,0,1-.66-.66v-7.08c0-2.25-.93-3.57-2.73-3.57a4.22,4.22,0,0,0-3.66,2v8.64c0,.45-.24.66-.81.66h-1.53a.67.67,0,0,1-.66-.66Z" fill="#091b43"/><path d="M836.76,168.89c0,4.32-2.79,6.48-6.42,6.48a7.49,7.49,0,0,1-4.8-1.74.64.64,0,0,1-.15-.78l.72-1.32a.59.59,0,0,1,.93-.21,5.21,5.21,0,0,0,3.24,1.29c1.83,0,3.45-.9,3.45-3.72v-.75a7.39,7.39,0,0,1-3.54,1c-3.78,0-6.69-3.21-6.69-7.26s2.73-7.23,6.54-7.23a6.59,6.59,0,0,1,4.32,1.59,1.73,1.73,0,0,1,1.77-1.41.59.59,0,0,1,.63.6Zm-6.21-2.61a5.64,5.64,0,0,0,3.21-1.11v-5.73a3.91,3.91,0,0,0-7.26,2.43A4.27,4.27,0,0,0,830.55,166.28Z" fill="#091b43"/><path d="M840.09,167.72a.57.57,0,0,1-.24-.72l.63-1.29a.62.62,0,0,1,.9-.18,6.44,6.44,0,0,0,3.45,1c1.17,0,1.83-.57,1.83-1.35s-1-1.53-3-2.4c-2.13-1-3.75-2.1-3.75-4.38,0-1.74,1.23-3.78,4.59-3.78a7.74,7.74,0,0,1,4.05,1,.82.82,0,0,1,.3,1l-.48,1a.65.65,0,0,1-.9.27,7.19,7.19,0,0,0-3-.69c-1.2,0-1.77.6-1.77,1.23,0,.9,1,1.44,2.37,2,2.55,1.08,4.47,2,4.47,4.59,0,2.16-1.86,4-5,4A8,8,0,0,1,840.09,167.72Z" fill="#091b43"/><path d="M346.42,181.37a.59.59,0,0,1,.57-.57h2a.59.59,0,0,1,.57.57v19.86a.59.59,0,0,1-.57.57h-2a.59.59,0,0,1-.57-.57Z" fill="#091b43"/><path d="M362.14,190.73h-1.8a.67.67,0,0,1-.66-.66V188.6a.63.63,0,0,1,.66-.66h1.8v-1.59c0-3.72,1.77-5.85,5.13-5.85a6.12,6.12,0,0,1,3.93,1.38.61.61,0,0,1,.12.78l-.87,1.26c-.21.33-.54.36-.9.12a3.68,3.68,0,0,0-2.22-.69c-1.56,0-2.19,1.26-2.19,3v1.59h3.93a.65.65,0,0,1,.66.66v1.47a.69.69,0,0,1-.66.66h-3.93v10.41a.69.69,0,0,1-.66.66H362.8a.69.69,0,0,1-.66-.66Z" fill="#091b43"/><path d="M378.07,187.64a7.25,7.25,0,1,1-7.08,7.2A7.19,7.19,0,0,1,378.07,187.64Zm0,11.64a4.2,4.2,0,0,0,4.11-4.44,4.13,4.13,0,1,0-8.25,0A4.2,4.2,0,0,0,378.07,199.28Z" fill="#091b43"/><path d="M388.15,188.42a.59.59,0,0,1,.63-.6,1.82,1.82,0,0,1,1.83,1.74,5.27,5.27,0,0,1,4.11-1.92c1.32,0,3,.36,2.52,1.29l-.72,1.5a.6.6,0,0,1-.84.33,3.42,3.42,0,0,0-1.26-.27,4,4,0,0,0-3.27,1.86v8.79c0,.6-.39.66-1,.66h-1.38a.67.67,0,0,1-.66-.66Z" fill="#091b43"/><path d="M411.84,201.89c0,4.32-2.78,6.48-6.41,6.48a7.49,7.49,0,0,1-4.8-1.74.64.64,0,0,1-.15-.78l.72-1.32a.59.59,0,0,1,.93-.21,5.21,5.21,0,0,0,3.24,1.29c1.83,0,3.44-.9,3.44-3.72v-.75a7.3,7.3,0,0,1-3.53,1c-3.78,0-6.69-3.21-6.69-7.26s2.73-7.23,6.53-7.23a6.54,6.54,0,0,1,4.32,1.59,1.75,1.75,0,0,1,1.77-1.41.59.59,0,0,1,.63.6Zm-6.2-2.61a5.64,5.64,0,0,0,3.21-1.11v-5.73a3.91,3.91,0,0,0-7.26,2.43A4.27,4.27,0,0,0,405.64,199.28Z" fill="#091b43"/><path d="M422,187.64a7.25,7.25,0,1,1-7.07,7.2A7.19,7.19,0,0,1,422,187.64Zm0,11.64a4.2,4.2,0,0,0,4.11-4.44,4.13,4.13,0,1,0-8.25,0A4.2,4.2,0,0,0,422,199.28Z" fill="#091b43"/><path d="M431.19,190.49a.66.66,0,0,1-.65-.66V188.6a.63.63,0,0,1,.65-.66h1.59v-3.87a.67.67,0,0,1,.66-.66h1.71a.64.64,0,0,1,.63.66v3.87h3.66a.65.65,0,0,1,.66.66v1.23a.69.69,0,0,1-.66.66h-3.66v7.38c0,1.17.75,1.41,1.65,1.41a3.85,3.85,0,0,0,1.68-.51.52.52,0,0,1,.81.3l.54,1.41c.15.36,0,.6-.33.81a6.6,6.6,0,0,1-3,.84c-3,0-4.35-1.68-4.35-4.14v-7.5Z" fill="#091b43"/><path d="M454.35,193a10.66,10.66,0,0,1,2.79.42c.06-2.19-1.05-3.18-2.79-3.18a9.77,9.77,0,0,0-3.3.66.64.64,0,0,1-.78-.57l-.27-1.14a.63.63,0,0,1,.45-.81,8.52,8.52,0,0,1,4-.78c4.44,0,5.67,2.67,5.67,6.12v7.56a.59.59,0,0,1-.63.6,1.76,1.76,0,0,1-1.83-1.62,6,6,0,0,1-4.35,1.83,4.28,4.28,0,0,1-4.47-4.62C448.8,195,450.78,193,454.35,193Zm-.45,6.63a4.29,4.29,0,0,0,3.21-1.68v-2.31a6.3,6.3,0,0,0-2.52-.48c-1.62,0-2.85.84-2.85,2.28A2,2,0,0,0,453.9,199.67Z" fill="#091b43"/><path d="M463.86,188.42a.59.59,0,0,1,.63-.6,1.76,1.76,0,0,1,1.8,1.68,6.39,6.39,0,0,1,4.59-1.86c4.23,0,5.37,2.94,5.37,6.54v7a.69.69,0,0,1-.66.66h-1.68a.67.67,0,0,1-.66-.66v-7.08c0-2.25-.93-3.57-2.73-3.57a4.22,4.22,0,0,0-3.66,2v8.64c0,.45-.24.66-.81.66h-1.53a.67.67,0,0,1-.66-.66Z" fill="#091b43"/><path d="M485.85,187.64a10,10,0,0,1,3.48.72v-6.9a.71.71,0,0,1,.66-.66h1.71a.69.69,0,0,1,.66.66v19.86a.59.59,0,0,1-.63.6,1.76,1.76,0,0,1-1.83-1.59,6.64,6.64,0,0,1-4.41,1.8c-3.66,0-6.33-3.3-6.33-7.26S482,187.64,485.85,187.64Zm.06,11.64a4,4,0,0,0,3.45-2V191.3a6.91,6.91,0,0,0-3.18-.81,4.2,4.2,0,0,0-4,4.38C482.16,197.21,483.69,199.28,485.91,199.28Z" fill="#091b43"/><path d="M515.58,201.89c0,4.32-2.79,6.48-6.42,6.48a7.49,7.49,0,0,1-4.8-1.74.64.64,0,0,1-.15-.78l.72-1.32a.59.59,0,0,1,.93-.21,5.21,5.21,0,0,0,3.24,1.29c1.83,0,3.45-.9,3.45-3.72v-.75a7.39,7.39,0,0,1-3.54,1c-3.78,0-6.69-3.21-6.69-7.26s2.73-7.23,6.54-7.23a6.59,6.59,0,0,1,4.32,1.59,1.73,1.73,0,0,1,1.77-1.41.59.59,0,0,1,.63.6Zm-6.21-2.61a5.64,5.64,0,0,0,3.21-1.11v-5.73a3.91,3.91,0,0,0-7.26,2.43A4.27,4.27,0,0,0,509.37,199.28Z" fill="#091b43"/><path d="M525.54,187.64a6.17,6.17,0,0,1,6.33,6.36c0,.24,0,.72-.06,1a.65.65,0,0,1-.63.6h-9.57a4.05,4.05,0,0,0,4.14,3.78,5.38,5.38,0,0,0,3.39-1.17c.3-.21.57-.3.81.06l.81,1.26c.24.3.36.57-.06.93a7.94,7.94,0,0,1-5.13,1.71c-4.2,0-6.93-3.3-6.93-7.26S521.37,187.64,525.54,187.64Zm3.36,5.7a3.27,3.27,0,0,0-3.42-3.15,3.52,3.52,0,0,0-3.72,3.15Z" fill="#091b43"/><path d="M534.06,190.49a.67.67,0,0,1-.66-.66V188.6a.63.63,0,0,1,.66-.66h1.59v-3.87a.67.67,0,0,1,.66-.66H538a.64.64,0,0,1,.63.66v3.87h3.66a.65.65,0,0,1,.66.66v1.23a.69.69,0,0,1-.66.66h-3.66v7.38c0,1.17.75,1.41,1.65,1.41a3.85,3.85,0,0,0,1.68-.51.52.52,0,0,1,.81.3l.54,1.41c.15.36,0,.6-.33.81a6.6,6.6,0,0,1-3,.84c-3,0-4.35-1.68-4.35-4.14v-7.5Z" fill="#091b43"/><path d="M545.16,190.49a.67.67,0,0,1-.66-.66V188.6a.63.63,0,0,1,.66-.66h1.59v-3.87a.67.67,0,0,1,.66-.66h1.71a.64.64,0,0,1,.63.66v3.87h3.66a.65.65,0,0,1,.66.66v1.23a.69.69,0,0,1-.66.66h-3.66v7.38c0,1.17.75,1.41,1.65,1.41a3.85,3.85,0,0,0,1.68-.51.52.52,0,0,1,.81.3l.54,1.41c.15.36,0,.6-.33.81a6.6,6.6,0,0,1-3,.84c-3,0-4.35-1.68-4.35-4.14v-7.5Z" fill="#091b43"/><path d="M556.44,183a2,2,0,0,1,2-2,2,2,0,1,1,0,4.05A2,2,0,0,1,556.44,183Zm.48,5.64a.69.69,0,0,1,.66-.66h1.68a.71.71,0,0,1,.66.66v12.54a.69.69,0,0,1-.66.66h-1.68a.67.67,0,0,1-.66-.66Z" fill="#091b43"/><path d="M563.82,188.42a.59.59,0,0,1,.63-.6,1.76,1.76,0,0,1,1.8,1.68,6.39,6.39,0,0,1,4.59-1.86c4.23,0,5.37,2.94,5.37,6.54v7a.69.69,0,0,1-.66.66h-1.68a.67.67,0,0,1-.66-.66v-7.08c0-2.25-.93-3.57-2.73-3.57a4.22,4.22,0,0,0-3.66,2v8.64c0,.45-.24.66-.81.66h-1.53a.67.67,0,0,1-.66-.66Z" fill="#091b43"/><path d="M592.38,201.89c0,4.32-2.79,6.48-6.42,6.48a7.49,7.49,0,0,1-4.8-1.74.64.64,0,0,1-.15-.78l.72-1.32a.59.59,0,0,1,.93-.21,5.21,5.21,0,0,0,3.24,1.29c1.83,0,3.45-.9,3.45-3.72v-.75a7.39,7.39,0,0,1-3.54,1c-3.78,0-6.69-3.21-6.69-7.26s2.73-7.23,6.54-7.23a6.59,6.59,0,0,1,4.32,1.59,1.73,1.73,0,0,1,1.77-1.41.59.59,0,0,1,.63.6Zm-6.21-2.61a5.64,5.64,0,0,0,3.21-1.11v-5.73a3.91,3.91,0,0,0-7.26,2.43A4.27,4.27,0,0,0,586.17,199.28Z" fill="#091b43"/><path d="M602.22,190.49a.67.67,0,0,1-.66-.66V188.6a.63.63,0,0,1,.66-.66h1.59v-3.87a.67.67,0,0,1,.66-.66h1.71a.64.64,0,0,1,.63.66v3.87h3.66a.65.65,0,0,1,.66.66v1.23a.69.69,0,0,1-.66.66h-3.66v7.38c0,1.17.75,1.41,1.65,1.41a3.85,3.85,0,0,0,1.68-.51.52.52,0,0,1,.81.3l.54,1.41c.15.36,0,.6-.33.81a6.6,6.6,0,0,1-3,.84c-3,0-4.35-1.68-4.35-4.14v-7.5Z" fill="#091b43"/><path d="M614,181.46a.69.69,0,0,1,.66-.66h1.68a.71.71,0,0,1,.66.66v7.62a6.7,6.7,0,0,1,4-1.44c3.93,0,5.37,2.76,5.37,6.54v7a.69.69,0,0,1-.66.66H624a.67.67,0,0,1-.66-.66v-7c0-2.28-1-3.63-2.76-3.63a4.13,4.13,0,0,0-3.63,2v8.64a.64.64,0,0,1-.69.66h-1.65a.67.67,0,0,1-.66-.66Z" fill="#091b43"/><path d="M636.18,187.64a6.17,6.17,0,0,1,6.33,6.36c0,.24,0,.72-.06,1a.65.65,0,0,1-.63.6h-9.57a4.05,4.05,0,0,0,4.14,3.78,5.38,5.38,0,0,0,3.39-1.17c.3-.21.57-.3.81.06l.81,1.26c.24.3.36.57-.06.93a7.94,7.94,0,0,1-5.13,1.71c-4.2,0-6.93-3.3-6.93-7.26S632,187.64,636.18,187.64Zm3.36,5.7a3.27,3.27,0,0,0-3.42-3.15,3.52,3.52,0,0,0-3.72,3.15Z" fill="#091b43"/><path d="M645.36,188.42a.59.59,0,0,1,.63-.6,1.75,1.75,0,0,1,1.8,1.62,6,6,0,0,1,4.32-1.8,4.74,4.74,0,0,1,4.23,2.19,6.59,6.59,0,0,1,4.68-2.19c4.23,0,5.28,2.94,5.28,6.54v7a.65.65,0,0,1-.66.66H664a.63.63,0,0,1-.66-.66v-7.08c0-2.22-.84-3.57-2.73-3.57a4.32,4.32,0,0,0-3.33,1.62,13,13,0,0,1,.12,1.86v7.17a.66.66,0,0,1-.63.66H655a.65.65,0,0,1-.66-.66v-7.08c0-2.25-.81-3.57-2.73-3.57a3.52,3.52,0,0,0-3.27,2v8.64a.69.69,0,0,1-.66.66H646a.67.67,0,0,1-.66-.66Z" fill="#091b43"/><path d="M676.38,200.72a.57.57,0,0,1-.24-.72l.63-1.29a.62.62,0,0,1,.9-.18,6.44,6.44,0,0,0,3.45,1c1.17,0,1.83-.57,1.83-1.35s-1.05-1.53-3-2.4c-2.13-1-3.75-2.1-3.75-4.38,0-1.74,1.23-3.78,4.59-3.78a7.74,7.74,0,0,1,4,1,.82.82,0,0,1,.3,1l-.48,1a.65.65,0,0,1-.9.27,7.19,7.19,0,0,0-3-.69c-1.2,0-1.77.6-1.77,1.23,0,.9,1,1.44,2.37,2,2.55,1.08,4.47,2,4.47,4.59,0,2.16-1.86,4-4.95,4A8,8,0,0,1,676.38,200.72Z" fill="#091b43"/><path d="M693.27,193a10.66,10.66,0,0,1,2.79.42c.06-2.19-1-3.18-2.79-3.18a9.77,9.77,0,0,0-3.3.66.64.64,0,0,1-.78-.57l-.27-1.14a.63.63,0,0,1,.45-.81,8.52,8.52,0,0,1,4-.78c4.44,0,5.67,2.67,5.67,6.12v7.56a.59.59,0,0,1-.63.6,1.76,1.76,0,0,1-1.83-1.62,6,6,0,0,1-4.35,1.83,4.28,4.28,0,0,1-4.47-4.62C687.72,195,689.7,193,693.27,193Zm-.45,6.63A4.29,4.29,0,0,0,696,198v-2.31a6.3,6.3,0,0,0-2.52-.48c-1.62,0-2.85.84-2.85,2.28A2,2,0,0,0,692.82,199.67Z" fill="#091b43"/><path d="M702.78,188.42a.59.59,0,0,1,.63-.6,1.75,1.75,0,0,1,1.8,1.62,6,6,0,0,1,4.32-1.8,4.74,4.74,0,0,1,4.23,2.19,6.59,6.59,0,0,1,4.68-2.19c4.23,0,5.28,2.94,5.28,6.54v7a.65.65,0,0,1-.66.66h-1.68a.63.63,0,0,1-.66-.66v-7.08c0-2.22-.84-3.57-2.73-3.57a4.32,4.32,0,0,0-3.33,1.62,13,13,0,0,1,.12,1.86v7.17a.66.66,0,0,1-.63.66h-1.71a.65.65,0,0,1-.66-.66v-7.08c0-2.25-.81-3.57-2.73-3.57a3.52,3.52,0,0,0-3.27,2v8.64a.69.69,0,0,1-.66.66h-1.68a.67.67,0,0,1-.66-.66Z" fill="#091b43"/><path d="M733.53,187.64a6.17,6.17,0,0,1,6.33,6.36c0,.24,0,.72-.06,1a.65.65,0,0,1-.63.6H729.6a4.05,4.05,0,0,0,4.14,3.78,5.38,5.38,0,0,0,3.39-1.17c.3-.21.57-.3.81.06l.81,1.26c.24.3.36.57-.06.93a7.94,7.94,0,0,1-5.13,1.71c-4.2,0-6.93-3.3-6.93-7.26S729.36,187.64,733.53,187.64Zm3.36,5.7a3.27,3.27,0,0,0-3.42-3.15,3.52,3.52,0,0,0-3.72,3.15Z" fill="#091b43"/><path d="M755.46,187.64a10,10,0,0,1,3.48.72v-6.9a.71.71,0,0,1,.66-.66h1.71a.69.69,0,0,1,.66.66v19.86a.59.59,0,0,1-.63.6,1.76,1.76,0,0,1-1.83-1.59,6.64,6.64,0,0,1-4.41,1.8c-3.66,0-6.33-3.3-6.33-7.26S751.62,187.64,755.46,187.64Zm.06,11.64a4,4,0,0,0,3.45-2V191.3a6.91,6.91,0,0,0-3.18-.81,4.2,4.2,0,0,0-4,4.38C751.77,197.21,753.3,199.28,755.52,199.28Z" fill="#091b43"/><path d="M770.37,193a10.66,10.66,0,0,1,2.79.42c.06-2.19-1-3.18-2.79-3.18a9.77,9.77,0,0,0-3.3.66.64.64,0,0,1-.78-.57l-.27-1.14a.63.63,0,0,1,.45-.81,8.52,8.52,0,0,1,4-.78c4.44,0,5.67,2.67,5.67,6.12v7.56a.59.59,0,0,1-.63.6,1.76,1.76,0,0,1-1.83-1.62,6,6,0,0,1-4.35,1.83,4.28,4.28,0,0,1-4.47-4.62C764.82,195,766.8,193,770.37,193Zm-.45,6.63a4.29,4.29,0,0,0,3.21-1.68v-2.31a6.3,6.3,0,0,0-2.52-.48c-1.62,0-2.85.84-2.85,2.28A2,2,0,0,0,769.92,199.67Z" fill="#091b43"/><path d="M778.17,188.84a.61.61,0,0,1,.6-.9h2a.69.69,0,0,1,.6.39l3.21,9.51h.06l3.9-9.51c.12-.33.39-.39.72-.39h1.86a.6.6,0,0,1,.6.9l-8.46,19.68a.7.7,0,0,1-.57.42h-1.92a.63.63,0,0,1-.6-.93l2.79-6.69Z" fill="#091b43"/><path d="M796,198.14a2,2,0,1,1-1.95,2A2,2,0,0,1,796,198.14Zm-1.17-3.9-.69-12.36c0-.78.78-1.38,1.89-1.38s1.92.6,1.89,1.38l-.69,12.36c0,.42-.54.78-1.2.78S794.88,194.66,794.85,194.24Z" fill="#091b43"/><path d="M803.64,198.14a2,2,0,1,1-1.95,2A2,2,0,0,1,803.64,198.14Zm-1.17-3.9-.69-12.36c0-.78.78-1.38,1.89-1.38s1.92.6,1.89,1.38l-.69,12.36c0,.42-.54.78-1.2.78S802.5,194.66,802.47,194.24Z" fill="#091b43"/></g><g id="Fort_Worth_TX" data-name="Fort Worth, TX"><path d="M345.21,78a.44.44,0,0,1,.43-.44h9.06a.44.44,0,0,1,.44.44v.67a.43.43,0,0,1-.44.43H347v6.3h6.6a.45.45,0,0,1,.43.44v.67a.44.44,0,0,1-.43.43H347v6.28a.46.46,0,0,1-.44.44h-.9a.44.44,0,0,1-.43-.44Z" fill="#0071de"/><path d="M361.56,82.77a5.55,5.55,0,1,1-5.34,5.51A5.46,5.46,0,0,1,361.56,82.77Zm0,9.56a3.82,3.82,0,0,0,3.63-4,3.66,3.66,0,1,0-7.29,0A3.84,3.84,0,0,0,361.56,92.33Z" fill="#0071de"/><path d="M369.44,83.32a.39.39,0,0,1,.42-.42c.67,0,1,.51,1.1,1.2a4.39,4.39,0,0,1,3.27-1.33c.8,0,2.11.11,1.86.85l-.3.82a.4.4,0,0,1-.62.26,2.58,2.58,0,0,0-1.15-.3,3.34,3.34,0,0,0-2.87,1.35v7.36a.53.53,0,0,1-.51.51H370a.51.51,0,0,1-.51-.51Z" fill="#0071de"/><path d="M377.92,84.47a.5.5,0,0,1-.53-.51V83.5a.48.48,0,0,1,.53-.5h1.4v-3a.54.54,0,0,1,.5-.5l.72,0A.48.48,0,0,1,381,80v3h3.13a.5.5,0,0,1,.53.5V84a.52.52,0,0,1-.53.51H381v6.27a1.41,1.41,0,0,0,1.43,1.59,3.29,3.29,0,0,0,1.63-.46c.41-.25.57,0,.67.21l.18.46c.14.34.09.53-.18.69a5.53,5.53,0,0,1-2.51.64,2.92,2.92,0,0,1-2.92-3.13V84.47Z" fill="#0071de"/><path d="M391.28,78.07a.4.4,0,0,1,.41-.55h1a.46.46,0,0,1,.41.32l3.2,11.92h.09l3.84-12.22a.4.4,0,0,1,.39-.25H401a.43.43,0,0,1,.39.25l3.91,12.22h.09l3.12-11.92a.48.48,0,0,1,.42-.32h1a.4.4,0,0,1,.42.55L406,93.53a.44.44,0,0,1-.41.32h-.37a.48.48,0,0,1-.39-.25l-4-12.44h-.11L396.8,93.6a.48.48,0,0,1-.39.25H396a.45.45,0,0,1-.42-.32Z" fill="#0071de"/><path d="M416.38,82.77A5.55,5.55,0,1,1,411,88.28,5.46,5.46,0,0,1,416.38,82.77Zm0,9.56a3.82,3.82,0,0,0,3.63-4,3.66,3.66,0,1,0-7.29,0A3.84,3.84,0,0,0,416.38,92.33Z" fill="#0071de"/><path d="M424.27,83.32a.39.39,0,0,1,.41-.42c.67,0,1,.51,1.1,1.2a4.39,4.39,0,0,1,3.27-1.33c.8,0,2.12.11,1.86.85l-.3.82c-.11.35-.36.37-.62.26a2.58,2.58,0,0,0-1.15-.3A3.36,3.36,0,0,0,426,85.75v7.36a.53.53,0,0,1-.51.51h-.69a.51.51,0,0,1-.5-.51Z" fill="#0071de"/><path d="M432.74,84.47a.5.5,0,0,1-.53-.51V83.5a.49.49,0,0,1,.53-.5h1.4v-3a.54.54,0,0,1,.51-.5l.71,0a.48.48,0,0,1,.48.51v3H439a.5.5,0,0,1,.53.5V84a.52.52,0,0,1-.53.51h-3.13v6.27a1.41,1.41,0,0,0,1.43,1.59,3.29,3.29,0,0,0,1.63-.46c.41-.25.58,0,.67.21l.18.46c.14.34.09.53-.18.69a5.53,5.53,0,0,1-2.51.64,2.92,2.92,0,0,1-2.92-3.13V84.47Z" fill="#0071de"/><path d="M441.77,78a.53.53,0,0,1,.51-.51H443a.54.54,0,0,1,.5.51v6.09a4.84,4.84,0,0,1,3.38-1.35c2.65,0,3.84,1.63,3.84,4.73v5.61a.52.52,0,0,1-.5.51h-.71a.51.51,0,0,1-.51-.51V87.5c0-2-.6-3.19-2.23-3.19a4.55,4.55,0,0,0-3.27,1.51v7.29a.52.52,0,0,1-.5.51h-.69a.51.51,0,0,1-.51-.51Z" fill="#0071de"/><path d="M454.71,91.09c1.13,0,1.73,1.13,1.73,2.53a3.89,3.89,0,0,1-1.38,3.15.25.25,0,0,1-.37,0l-.39-.37c-.14-.14-.07-.3.05-.41a2.74,2.74,0,0,0,1-2,1.51,1.51,0,0,0-.09-.53,1.57,1.57,0,0,1-.76.21,1.1,1.1,0,0,1-1.1-1.13A1.26,1.26,0,0,1,454.71,91.09Z" fill="#0071de"/><path d="M467.75,79.06h-4a.43.43,0,0,1-.43-.43V78a.44.44,0,0,1,.43-.44h9.75a.44.44,0,0,1,.44.44v.67a.43.43,0,0,1-.44.43h-4V93.18a.46.46,0,0,1-.44.44h-.87a.46.46,0,0,1-.44-.44Z" fill="#0071de"/><path d="M480.11,85.36l-4.48-7.19a.42.42,0,0,1,.39-.65h1.24a.47.47,0,0,1,.39.21l3.54,6.09h0l3.58-6.09a.45.45,0,0,1,.4-.21h1.24a.42.42,0,0,1,.39.65l-4.49,7.19L487,93a.41.41,0,0,1-.39.65h-1.06a.48.48,0,0,1-.39-.21l-3.93-6.51h0l-3.88,6.51a.44.44,0,0,1-.39.21h-1.06a.42.42,0,0,1-.41-.65Z" fill="#0071de"/></g><g id="Michelle"><path d="M347,41.77a.51.51,0,0,1,.54-.45H348a.55.55,0,0,1,.51.3l6.6,14.16h.09l6.6-14.16a.52.52,0,0,1,.51-.3h.48a.51.51,0,0,1,.54.45l3.54,20.16a.52.52,0,0,1-.54.69H363.6a.65.65,0,0,1-.57-.45L361.26,50.8h-.09l-5.25,11.79a.51.51,0,0,1-.51.33h-.54a.54.54,0,0,1-.51-.33L349.05,50.8H349l-1.74,11.37a.58.58,0,0,1-.54.45H344a.55.55,0,0,1-.57-.69Z" fill="#0071de"/><path d="M369.28,44a2.34,2.34,0,0,1,2.37-2.37,2.36,2.36,0,0,1,2.4,2.37,2.39,2.39,0,0,1-2.4,2.4A2.36,2.36,0,0,1,369.28,44Zm.54,5.43a.67.67,0,0,1,.66-.66h2.43a.67.67,0,0,1,.66.66V62a.69.69,0,0,1-.66.66h-2.43a.69.69,0,0,1-.66-.66Z" fill="#0071de"/><path d="M383.3,48.46a6.86,6.86,0,0,1,5.16,2.34c.3.3.15.69-.15,1l-1.26,1.38c-.3.33-.63.18-.9-.09a3.78,3.78,0,0,0-2.76-1.2A3.83,3.83,0,1,0,386.3,58a.65.65,0,0,1,.87-.09l1.35,1.14c.33.3.48.63.24,1A6.2,6.2,0,0,1,383.27,63a7.25,7.25,0,1,1,0-14.49Z" fill="#0071de"/><path d="M391,42.28a.71.71,0,0,1,.66-.66h2.43a.69.69,0,0,1,.66.66v7.35a5.38,5.38,0,0,1,3.54-1.17c4.41,0,5.61,3.06,5.61,6.54v7a.69.69,0,0,1-.66.66h-2.43a.67.67,0,0,1-.66-.66V55c0-1.92-.87-3.09-2.52-3.09a2.86,2.86,0,0,0-2.88,2.43V62c0,.39-.18.66-.72.66h-2.37A.69.69,0,0,1,391,62Z" fill="#0071de"/><path d="M413.28,48.46a6.2,6.2,0,0,1,6.35,6.42c0,.21,0,.69-.05.9a.72.72,0,0,1-.66.63H410a3.33,3.33,0,0,0,3.45,3.21,4.59,4.59,0,0,0,3-1c.33-.27.69-.3.89,0l1.17,1.56a.58.58,0,0,1-.06.9A7.78,7.78,0,0,1,413.31,63a7.25,7.25,0,0,1,0-14.49ZM415.85,54a2.52,2.52,0,0,0-2.66-2.4,2.75,2.75,0,0,0-2.94,2.4Z" fill="#0071de"/><path d="M422.08,42.28a.71.71,0,0,1,.66-.66h2.43a.71.71,0,0,1,.66.66V62a.69.69,0,0,1-.66.66h-2.43a.69.69,0,0,1-.66-.66Z" fill="#0071de"/><path d="M429.14,42.28a.71.71,0,0,1,.66-.66h2.43a.71.71,0,0,1,.66.66V62a.69.69,0,0,1-.66.66H429.8a.69.69,0,0,1-.66-.66Z" fill="#0071de"/><path d="M442.38,48.46a6.21,6.21,0,0,1,6.36,6.42c0,.21,0,.69-.06.9a.7.7,0,0,1-.66.63h-8.88a3.33,3.33,0,0,0,3.45,3.21,4.59,4.59,0,0,0,3-1c.33-.27.69-.3.9,0l1.17,1.56a.58.58,0,0,1-.06.9A7.83,7.83,0,0,1,442.41,63a7.25,7.25,0,0,1,0-14.49ZM445,54a2.53,2.53,0,0,0-2.67-2.4,2.75,2.75,0,0,0-2.94,2.4Z" fill="#0071de"/></g><g id="Layer_21" data-name="Layer 21"><polygon points="702.14 36.12 698 47 686.37 47.58 695.44 54.88 692.39 66.12 702.14 59.75 711.89 66.12 708.85 54.88 717.91 47.58 706.28 47 702.14 36.12" fill="#ffc220"/><polygon points="739.14 36.12 735 47 723.37 47.58 732.44 54.88 729.39 66.12 739.14 59.75 748.89 66.12 745.84 54.88 754.91 47.58 743.28 47 739.14 36.12" fill="#ffc220"/><polygon points="776.13 36.12 771.99 47 760.36 47.58 769.43 54.88 766.39 66.12 776.13 59.75 785.88 66.12 782.84 54.88 791.91 47.58 780.28 47 776.13 36.12" fill="#ffc220"/><polygon points="813.13 36.12 808.99 47 797.36 47.58 806.43 54.88 803.38 66.12 813.13 59.75 822.88 66.12 819.83 54.88 828.9 47.58 817.27 47 813.13 36.12" fill="#ffc220"/><polygon points="850.13 36.12 845.98 47 834.36 47.58 843.42 54.88 840.38 66.12 850.13 59.75 859.87 66.12 856.83 54.88 865.9 47.58 854.27 47 850.13 36.12" fill="#ffc220"/></g><g id="rect"><rect width="970" height="250" fill="none"/></g></g></g></g></g></svg>