<svg xmlns="http://www.w3.org/2000/svg" viewBox="0 0 160 600"><g id="Layer_2" data-name="Layer 2"><g id="Bubble"><g id="Content"><g id="BUBBLE-2" data-name="BUBBLE"><rect x="4.5" y="193.5" width="151" height="213" rx="20" fill="#fff"/></g><g id="Walmart_is_very_convenient_and_saves_busy_parents_lots_of_time" data-name="Walmart+ is very convenient and saves busy parents lots of time"><path d="M14.52,290.4a.35.35,0,0,1,.36-.48h1.34a.41.41,0,0,1,.36.28L19,299.38h.08l3.26-9.44a.36.36,0,0,1,.34-.22H23a.36.36,0,0,1,.34.22l3.3,9.44h.08l2.38-9.18a.41.41,0,0,1,.36-.28h1.34a.35.35,0,0,1,.36.48l-3.78,13.44a.38.38,0,0,1-.36.28h-.32a.39.39,0,0,1-.34-.21l-3.52-10h-.1l-3.46,10a.39.39,0,0,1-.34.21h-.32a.38.38,0,0,1-.36-.28Z" fill="#091b43"/><path d="M35.12,298.08a7.11,7.11,0,0,1,1.86.28c0-1.46-.7-2.12-1.86-2.12a6.52,6.52,0,0,0-2.2.44.43.43,0,0,1-.52-.38l-.18-.76a.42.42,0,0,1,.3-.54,5.68,5.68,0,0,1,2.64-.52c3,0,3.78,1.78,3.78,4.08v5a.39.39,0,0,1-.42.4,1.17,1.17,0,0,1-1.22-1.08,4,4,0,0,1-2.9,1.22,2.85,2.85,0,0,1-3-3.08C31.42,299.36,32.74,298.08,35.12,298.08Zm-.3,4.42A2.86,2.86,0,0,0,37,301.38v-1.54a4.2,4.2,0,0,0-1.68-.32c-1.08,0-1.9.56-1.9,1.52A1.35,1.35,0,0,0,34.82,302.5Z" fill="#091b43"/><path d="M41.52,290.36a.46.46,0,0,1,.44-.44h1.12a.47.47,0,0,1,.44.44v13.12a.46.46,0,0,1-.44.44H42a.44.44,0,0,1-.44-.44Z" fill="#091b43"/><path d="M46.18,295a.39.39,0,0,1,.42-.4,1.17,1.17,0,0,1,1.2,1.08,4,4,0,0,1,2.88-1.2,3.16,3.16,0,0,1,2.82,1.46,4.39,4.39,0,0,1,3.12-1.46c2.82,0,3.52,2,3.52,4.36v4.64a.43.43,0,0,1-.44.44H58.58a.42.42,0,0,1-.44-.44v-4.72c0-1.48-.56-2.38-1.82-2.38a2.88,2.88,0,0,0-2.22,1.08,8.65,8.65,0,0,1,.08,1.24v4.78a.44.44,0,0,1-.42.44H52.62a.43.43,0,0,1-.44-.44v-4.72c0-1.5-.54-2.38-1.82-2.38a2.35,2.35,0,0,0-2.18,1.34v5.76a.46.46,0,0,1-.44.44H46.62a.44.44,0,0,1-.44-.44Z" fill="#091b43"/><path d="M65.64,298.08a7.11,7.11,0,0,1,1.86.28c0-1.46-.7-2.12-1.86-2.12a6.52,6.52,0,0,0-2.2.44.43.43,0,0,1-.52-.38l-.18-.76A.42.42,0,0,1,63,295a5.68,5.68,0,0,1,2.64-.52c3,0,3.78,1.78,3.78,4.08v5a.39.39,0,0,1-.42.4,1.17,1.17,0,0,1-1.22-1.08,4,4,0,0,1-2.9,1.22,2.85,2.85,0,0,1-3-3.08C61.94,299.36,63.26,298.08,65.64,298.08Zm-.3,4.42a2.86,2.86,0,0,0,2.14-1.12v-1.54a4.2,4.2,0,0,0-1.68-.32c-1.08,0-1.9.56-1.9,1.52A1.35,1.35,0,0,0,65.34,302.5Z" fill="#091b43"/><path d="M72,295a.39.39,0,0,1,.42-.4,1.21,1.21,0,0,1,1.22,1.16,3.51,3.51,0,0,1,2.74-1.28c.88,0,2,.24,1.68.86l-.48,1a.4.4,0,0,1-.56.22,2.28,2.28,0,0,0-.84-.18A2.63,2.63,0,0,0,74,297.62v5.86c0,.4-.26.44-.64.44h-.92a.44.44,0,0,1-.44-.44Z" fill="#091b43"/><path d="M79.06,296.38a.44.44,0,0,1-.44-.44v-.82a.42.42,0,0,1,.44-.44h1.06V292.1a.44.44,0,0,1,.44-.44H81.7a.43.43,0,0,1,.42.44v2.58h2.44a.43.43,0,0,1,.44.44v.82a.46.46,0,0,1-.44.44H82.12v4.92c0,.78.5.94,1.1.94a2.56,2.56,0,0,0,1.12-.34.35.35,0,0,1,.54.2l.36.94c.1.25,0,.4-.22.54a4.28,4.28,0,0,1-2,.56,2.56,2.56,0,0,1-2.9-2.76v-5Z" fill="#091b43"/><path d="M90.7,297.8H87.62a.39.39,0,0,1-.38-.38v-.84a.39.39,0,0,1,.38-.38H90.7v-3.1a.38.38,0,0,1,.38-.36h.84a.38.38,0,0,1,.38.36v3.1h3.08a.38.38,0,0,1,.36.38v.84a.38.38,0,0,1-.36.38H92.3v3.06a.38.38,0,0,1-.38.36h-.84a.38.38,0,0,1-.38-.36Z" fill="#091b43"/><path d="M103,291.36A1.33,1.33,0,0,1,104.3,290a1.35,1.35,0,1,1,0,2.7A1.32,1.32,0,0,1,103,291.36Zm.32,3.76a.46.46,0,0,1,.44-.44h1.12a.47.47,0,0,1,.44.44v8.36a.46.46,0,0,1-.44.44h-1.12a.44.44,0,0,1-.44-.44Z" fill="#091b43"/><path d="M107.52,303.21a.39.39,0,0,1-.16-.49l.42-.86a.41.41,0,0,1,.6-.12,4.3,4.3,0,0,0,2.3.68c.78,0,1.22-.38,1.22-.9s-.7-1-2-1.6-2.5-1.4-2.5-2.92c0-1.16.82-2.52,3.06-2.52a5.16,5.16,0,0,1,2.7.68.55.55,0,0,1,.2.68l-.32.64a.43.43,0,0,1-.6.18,4.79,4.79,0,0,0-2-.46c-.8,0-1.18.4-1.18.82,0,.6.66,1,1.58,1.36,1.7.72,3,1.34,3,3.06,0,1.44-1.24,2.7-3.3,2.7A5.45,5.45,0,0,1,107.52,303.21Z" fill="#091b43"/><path d="M14.4,316.7c-.16-.28,0-.52.34-.52H16a.4.4,0,0,1,.4.26l2.46,5.66h0l2.58-5.66c.12-.26.36-.26.62-.26H23c.34,0,.5.24.34.52l-4,8.71a.42.42,0,0,1-.38.23H18.8a.46.46,0,0,1-.4-.23Z" fill="#091b43"/><path d="M28.68,316a4.12,4.12,0,0,1,4.22,4.24c0,.16,0,.48,0,.64a.43.43,0,0,1-.42.4H26.06a2.7,2.7,0,0,0,2.76,2.52,3.58,3.58,0,0,0,2.26-.78c.2-.14.38-.2.54,0l.54.84c.16.2.24.38,0,.62a5.29,5.29,0,0,1-3.42,1.14,4.84,4.84,0,0,1,0-9.66Zm2.24,3.8a2.18,2.18,0,0,0-2.28-2.1,2.35,2.35,0,0,0-2.48,2.1Z" fill="#091b43"/><path d="M34.8,316.5a.39.39,0,0,1,.42-.4,1.21,1.21,0,0,1,1.22,1.16A3.51,3.51,0,0,1,39.18,316c.88,0,2,.24,1.68.86l-.48,1a.4.4,0,0,1-.56.22,2.28,2.28,0,0,0-.84-.18,2.63,2.63,0,0,0-2.18,1.24V325c0,.4-.26.44-.64.44h-.92a.44.44,0,0,1-.44-.44Z" fill="#091b43"/><path d="M41.38,316.78a.41.41,0,0,1,.4-.6H43.1a.46.46,0,0,1,.4.26l2.14,6.34h0l2.6-6.34c.08-.22.26-.26.48-.26H50a.4.4,0,0,1,.4.6l-5.64,13.13a.46.46,0,0,1-.38.28H43.1a.42.42,0,0,1-.4-.62l1.86-4.47Z" fill="#091b43"/><path d="M60.36,316a4.05,4.05,0,0,1,3.36,1.6.46.46,0,0,1-.08.66l-.72.66c-.26.24-.44.06-.6-.1a2.79,2.79,0,0,0-1.9-.92,2.93,2.93,0,0,0-.06,5.86,2.85,2.85,0,0,0,2.18-1.14.43.43,0,0,1,.62,0l.62.5c.22.2.32.42.16.66a4.22,4.22,0,0,1-3.6,1.92,4.71,4.71,0,0,1-4.72-4.82A4.8,4.8,0,0,1,60.36,316Z" fill="#091b43"/><path d="M69.86,316a4.83,4.83,0,1,1-4.72,4.8A4.79,4.79,0,0,1,69.86,316Zm0,7.76a2.8,2.8,0,0,0,2.74-3,2.75,2.75,0,1,0-5.5,0A2.8,2.8,0,0,0,69.86,323.74Z" fill="#091b43"/><path d="M76.58,316.5a.39.39,0,0,1,.42-.4,1.18,1.18,0,0,1,1.2,1.12A4.26,4.26,0,0,1,81.26,316c2.82,0,3.58,2,3.58,4.36V325a.46.46,0,0,1-.44.44H83.28a.44.44,0,0,1-.44-.44v-4.72c0-1.5-.62-2.38-1.82-2.38a2.81,2.81,0,0,0-2.44,1.34V325c0,.31-.16.44-.54.44H77a.44.44,0,0,1-.44-.44Z" fill="#091b43"/><path d="M86.34,316.7c-.16-.28,0-.52.34-.52H87.9a.4.4,0,0,1,.4.26l2.46,5.66h0l2.58-5.66c.12-.26.36-.26.62-.26h.9c.34,0,.5.24.34.52l-4,8.71a.42.42,0,0,1-.38.23h-.12a.46.46,0,0,1-.4-.23Z" fill="#091b43"/><path d="M100.62,316a4.12,4.12,0,0,1,4.22,4.24c0,.16,0,.48,0,.64a.43.43,0,0,1-.42.4H98a2.7,2.7,0,0,0,2.76,2.52A3.58,3.58,0,0,0,103,323c.2-.14.38-.2.54,0l.54.84c.16.2.24.38,0,.62a5.29,5.29,0,0,1-3.42,1.14,4.84,4.84,0,0,1,0-9.66Zm2.24,3.8a2.18,2.18,0,0,0-2.28-2.1,2.35,2.35,0,0,0-2.48,2.1Z" fill="#091b43"/><path d="M106.74,316.5a.39.39,0,0,1,.42-.4,1.18,1.18,0,0,1,1.2,1.12,4.26,4.26,0,0,1,3.06-1.24c2.82,0,3.58,2,3.58,4.36V325a.46.46,0,0,1-.44.44h-1.12A.44.44,0,0,1,113,325v-4.72c0-1.5-.62-2.38-1.82-2.38a2.81,2.81,0,0,0-2.44,1.34V325c0,.31-.16.44-.54.44h-1a.44.44,0,0,1-.44-.44Z" fill="#091b43"/><path d="M117.18,312.86a1.33,1.33,0,0,1,1.32-1.36,1.35,1.35,0,1,1,0,2.7A1.32,1.32,0,0,1,117.18,312.86Zm.32,3.76a.46.46,0,0,1,.44-.44h1.12a.47.47,0,0,1,.44.44V325a.46.46,0,0,1-.44.44h-1.12a.44.44,0,0,1-.44-.44Z" fill="#091b43"/><path d="M126.14,316a4.12,4.12,0,0,1,4.22,4.24c0,.16,0,.48,0,.64a.43.43,0,0,1-.42.4h-6.38a2.7,2.7,0,0,0,2.76,2.52,3.58,3.58,0,0,0,2.26-.78c.2-.14.38-.2.54,0l.54.84c.16.2.24.38,0,.62a5.29,5.29,0,0,1-3.42,1.14,4.84,4.84,0,0,1,0-9.66Zm2.24,3.8a2.18,2.18,0,0,0-2.28-2.1,2.35,2.35,0,0,0-2.48,2.1Z" fill="#091b43"/><path d="M132.26,316.5a.39.39,0,0,1,.42-.4,1.18,1.18,0,0,1,1.2,1.12,4.26,4.26,0,0,1,3.06-1.24c2.82,0,3.58,2,3.58,4.36V325a.46.46,0,0,1-.44.44H139a.44.44,0,0,1-.44-.44v-4.72c0-1.5-.62-2.38-1.82-2.38a2.81,2.81,0,0,0-2.44,1.34V325c0,.31-.16.44-.54.44h-1a.44.44,0,0,1-.44-.44Z" fill="#091b43"/><path d="M142.58,317.88a.44.44,0,0,1-.44-.44v-.82a.42.42,0,0,1,.44-.44h1.06V313.6a.44.44,0,0,1,.44-.44h1.14a.43.43,0,0,1,.42.44v2.58h2.44a.43.43,0,0,1,.44.44v.82a.46.46,0,0,1-.44.44h-2.44v4.92c0,.78.5.94,1.1.94a2.56,2.56,0,0,0,1.12-.34.35.35,0,0,1,.54.2l.36.94c.1.25,0,.4-.22.54a4.28,4.28,0,0,1-2,.56,2.56,2.56,0,0,1-2.9-2.76v-5Z" fill="#091b43"/><path d="M18.4,341.08a7.11,7.11,0,0,1,1.86.28c0-1.46-.7-2.12-1.86-2.12a6.52,6.52,0,0,0-2.2.44.43.43,0,0,1-.52-.38l-.18-.76a.42.42,0,0,1,.3-.54,5.68,5.68,0,0,1,2.64-.52c3,0,3.78,1.78,3.78,4.08v5a.39.39,0,0,1-.42.4,1.17,1.17,0,0,1-1.22-1.08,4,4,0,0,1-2.9,1.22,2.85,2.85,0,0,1-3-3.08C14.7,342.36,16,341.08,18.4,341.08Zm-.3,4.42a2.86,2.86,0,0,0,2.14-1.12v-1.54a4.2,4.2,0,0,0-1.68-.32c-1.08,0-1.9.56-1.9,1.52A1.35,1.35,0,0,0,18.1,345.5Z" fill="#091b43"/><path d="M24.74,338a.39.39,0,0,1,.42-.4,1.18,1.18,0,0,1,1.2,1.12,4.26,4.26,0,0,1,3.06-1.24c2.82,0,3.58,2,3.58,4.36v4.64a.46.46,0,0,1-.44.44H31.44a.44.44,0,0,1-.44-.44v-4.72c0-1.5-.62-2.38-1.82-2.38a2.81,2.81,0,0,0-2.44,1.34v5.76c0,.31-.16.44-.54.44h-1a.44.44,0,0,1-.44-.44Z" fill="#091b43"/><path d="M39.4,337.48a6.67,6.67,0,0,1,2.32.48v-4.6a.47.47,0,0,1,.44-.44H43.3a.46.46,0,0,1,.44.44V346.6a.39.39,0,0,1-.42.4,1.17,1.17,0,0,1-1.22-1.06,4.38,4.38,0,0,1-2.94,1.2c-2.44,0-4.22-2.2-4.22-4.84A4.57,4.57,0,0,1,39.4,337.48Zm0,7.76a2.64,2.64,0,0,0,2.3-1.36v-4a4.61,4.61,0,0,0-2.12-.54,2.8,2.8,0,0,0-2.68,2.92A2.72,2.72,0,0,0,39.44,345.24Z" fill="#091b43"/><path d="M50.56,346.21a.39.39,0,0,1-.16-.49l.42-.86a.41.41,0,0,1,.6-.12,4.3,4.3,0,0,0,2.3.68c.78,0,1.22-.38,1.22-.9s-.7-1-2-1.6-2.5-1.4-2.5-2.92c0-1.16.82-2.52,3.06-2.52a5.16,5.16,0,0,1,2.7.68.55.55,0,0,1,.2.68l-.32.64a.43.43,0,0,1-.6.18,4.79,4.79,0,0,0-2-.46c-.8,0-1.18.4-1.18.82,0,.6.66,1,1.58,1.36,1.7.72,3,1.34,3,3.06,0,1.44-1.24,2.7-3.3,2.7A5.45,5.45,0,0,1,50.56,346.21Z" fill="#091b43"/><path d="M61.82,341.08a7.11,7.11,0,0,1,1.86.28c0-1.46-.7-2.12-1.86-2.12a6.52,6.52,0,0,0-2.2.44.43.43,0,0,1-.52-.38l-.18-.76a.42.42,0,0,1,.3-.54,5.68,5.68,0,0,1,2.64-.52c3,0,3.78,1.78,3.78,4.08v5a.39.39,0,0,1-.42.4A1.17,1.17,0,0,1,64,345.92a4,4,0,0,1-2.9,1.22,2.85,2.85,0,0,1-3-3.08C58.12,342.36,59.44,341.08,61.82,341.08Zm-.3,4.42a2.86,2.86,0,0,0,2.14-1.12v-1.54a4.2,4.2,0,0,0-1.68-.32c-1.08,0-1.9.56-1.9,1.52A1.35,1.35,0,0,0,61.52,345.5Z" fill="#091b43"/><path d="M66.94,338.2c-.16-.28,0-.52.34-.52H68.5a.4.4,0,0,1,.4.26l2.46,5.66h0L74,337.94c.12-.26.36-.26.62-.26h.9c.34,0,.5.24.34.52l-4,8.71a.42.42,0,0,1-.38.23h-.12a.46.46,0,0,1-.4-.23Z" fill="#091b43"/><path d="M81.22,337.48a4.12,4.12,0,0,1,4.22,4.24c0,.16,0,.48,0,.64a.43.43,0,0,1-.42.4H78.6a2.7,2.7,0,0,0,2.76,2.52,3.58,3.58,0,0,0,2.26-.78c.2-.14.38-.2.54,0l.54.84c.16.2.24.38,0,.62a5.29,5.29,0,0,1-3.42,1.14,4.84,4.84,0,0,1,0-9.66Zm2.24,3.8a2.18,2.18,0,0,0-2.28-2.1,2.35,2.35,0,0,0-2.48,2.1Z" fill="#091b43"/><path d="M87,346.21a.39.39,0,0,1-.16-.49l.42-.86a.41.41,0,0,1,.6-.12,4.3,4.3,0,0,0,2.3.68c.78,0,1.22-.38,1.22-.9s-.7-1-2-1.6-2.5-1.4-2.5-2.92c0-1.16.82-2.52,3.06-2.52a5.16,5.16,0,0,1,2.7.68.55.55,0,0,1,.2.68l-.32.64a.43.43,0,0,1-.6.18,4.79,4.79,0,0,0-2-.46c-.8,0-1.18.4-1.18.82,0,.6.66,1,1.58,1.36,1.7.72,3,1.34,3,3.06,0,1.44-1.24,2.7-3.3,2.7A5.45,5.45,0,0,1,87,346.21Z" fill="#091b43"/><path d="M99.82,333.36a.46.46,0,0,1,.44-.44h1.14a.47.47,0,0,1,.44.44V338a6.67,6.67,0,0,1,2.32-.48,4.85,4.85,0,0,1,.24,9.66,4.28,4.28,0,0,1-3-1.22,1.15,1.15,0,0,1-1.2,1.08.39.39,0,0,1-.42-.4Zm2,10.54a2.66,2.66,0,0,0,2.28,1.34,2.78,2.78,0,0,0,2.6-2.94,2.87,2.87,0,0,0-2.76-2.92,4.88,4.88,0,0,0-2.12.5Z" fill="#091b43"/><path d="M110.64,338.12a.47.47,0,0,1,.44-.44h1.12a.46.46,0,0,1,.44.44V343c0,1.52.62,2.2,1.8,2.2a2.29,2.29,0,0,0,2.16-1.52v-5.6c0-.38.18-.44.52-.44h1a.48.48,0,0,1,.46.44v8.48a.39.39,0,0,1-.42.4,1.17,1.17,0,0,1-1.22-1.08,3.68,3.68,0,0,1-2.88,1.22c-2.76,0-3.44-1.82-3.44-4.24Z" fill="#091b43"/><path d="M120.82,346.21a.39.39,0,0,1-.16-.49l.42-.86a.41.41,0,0,1,.6-.12,4.3,4.3,0,0,0,2.3.68c.78,0,1.22-.38,1.22-.9s-.7-1-2-1.6-2.5-1.4-2.5-2.92c0-1.16.82-2.52,3.06-2.52a5.16,5.16,0,0,1,2.7.68.55.55,0,0,1,.2.68l-.32.64a.43.43,0,0,1-.6.18,4.79,4.79,0,0,0-2-.46c-.8,0-1.18.4-1.18.82,0,.6.66,1,1.58,1.36,1.7.72,3,1.34,3,3.06,0,1.44-1.24,2.7-3.3,2.7A5.45,5.45,0,0,1,120.82,346.21Z" fill="#091b43"/><path d="M128,338.28a.41.41,0,0,1,.4-.6h1.32a.46.46,0,0,1,.4.26l2.14,6.34h0l2.6-6.34c.08-.22.26-.26.48-.26h1.24a.4.4,0,0,1,.4.6l-5.64,13.13a.46.46,0,0,1-.38.28h-1.28a.42.42,0,0,1-.4-.62l1.86-4.47Z" fill="#091b43"/><path d="M17.44,372.75a.43.43,0,0,1-.48.44H15.84a.44.44,0,0,1-.44-.44V359.5a.39.39,0,0,1,.42-.4,1.15,1.15,0,0,1,1.18,1A4.21,4.21,0,0,1,19.88,359a4.54,4.54,0,0,1,4.36,4.82,4.59,4.59,0,0,1-4.44,4.84,5,5,0,0,1-2.36-.64Zm0-6.69a3.87,3.87,0,0,0,2.14.68,2.8,2.8,0,0,0,2.7-2.94,2.68,2.68,0,0,0-2.62-2.92,2.51,2.51,0,0,0-2.22,1.3Z" fill="#091b43"/><path d="M29.28,362.58a7.11,7.11,0,0,1,1.86.28c0-1.46-.7-2.12-1.86-2.12a6.52,6.52,0,0,0-2.2.44.43.43,0,0,1-.52-.38l-.18-.76a.42.42,0,0,1,.3-.54,5.68,5.68,0,0,1,2.64-.52c3,0,3.78,1.78,3.78,4.08v5a.39.39,0,0,1-.42.4,1.17,1.17,0,0,1-1.22-1.08,4,4,0,0,1-2.9,1.22,2.85,2.85,0,0,1-3-3.08C25.58,363.86,26.9,362.58,29.28,362.58ZM29,367a2.86,2.86,0,0,0,2.14-1.12v-1.54a4.2,4.2,0,0,0-1.68-.32c-1.08,0-1.9.56-1.9,1.52A1.35,1.35,0,0,0,29,367Z" fill="#091b43"/><path d="M35.62,359.5a.39.39,0,0,1,.42-.4,1.21,1.21,0,0,1,1.22,1.16A3.51,3.51,0,0,1,40,359c.88,0,2,.24,1.68.86l-.48,1a.4.4,0,0,1-.56.22,2.28,2.28,0,0,0-.84-.18,2.63,2.63,0,0,0-2.18,1.24V368c0,.4-.26.44-.64.44h-.92a.44.44,0,0,1-.44-.44Z" fill="#091b43"/><path d="M47.18,359a4.12,4.12,0,0,1,4.22,4.24c0,.16,0,.48,0,.64a.43.43,0,0,1-.42.4H44.56a2.7,2.7,0,0,0,2.76,2.52,3.58,3.58,0,0,0,2.26-.78c.2-.14.38-.2.54,0l.54.84c.16.2.24.38,0,.62a5.29,5.29,0,0,1-3.42,1.14,4.84,4.84,0,0,1,0-9.66Zm2.24,3.8a2.18,2.18,0,0,0-2.28-2.1,2.35,2.35,0,0,0-2.48,2.1Z" fill="#091b43"/><path d="M53.3,359.5a.39.39,0,0,1,.42-.4,1.18,1.18,0,0,1,1.2,1.12A4.26,4.26,0,0,1,58,359c2.82,0,3.58,2,3.58,4.36V368a.46.46,0,0,1-.44.44H60a.44.44,0,0,1-.44-.44v-4.72c0-1.5-.62-2.38-1.82-2.38a2.81,2.81,0,0,0-2.44,1.34V368c0,.31-.16.44-.54.44h-1a.44.44,0,0,1-.44-.44Z" fill="#091b43"/><path d="M63.62,360.88a.44.44,0,0,1-.44-.44v-.82a.42.42,0,0,1,.44-.44h1.06V356.6a.44.44,0,0,1,.44-.44h1.14a.43.43,0,0,1,.42.44v2.58h2.44a.43.43,0,0,1,.44.44v.82a.46.46,0,0,1-.44.44H66.68v4.92c0,.78.5.94,1.1.94a2.56,2.56,0,0,0,1.12-.34.35.35,0,0,1,.54.2l.36.94c.1.25,0,.4-.22.54a4.28,4.28,0,0,1-2,.56,2.56,2.56,0,0,1-2.9-2.76v-5Z" fill="#091b43"/><path d="M71.08,367.71a.39.39,0,0,1-.16-.49l.42-.86a.41.41,0,0,1,.6-.12,4.3,4.3,0,0,0,2.3.68c.78,0,1.22-.38,1.22-.9s-.7-1-2-1.6S71,363,71,361.5c0-1.16.82-2.52,3.06-2.52a5.16,5.16,0,0,1,2.7.68.55.55,0,0,1,.2.68l-.32.64a.43.43,0,0,1-.6.18,4.79,4.79,0,0,0-2-.46c-.8,0-1.18.4-1.18.82,0,.6.66,1,1.58,1.36,1.7.72,3,1.34,3,3.06,0,1.44-1.24,2.7-3.3,2.7A5.45,5.45,0,0,1,71.08,367.71Z" fill="#091b43"/><path d="M84,354.86a.46.46,0,0,1,.44-.44h1.12a.47.47,0,0,1,.44.44V368a.46.46,0,0,1-.44.44H84.44A.44.44,0,0,1,84,368Z" fill="#091b43"/><path d="M92.8,359a4.83,4.83,0,1,1-4.72,4.8A4.79,4.79,0,0,1,92.8,359Zm0,7.76a2.8,2.8,0,0,0,2.74-3,2.75,2.75,0,1,0-5.5,0A2.8,2.8,0,0,0,92.8,366.74Z" fill="#091b43"/><path d="M99,360.88a.44.44,0,0,1-.44-.44v-.82a.42.42,0,0,1,.44-.44H100V356.6a.44.44,0,0,1,.44-.44h1.14a.43.43,0,0,1,.42.44v2.58h2.44a.43.43,0,0,1,.44.44v.82a.46.46,0,0,1-.44.44H102v4.92c0,.78.5.94,1.1.94a2.56,2.56,0,0,0,1.12-.34.35.35,0,0,1,.54.2l.36.94c.1.25,0,.4-.22.54a4.28,4.28,0,0,1-2,.56,2.56,2.56,0,0,1-2.9-2.76v-5Z" fill="#091b43"/><path d="M106.42,367.71a.39.39,0,0,1-.16-.49l.42-.86a.41.41,0,0,1,.6-.12,4.3,4.3,0,0,0,2.3.68c.78,0,1.22-.38,1.22-.9s-.7-1-2-1.6-2.5-1.4-2.5-2.92c0-1.16.82-2.52,3.06-2.52a5.16,5.16,0,0,1,2.7.68.55.55,0,0,1,.2.68L112,361a.43.43,0,0,1-.6.18,4.79,4.79,0,0,0-2-.46c-.8,0-1.18.4-1.18.82,0,.6.66,1,1.58,1.36,1.7.72,3,1.34,3,3.06,0,1.44-1.24,2.7-3.3,2.7A5.45,5.45,0,0,1,106.42,367.71Z" fill="#091b43"/><path d="M19.54,380.48a4.83,4.83,0,0,1,0,9.66,4.83,4.83,0,0,1,0-9.66Zm0,7.76a2.8,2.8,0,0,0,2.74-3,2.75,2.75,0,1,0-5.5,0A2.8,2.8,0,0,0,19.54,388.24Z" fill="#091b43"/><path d="M26.9,382.54H25.7a.44.44,0,0,1-.44-.44v-1a.42.42,0,0,1,.44-.44h1.2v-1.06c0-2.48,1.18-3.9,3.42-3.9a4.08,4.08,0,0,1,2.62.92.41.41,0,0,1,.08.52l-.58.84c-.14.22-.36.24-.6.08a2.45,2.45,0,0,0-1.48-.46c-1,0-1.46.84-1.46,2v1.06h2.62a.43.43,0,0,1,.44.44v1a.46.46,0,0,1-.44.44H28.9v6.94a.46.46,0,0,1-.44.44H27.34a.46.46,0,0,1-.44-.44Z" fill="#091b43"/><path d="M37.52,382.38a.44.44,0,0,1-.44-.44v-.82a.42.42,0,0,1,.44-.44h1.06V378.1a.44.44,0,0,1,.44-.44h1.14a.43.43,0,0,1,.42.44v2.58H43a.43.43,0,0,1,.44.44v.82a.46.46,0,0,1-.44.44H40.58v4.92c0,.78.5.94,1.1.94a2.56,2.56,0,0,0,1.12-.34.35.35,0,0,1,.54.2l.36.94c.1.25,0,.4-.22.54a4.28,4.28,0,0,1-2,.56,2.56,2.56,0,0,1-2.9-2.76v-5Z" fill="#091b43"/><path d="M45,377.36A1.33,1.33,0,0,1,46.36,376a1.35,1.35,0,1,1,0,2.7A1.32,1.32,0,0,1,45,377.36Zm.32,3.76a.46.46,0,0,1,.44-.44h1.12a.47.47,0,0,1,.44.44v8.36a.46.46,0,0,1-.44.44H45.8a.44.44,0,0,1-.44-.44Z" fill="#091b43"/><path d="M50,381a.39.39,0,0,1,.42-.4,1.17,1.17,0,0,1,1.2,1.08,4,4,0,0,1,2.88-1.2,3.16,3.16,0,0,1,2.82,1.46,4.39,4.39,0,0,1,3.12-1.46c2.82,0,3.52,2,3.52,4.36v4.64a.43.43,0,0,1-.44.44H62.36a.42.42,0,0,1-.44-.44v-4.72c0-1.48-.56-2.38-1.82-2.38a2.88,2.88,0,0,0-2.22,1.08A8.65,8.65,0,0,1,58,384.7v4.78a.44.44,0,0,1-.42.44H56.4a.43.43,0,0,1-.44-.44v-4.72c0-1.5-.54-2.38-1.82-2.38A2.35,2.35,0,0,0,52,383.72v5.76a.46.46,0,0,1-.44.44H50.4a.44.44,0,0,1-.44-.44Z" fill="#091b43"/><path d="M70.46,380.48a4.12,4.12,0,0,1,4.22,4.24c0,.16,0,.48,0,.64a.43.43,0,0,1-.42.4H67.84a2.7,2.7,0,0,0,2.76,2.52,3.58,3.58,0,0,0,2.26-.78c.2-.14.38-.2.54,0l.54.84c.16.2.24.38,0,.62a5.29,5.29,0,0,1-3.42,1.14,4.84,4.84,0,0,1,0-9.66Zm2.24,3.8a2.18,2.18,0,0,0-2.28-2.1,2.35,2.35,0,0,0-2.48,2.1Z" fill="#091b43"/><path d="M77.68,387.22a1.43,1.43,0,1,1-1.4,1.44A1.43,1.43,0,0,1,77.68,387.22Z" fill="#091b43"/></g><g id="Lansing_MI" data-name="Lansing, MI"><path d="M14.61,261.12a.28.28,0,0,1,.28-.28h1a.3.3,0,0,1,.29.28v8.82h4.06a.29.29,0,0,1,.29.29v.82a.29.29,0,0,1-.29.29H14.89a.29.29,0,0,1-.28-.29Z" fill="#0071de"/><path d="M24.13,267a5.27,5.27,0,0,1,1.39.21c0-1.1-.52-1.59-1.39-1.59a4.74,4.74,0,0,0-1.65.33.32.32,0,0,1-.39-.29l-.14-.57a.31.31,0,0,1,.23-.4,4.17,4.17,0,0,1,2-.39c2.22,0,2.83,1.33,2.83,3.06v3.78a.3.3,0,0,1-.31.3.88.88,0,0,1-.92-.81,3,3,0,0,1-2.17.91,2.14,2.14,0,0,1-2.24-2.31C21.35,267.92,22.34,267,24.13,267Zm-.23,3.31a2.14,2.14,0,0,0,1.61-.84v-1.15a3.15,3.15,0,0,0-1.26-.24c-.81,0-1.43.42-1.43,1.14A1,1,0,0,0,23.9,270.27Z" fill="#0071de"/><path d="M28.83,264.65a.29.29,0,0,1,.31-.3.88.88,0,0,1,.9.84,3.19,3.19,0,0,1,2.3-.93c2.11,0,2.68,1.47,2.68,3.27V271a.34.34,0,0,1-.33.33h-.84a.33.33,0,0,1-.33-.33v-3.54c0-1.13-.46-1.79-1.36-1.79a2.09,2.09,0,0,0-1.83,1V271c0,.22-.12.33-.41.33h-.76a.33.33,0,0,1-.33-.33Z" fill="#0071de"/><path d="M36.56,270.8a.3.3,0,0,1-.12-.36l.32-.65a.31.31,0,0,1,.45-.09,3.16,3.16,0,0,0,1.72.51c.59,0,.92-.28.92-.67s-.53-.77-1.49-1.2-1.87-1-1.87-2.19c0-.87.61-1.89,2.29-1.89a3.86,3.86,0,0,1,2,.51.41.41,0,0,1,.15.51l-.24.48a.32.32,0,0,1-.45.13,3.61,3.61,0,0,0-1.49-.34c-.6,0-.88.3-.88.61s.49.72,1.18,1c1.28.54,2.24,1,2.24,2.3a2.2,2.2,0,0,1-2.48,2A4,4,0,0,1,36.56,270.8Z" fill="#0071de"/><path d="M42.43,261.92a1,1,0,0,1,1-1,1,1,0,1,1,0,2A1,1,0,0,1,42.43,261.92Zm.24,2.82a.34.34,0,0,1,.33-.33h.84a.35.35,0,0,1,.33.33V271a.34.34,0,0,1-.33.33H43a.33.33,0,0,1-.33-.33Z" fill="#0071de"/><path d="M46.06,264.65a.29.29,0,0,1,.32-.3.88.88,0,0,1,.9.84,3.16,3.16,0,0,1,2.29-.93c2.12,0,2.69,1.47,2.69,3.27V271a.35.35,0,0,1-.33.33h-.84a.33.33,0,0,1-.33-.33v-3.54c0-1.13-.47-1.79-1.37-1.79a2.13,2.13,0,0,0-1.83,1V271c0,.22-.12.33-.4.33h-.77a.33.33,0,0,1-.33-.33Z" fill="#0071de"/><path d="M60.32,271.38a3,3,0,0,1-3.21,3.24,3.76,3.76,0,0,1-2.4-.87.32.32,0,0,1-.07-.39l.36-.66a.28.28,0,0,1,.46-.1,2.65,2.65,0,0,0,1.62.64c.92,0,1.73-.45,1.73-1.86V271a3.78,3.78,0,0,1-1.77.49,3.46,3.46,0,0,1-3.35-3.63A3.4,3.4,0,0,1,57,264.26a3.3,3.3,0,0,1,2.16.79.87.87,0,0,1,.89-.7.29.29,0,0,1,.31.3Zm-3.1-1.3a2.8,2.8,0,0,0,1.6-.56v-2.86a2,2,0,0,0-1.66-1,2,2,0,0,0-2,2.19A2.14,2.14,0,0,0,57.22,270.08Z" fill="#0071de"/><path d="M63.08,269.34c.75,0,1.24.69,1.24,1.73a3.12,3.12,0,0,1-1.08,2.38c-.1.09-.19.06-.28,0l-.32-.3c-.09-.1,0-.21.06-.3a2.09,2.09,0,0,0,.77-1.39,1.27,1.27,0,0,0,0-.32.93.93,0,0,1-.51.15.87.87,0,0,1-.86-.9A1,1,0,0,1,63.08,269.34Z" fill="#0071de"/><path d="M71,260.91a.3.3,0,0,1,.27-.22h.24a.29.29,0,0,1,.25.16l3.14,7.67H75l3.12-7.67a.28.28,0,0,1,.25-.16h.24a.3.3,0,0,1,.27.22L80.69,271c0,.21-.06.35-.27.35h-1a.32.32,0,0,1-.28-.21l-1.11-6.71h0l-2.7,6.9a.26.26,0,0,1-.25.17h-.27a.28.28,0,0,1-.26-.17l-2.71-6.9h-.06l-1.08,6.71a.3.3,0,0,1-.27.21h-1c-.21,0-.31-.14-.28-.35Z" fill="#0071de"/><path d="M82.56,261.12a.29.29,0,0,1,.28-.28h1a.3.3,0,0,1,.29.28v9.93a.3.3,0,0,1-.29.29h-1a.3.3,0,0,1-.28-.29Z" fill="#0071de"/></g><g id="Alicia"><path d="M12.28,251.2l6.22-13.46a.36.36,0,0,1,.34-.22H19a.34.34,0,0,1,.34.22l6.17,13.46a.35.35,0,0,1-.34.52H23.47a.57.57,0,0,1-.58-.4l-1-2.16h-6l-1,2.16a.6.6,0,0,1-.58.4H12.62A.35.35,0,0,1,12.28,251.2Zm8.64-4.26-2-4.4h-.06l-2,4.4Z" fill="#0071de"/><path d="M26.79,238.16a.47.47,0,0,1,.44-.44h1.62a.47.47,0,0,1,.44.44v13.12a.46.46,0,0,1-.44.44H27.23a.46.46,0,0,1-.44-.44Z" fill="#0071de"/><path d="M31.2,239.3a1.56,1.56,0,0,1,1.58-1.58,1.58,1.58,0,0,1,1.6,1.58,1.59,1.59,0,0,1-1.6,1.6A1.58,1.58,0,0,1,31.2,239.3Zm.36,3.62a.44.44,0,0,1,.44-.44h1.62a.44.44,0,0,1,.44.44v8.36a.46.46,0,0,1-.44.44H32a.46.46,0,0,1-.44-.44Z" fill="#0071de"/><path d="M40.61,242.28a4.58,4.58,0,0,1,3.44,1.56c.2.2.1.46-.1.66l-.84.92c-.2.22-.42.12-.6-.06a2.52,2.52,0,0,0-1.84-.8,2.55,2.55,0,1,0,1.94,4.08.43.43,0,0,1,.58-.06l.9.76c.22.2.32.42.16.66a4.14,4.14,0,0,1-3.66,1.94,4.83,4.83,0,1,1,0-9.66Z" fill="#0071de"/><path d="M45.44,239.3A1.56,1.56,0,0,1,47,237.72a1.58,1.58,0,0,1,1.6,1.58,1.59,1.59,0,0,1-1.6,1.6A1.58,1.58,0,0,1,45.44,239.3Zm.36,3.62a.44.44,0,0,1,.44-.44h1.62a.44.44,0,0,1,.44.44v8.36a.46.46,0,0,1-.44.44H46.24a.46.46,0,0,1-.44-.44Z" fill="#0071de"/><path d="M53.59,245.88a6.78,6.78,0,0,1,1.78.26,1.59,1.59,0,0,0-1.74-1.74,7.73,7.73,0,0,0-2.14.34c-.3.1-.48-.12-.52-.4l-.2-1a.42.42,0,0,1,.3-.56,9,9,0,0,1,2.7-.46c2.68,0,3.94,1.5,3.94,4v5.08a.43.43,0,0,1-.48.42,1.36,1.36,0,0,1-1.38-.94A4.1,4.1,0,0,1,53,251.94a2.94,2.94,0,0,1-3.12-3.16C49.91,247.14,51.25,245.88,53.59,245.88Zm.06,4.2a2,2,0,0,0,1.66-1v-1.36a3.68,3.68,0,0,0-1.36-.28c-1.06,0-1.64.5-1.64,1.32A1.22,1.22,0,0,0,53.65,250.08Z" fill="#0071de"/></g><g id="Layer_19" data-name="Layer 19"><polygon points="22.57 209.04 20.58 214.25 15.01 214.53 19.36 218.03 17.9 223.41 22.57 220.36 27.24 223.41 25.78 218.03 30.12 214.53 24.55 214.25 22.57 209.04" fill="#ffc220"/><polygon points="40.29 209.04 38.3 214.25 32.73 214.53 37.08 218.03 35.62 223.41 40.29 220.36 44.96 223.41 43.5 218.03 47.84 214.53 42.27 214.25 40.29 209.04" fill="#ffc220"/><polygon points="58.01 209.04 56.03 214.25 50.46 214.53 54.8 218.03 53.34 223.41 58.01 220.36 62.68 223.41 61.22 218.03 65.57 214.53 60 214.25 58.01 209.04" fill="#ffc220"/><polygon points="75.73 209.04 73.75 214.25 68.18 214.53 72.52 218.03 71.06 223.41 75.73 220.36 80.4 223.41 78.94 218.03 83.29 214.53 77.72 214.25 75.73 209.04" fill="#ffc220"/><polygon points="93.46 209.04 91.47 214.25 85.9 214.53 90.25 218.03 88.79 223.41 93.46 220.36 98.13 223.41 96.67 218.03 101.01 214.53 95.44 214.25 93.46 209.04" fill="#ffc220"/></g></g><g id="rect"><rect width="160" height="600" fill="none"/></g></g></g></svg>