<svg xmlns="http://www.w3.org/2000/svg" viewBox="0 0 970 250"><g id="Layer_2" data-name="Layer 2"><g id="_970x250_Reviews_Hero_G_F1" data-name="970x250_Reviews_Hero G_F1" style="isolation:isolate"><g id="Bubble"><g id="Content"><g id="BUBBLE-2" data-name="BUBBLE"><rect x="309" y="15" width="599" height="216" rx="60" fill="#fff"/></g><g id="Walmart_is_very_convenient_and_saves_busy_parents_lots_of_time" data-name="Walmart+ is very convenient and saves busy parents lots of time"><path d="M345.09,115.52a.52.52,0,0,1,.54-.72h2a.62.62,0,0,1,.54.42L351.81,129h.12l4.89-14.16a.54.54,0,0,1,.51-.33h.54a.54.54,0,0,1,.51.33L363.33,129h.12L367,115.22a.62.62,0,0,1,.54-.42h2a.52.52,0,0,1,.54.72l-5.67,20.16a.58.58,0,0,1-.54.42h-.48a.57.57,0,0,1-.51-.33l-5.28-14.91h-.15l-5.19,14.91a.57.57,0,0,1-.51.33h-.48a.58.58,0,0,1-.54-.42Z" fill="#091b43"/><path d="M376,127a10.66,10.66,0,0,1,2.79.42c.06-2.19-1-3.18-2.79-3.18a9.77,9.77,0,0,0-3.3.66.64.64,0,0,1-.78-.57l-.27-1.14a.63.63,0,0,1,.45-.81,8.52,8.52,0,0,1,4-.78c4.44,0,5.67,2.67,5.67,6.12v7.56a.59.59,0,0,1-.63.6,1.76,1.76,0,0,1-1.83-1.62,6,6,0,0,1-4.35,1.83,4.28,4.28,0,0,1-4.47-4.62C370.44,129,372.42,127,376,127Zm-.45,6.63a4.29,4.29,0,0,0,3.21-1.68v-2.31a6.3,6.3,0,0,0-2.52-.48c-1.62,0-2.85.84-2.85,2.28A2,2,0,0,0,375.54,133.67Z" fill="#091b43"/><path d="M385.59,115.46a.69.69,0,0,1,.66-.66h1.68a.71.71,0,0,1,.66.66v19.68a.69.69,0,0,1-.66.66h-1.68a.67.67,0,0,1-.66-.66Z" fill="#091b43"/><path d="M392.58,122.42a.59.59,0,0,1,.63-.6,1.75,1.75,0,0,1,1.8,1.62,6,6,0,0,1,4.32-1.8,4.74,4.74,0,0,1,4.23,2.19,6.59,6.59,0,0,1,4.68-2.19c4.23,0,5.28,2.94,5.28,6.54v7a.65.65,0,0,1-.66.66h-1.68a.63.63,0,0,1-.66-.66v-7.08c0-2.22-.84-3.57-2.73-3.57a4.32,4.32,0,0,0-3.33,1.62,13,13,0,0,1,.12,1.86v7.17a.66.66,0,0,1-.63.66h-1.71a.65.65,0,0,1-.66-.66v-7.08c0-2.25-.81-3.57-2.73-3.57a3.52,3.52,0,0,0-3.27,2v8.64a.69.69,0,0,1-.66.66h-1.68a.67.67,0,0,1-.66-.66Z" fill="#091b43"/><path d="M421.77,127a10.66,10.66,0,0,1,2.79.42c.06-2.19-1.05-3.18-2.79-3.18a9.77,9.77,0,0,0-3.3.66.64.64,0,0,1-.78-.57l-.27-1.14a.63.63,0,0,1,.45-.81,8.52,8.52,0,0,1,4-.78c4.44,0,5.67,2.67,5.67,6.12v7.56a.59.59,0,0,1-.63.6A1.76,1.76,0,0,1,425,134.3a6,6,0,0,1-4.35,1.83,4.28,4.28,0,0,1-4.47-4.62C416.22,129,418.2,127,421.77,127Zm-.45,6.63a4.29,4.29,0,0,0,3.21-1.68v-2.31a6.3,6.3,0,0,0-2.52-.48c-1.62,0-2.85.84-2.85,2.28A2,2,0,0,0,421.32,133.67Z" fill="#091b43"/><path d="M431.28,122.42a.59.59,0,0,1,.63-.6,1.82,1.82,0,0,1,1.83,1.74,5.27,5.27,0,0,1,4.11-1.92c1.32,0,3,.36,2.52,1.29l-.72,1.5a.6.6,0,0,1-.84.33,3.42,3.42,0,0,0-1.26-.27,4,4,0,0,0-3.27,1.86v8.79c0,.6-.39.66-1,.66h-1.38a.67.67,0,0,1-.66-.66Z" fill="#091b43"/><path d="M441.9,124.49a.67.67,0,0,1-.66-.66V122.6a.63.63,0,0,1,.66-.66h1.59v-3.87a.67.67,0,0,1,.66-.66h1.71a.64.64,0,0,1,.63.66v3.87h3.66a.65.65,0,0,1,.66.66v1.23a.69.69,0,0,1-.66.66h-3.66v7.38c0,1.17.75,1.41,1.65,1.41a3.85,3.85,0,0,0,1.68-.51.52.52,0,0,1,.81.3l.54,1.41c.15.36,0,.6-.33.81a6.6,6.6,0,0,1-3,.84c-3,0-4.35-1.68-4.35-4.14v-7.5Z" fill="#091b43"/><path d="M459.36,126.62h-4.62a.59.59,0,0,1-.57-.57v-1.26a.59.59,0,0,1,.57-.57h4.62v-4.65a.56.56,0,0,1,.57-.54h1.26a.56.56,0,0,1,.57.54v4.65h4.62a.56.56,0,0,1,.54.57v1.26a.56.56,0,0,1-.54.57h-4.62v4.59a.56.56,0,0,1-.57.54h-1.26a.56.56,0,0,1-.57-.54Z" fill="#091b43"/><path d="M477.78,117a2,2,0,0,1,2-2,2,2,0,1,1,0,4A2,2,0,0,1,477.78,117Zm.48,5.64a.69.69,0,0,1,.66-.66h1.68a.71.71,0,0,1,.66.66v12.54a.69.69,0,0,1-.66.66h-1.68a.67.67,0,0,1-.66-.66Z" fill="#091b43"/><path d="M484.59,134.72a.57.57,0,0,1-.24-.72l.63-1.29a.62.62,0,0,1,.9-.18,6.44,6.44,0,0,0,3.45,1c1.17,0,1.83-.57,1.83-1.35s-1.05-1.53-3-2.4c-2.13-1-3.75-2.1-3.75-4.38,0-1.74,1.23-3.78,4.59-3.78a7.74,7.74,0,0,1,4.05,1,.82.82,0,0,1,.3,1l-.48,1a.65.65,0,0,1-.9.27,7.19,7.19,0,0,0-3-.69c-1.2,0-1.77.6-1.77,1.23,0,.9,1,1.44,2.37,2,2.55,1.08,4.47,2,4.47,4.59,0,2.16-1.86,4-5,4A8,8,0,0,1,484.59,134.72Z" fill="#091b43"/><path d="M502.38,122.72c-.24-.42,0-.78.51-.78h1.83a.6.6,0,0,1,.6.39l3.69,8.49h.06l3.87-8.49c.18-.39.54-.39.93-.39h1.35c.51,0,.75.36.51.78l-6,13.05a.62.62,0,0,1-.57.36H509a.67.67,0,0,1-.6-.36Z" fill="#091b43"/><path d="M523.8,121.64a6.17,6.17,0,0,1,6.33,6.36c0,.24,0,.72-.06,1a.65.65,0,0,1-.63.6h-9.57a4.05,4.05,0,0,0,4.14,3.78,5.38,5.38,0,0,0,3.39-1.17c.3-.21.57-.3.81.06l.81,1.26c.24.3.36.57-.06.93a7.94,7.94,0,0,1-5.13,1.71c-4.2,0-6.93-3.3-6.93-7.26S519.63,121.64,523.8,121.64Zm3.36,5.7a3.27,3.27,0,0,0-3.42-3.15,3.52,3.52,0,0,0-3.72,3.15Z" fill="#091b43"/><path d="M533,122.42a.59.59,0,0,1,.63-.6,1.82,1.82,0,0,1,1.83,1.74,5.27,5.27,0,0,1,4.11-1.92c1.32,0,3,.36,2.52,1.29l-.72,1.5a.6.6,0,0,1-.84.33,3.42,3.42,0,0,0-1.26-.27,4,4,0,0,0-3.27,1.86v8.79c0,.6-.39.66-1,.66h-1.38a.67.67,0,0,1-.66-.66Z" fill="#091b43"/><path d="M542.85,122.84a.61.61,0,0,1,.6-.9h2a.69.69,0,0,1,.6.39l3.21,9.51h.06l3.9-9.51c.12-.33.39-.39.72-.39h1.86a.6.6,0,0,1,.6.9l-8.46,19.68a.7.7,0,0,1-.57.42h-1.92a.63.63,0,0,1-.6-.93l2.79-6.69Z" fill="#091b43"/><path d="M571.32,121.64a6.08,6.08,0,0,1,5,2.4.69.69,0,0,1-.12,1l-1.08,1c-.39.36-.66.09-.9-.15a4.18,4.18,0,0,0-2.85-1.38,4.4,4.4,0,0,0-.09,8.79c1.8,0,2.52-1,3.27-1.71a.64.64,0,0,1,.93-.06l.93.75c.33.3.48.63.24,1a6.33,6.33,0,0,1-5.4,2.88,7.07,7.07,0,0,1-7.08-7.23A7.2,7.2,0,0,1,571.32,121.64Z" fill="#091b43"/><path d="M585.57,121.64a7.25,7.25,0,1,1-7.08,7.2A7.19,7.19,0,0,1,585.57,121.64Zm0,11.64a4.2,4.2,0,0,0,4.11-4.44,4.13,4.13,0,1,0-8.25,0A4.2,4.2,0,0,0,585.57,133.28Z" fill="#091b43"/><path d="M595.65,122.42a.59.59,0,0,1,.63-.6,1.76,1.76,0,0,1,1.8,1.68,6.39,6.39,0,0,1,4.59-1.86c4.23,0,5.37,2.94,5.37,6.54v7a.69.69,0,0,1-.66.66H605.7a.67.67,0,0,1-.66-.66v-7.08c0-2.25-.93-3.57-2.73-3.57a4.22,4.22,0,0,0-3.66,2v8.64c0,.45-.24.66-.81.66h-1.53a.67.67,0,0,1-.66-.66Z" fill="#091b43"/><path d="M610.29,122.72c-.24-.42,0-.78.51-.78h1.83a.6.6,0,0,1,.6.39l3.69,8.49H617l3.87-8.49c.18-.39.54-.39.93-.39h1.35c.51,0,.75.36.51.78l-6,13.05a.62.62,0,0,1-.57.36h-.18a.67.67,0,0,1-.6-.36Z" fill="#091b43"/><path d="M631.71,121.64A6.17,6.17,0,0,1,638,128c0,.24,0,.72-.06,1a.65.65,0,0,1-.63.6h-9.57a4.05,4.05,0,0,0,4.14,3.78,5.38,5.38,0,0,0,3.39-1.17c.3-.21.57-.3.81.06l.81,1.26c.24.3.36.57-.06.93a7.94,7.94,0,0,1-5.13,1.71c-4.2,0-6.93-3.3-6.93-7.26S627.54,121.64,631.71,121.64Zm3.36,5.7a3.27,3.27,0,0,0-3.42-3.15,3.52,3.52,0,0,0-3.72,3.15Z" fill="#091b43"/><path d="M640.89,122.42a.59.59,0,0,1,.63-.6,1.76,1.76,0,0,1,1.8,1.68,6.39,6.39,0,0,1,4.59-1.86c4.23,0,5.37,2.94,5.37,6.54v7a.69.69,0,0,1-.66.66h-1.68a.67.67,0,0,1-.66-.66v-7.08c0-2.25-.93-3.57-2.73-3.57a4.22,4.22,0,0,0-3.66,2v8.64c0,.45-.24.66-.81.66h-1.53a.67.67,0,0,1-.66-.66Z" fill="#091b43"/><path d="M656.55,117a2,2,0,0,1,2-2,2,2,0,1,1,0,4A2,2,0,0,1,656.55,117Zm.48,5.64a.69.69,0,0,1,.66-.66h1.68a.71.71,0,0,1,.66.66v12.54a.69.69,0,0,1-.66.66h-1.68a.67.67,0,0,1-.66-.66Z" fill="#091b43"/><path d="M670,121.64a6.17,6.17,0,0,1,6.33,6.36c0,.24,0,.72-.06,1a.65.65,0,0,1-.63.6h-9.57a4.05,4.05,0,0,0,4.14,3.78,5.38,5.38,0,0,0,3.39-1.17c.3-.21.57-.3.81.06l.81,1.26c.24.3.36.57-.06.93a7.94,7.94,0,0,1-5.13,1.71c-4.2,0-6.93-3.3-6.93-7.26S665.82,121.64,670,121.64Zm3.36,5.7a3.27,3.27,0,0,0-3.42-3.15,3.52,3.52,0,0,0-3.72,3.15Z" fill="#091b43"/><path d="M679.17,122.42a.59.59,0,0,1,.63-.6,1.76,1.76,0,0,1,1.8,1.68,6.39,6.39,0,0,1,4.59-1.86c4.23,0,5.37,2.94,5.37,6.54v7a.69.69,0,0,1-.66.66h-1.68a.67.67,0,0,1-.66-.66v-7.08c0-2.25-.93-3.57-2.73-3.57a4.22,4.22,0,0,0-3.66,2v8.64c0,.45-.24.66-.81.66h-1.53a.67.67,0,0,1-.66-.66Z" fill="#091b43"/><path d="M694.65,124.49a.67.67,0,0,1-.66-.66V122.6a.63.63,0,0,1,.66-.66h1.59v-3.87a.67.67,0,0,1,.66-.66h1.71a.64.64,0,0,1,.63.66v3.87h3.66a.65.65,0,0,1,.66.66v1.23a.69.69,0,0,1-.66.66h-3.66v7.38c0,1.17.75,1.41,1.65,1.41a3.89,3.89,0,0,0,1.68-.51.52.52,0,0,1,.81.3l.54,1.41c.15.36,0,.6-.34.81a6.52,6.52,0,0,1-3,.84c-3,0-4.34-1.68-4.34-4.14v-7.5Z" fill="#091b43"/><path d="M717.8,127a10.56,10.56,0,0,1,2.79.42c.06-2.19-1.05-3.18-2.79-3.18a9.77,9.77,0,0,0-3.3.66.64.64,0,0,1-.78-.57l-.26-1.14a.63.63,0,0,1,.45-.81,8.43,8.43,0,0,1,4-.78c4.43,0,5.66,2.67,5.66,6.12v7.56a.59.59,0,0,1-.63.6,1.76,1.76,0,0,1-1.83-1.62,6,6,0,0,1-4.35,1.83,4.28,4.28,0,0,1-4.47-4.62C712.25,129,714.24,127,717.8,127Zm-.45,6.63a4.29,4.29,0,0,0,3.21-1.68v-2.31a6.3,6.3,0,0,0-2.52-.48c-1.62,0-2.84.84-2.84,2.28A2,2,0,0,0,717.35,133.67Z" fill="#091b43"/><path d="M727.31,122.42a.59.59,0,0,1,.63-.6,1.76,1.76,0,0,1,1.8,1.68,6.39,6.39,0,0,1,4.59-1.86c4.23,0,5.37,2.94,5.37,6.54v7a.69.69,0,0,1-.66.66h-1.68a.67.67,0,0,1-.66-.66v-7.08c0-2.25-.93-3.57-2.73-3.57a4.22,4.22,0,0,0-3.66,2v8.64c0,.45-.24.66-.81.66H728a.67.67,0,0,1-.66-.66Z" fill="#091b43"/><path d="M749.3,121.64a10,10,0,0,1,3.48.72v-6.9a.71.71,0,0,1,.66-.66h1.71a.69.69,0,0,1,.66.66v19.86a.59.59,0,0,1-.63.6,1.76,1.76,0,0,1-1.83-1.59,6.64,6.64,0,0,1-4.41,1.8c-3.66,0-6.33-3.3-6.33-7.26S745.46,121.64,749.3,121.64Zm.06,11.64a4,4,0,0,0,3.45-2V125.3a6.91,6.91,0,0,0-3.18-.81,4.2,4.2,0,0,0-4,4.38C745.61,131.21,747.14,133.28,749.36,133.28Z" fill="#091b43"/><path d="M766,134.72a.57.57,0,0,1-.24-.72l.63-1.29a.62.62,0,0,1,.9-.18,6.44,6.44,0,0,0,3.45,1c1.17,0,1.83-.57,1.83-1.35s-1.05-1.53-3-2.4c-2.13-1-3.75-2.1-3.75-4.38,0-1.74,1.23-3.78,4.59-3.78a7.74,7.74,0,0,1,4,1,.82.82,0,0,1,.3,1l-.48,1a.65.65,0,0,1-.9.27,7.19,7.19,0,0,0-3-.69c-1.2,0-1.77.6-1.77,1.23,0,.9,1,1.44,2.37,2,2.55,1.08,4.47,2,4.47,4.59,0,2.16-1.86,4-4.95,4A8,8,0,0,1,766,134.72Z" fill="#091b43"/><path d="M782.93,127a10.66,10.66,0,0,1,2.79.42c.06-2.19-1.05-3.18-2.79-3.18a9.77,9.77,0,0,0-3.3.66.64.64,0,0,1-.78-.57l-.27-1.14a.63.63,0,0,1,.45-.81,8.52,8.52,0,0,1,4-.78c4.44,0,5.67,2.67,5.67,6.12v7.56a.59.59,0,0,1-.63.6,1.76,1.76,0,0,1-1.83-1.62,6,6,0,0,1-4.35,1.83,4.28,4.28,0,0,1-4.47-4.62C777.38,129,779.36,127,782.93,127Zm-.45,6.63a4.29,4.29,0,0,0,3.21-1.68v-2.31a6.3,6.3,0,0,0-2.52-.48c-1.62,0-2.85.84-2.85,2.28A2,2,0,0,0,782.48,133.67Z" fill="#091b43"/><path d="M790.61,122.72c-.24-.42,0-.78.51-.78H793a.6.6,0,0,1,.6.39l3.69,8.49h.06l3.87-8.49c.18-.39.54-.39.93-.39h1.35c.51,0,.75.36.51.78l-6,13.05a.62.62,0,0,1-.57.36h-.18a.67.67,0,0,1-.6-.36Z" fill="#091b43"/><path d="M812,121.64a6.17,6.17,0,0,1,6.33,6.36c0,.24,0,.72-.06,1a.65.65,0,0,1-.63.6H808.1a4.05,4.05,0,0,0,4.14,3.78,5.38,5.38,0,0,0,3.39-1.17c.3-.21.57-.3.81.06l.81,1.26c.24.3.36.57-.06.93a7.94,7.94,0,0,1-5.13,1.71c-4.2,0-6.93-3.3-6.93-7.26S807.86,121.64,812,121.64Zm3.36,5.7a3.27,3.27,0,0,0-3.42-3.15,3.52,3.52,0,0,0-3.72,3.15Z" fill="#091b43"/><path d="M820.64,134.72a.57.57,0,0,1-.24-.72l.63-1.29a.62.62,0,0,1,.9-.18,6.44,6.44,0,0,0,3.45,1c1.17,0,1.83-.57,1.83-1.35s-1.05-1.53-3-2.4c-2.13-1-3.75-2.1-3.75-4.38,0-1.74,1.23-3.78,4.59-3.78a7.74,7.74,0,0,1,4,1,.82.82,0,0,1,.3,1l-.48,1a.65.65,0,0,1-.9.27,7.19,7.19,0,0,0-3-.69c-1.2,0-1.77.6-1.77,1.23,0,.9,1,1.44,2.37,2,2.55,1.08,4.47,2,4.47,4.59,0,2.16-1.86,4-4.95,4A8,8,0,0,1,820.64,134.72Z" fill="#091b43"/><path d="M346.41,148.46a.69.69,0,0,1,.66-.66h1.71a.71.71,0,0,1,.66.66v6.9a10,10,0,0,1,3.48-.72,6.94,6.94,0,0,1,6.81,7.23c0,4-2.82,7.26-6.45,7.26a6.43,6.43,0,0,1-4.44-1.83,1.73,1.73,0,0,1-1.8,1.62.59.59,0,0,1-.63-.6Zm3,15.81a4,4,0,0,0,3.42,2,4.17,4.17,0,0,0,3.9-4.41,4.3,4.3,0,0,0-4.14-4.38,7.33,7.33,0,0,0-3.18.75Z" fill="#091b43"/><path d="M362.64,155.6a.71.71,0,0,1,.66-.66H365a.69.69,0,0,1,.66.66V163c0,2.28.93,3.3,2.7,3.3a3.43,3.43,0,0,0,3.24-2.28v-8.4c0-.57.27-.66.78-.66h1.53a.71.71,0,0,1,.69.66v12.72a.59.59,0,0,1-.63.6,1.76,1.76,0,0,1-1.83-1.62,5.57,5.57,0,0,1-4.32,1.83c-4.14,0-5.16-2.73-5.16-6.36Z" fill="#091b43"/><path d="M377.91,167.72a.57.57,0,0,1-.24-.72l.63-1.29a.62.62,0,0,1,.9-.18,6.44,6.44,0,0,0,3.45,1c1.17,0,1.83-.57,1.83-1.35s-1.05-1.53-3-2.4c-2.13-1-3.75-2.1-3.75-4.38,0-1.74,1.23-3.78,4.59-3.78a7.74,7.74,0,0,1,4,1,.82.82,0,0,1,.3,1l-.48,1a.65.65,0,0,1-.9.27,7.19,7.19,0,0,0-3-.69c-1.2,0-1.77.6-1.77,1.23,0,.9,1,1.44,2.37,2,2.55,1.08,4.47,2,4.47,4.59,0,2.16-1.86,4-4.95,4A8,8,0,0,1,377.91,167.72Z" fill="#091b43"/><path d="M388.68,155.84a.61.61,0,0,1,.6-.9h2a.69.69,0,0,1,.6.39l3.21,9.51h.06l3.9-9.51c.12-.33.39-.39.72-.39h1.86a.6.6,0,0,1,.6.9l-8.46,19.68a.7.7,0,0,1-.57.42h-1.92a.63.63,0,0,1-.6-.93l2.79-6.69Z" fill="#091b43"/><path d="M414,175.28a.65.65,0,0,1-.72.66h-1.68a.67.67,0,0,1-.66-.66V155.42a.59.59,0,0,1,.63-.6,1.73,1.73,0,0,1,1.77,1.44,6.32,6.32,0,0,1,4.32-1.62c3.81,0,6.54,3.27,6.54,7.23s-2.88,7.26-6.66,7.26a7.5,7.5,0,0,1-3.54-1Zm-.06-10a5.81,5.81,0,0,0,3.21,1,4.2,4.2,0,0,0,4.05-4.41c0-2.46-1.56-4.38-3.93-4.38a3.77,3.77,0,0,0-3.33,1.95Z" fill="#091b43"/><path d="M431.73,160a10.66,10.66,0,0,1,2.79.42c.06-2.19-1-3.18-2.79-3.18a9.77,9.77,0,0,0-3.3.66.64.64,0,0,1-.78-.57l-.27-1.14a.63.63,0,0,1,.45-.81,8.52,8.52,0,0,1,4-.78c4.44,0,5.67,2.67,5.67,6.12v7.56a.59.59,0,0,1-.63.6A1.76,1.76,0,0,1,435,167.3a6,6,0,0,1-4.35,1.83,4.28,4.28,0,0,1-4.47-4.62C426.18,162,428.16,160,431.73,160Zm-.45,6.63a4.29,4.29,0,0,0,3.21-1.68v-2.31a6.3,6.3,0,0,0-2.52-.48c-1.62,0-2.85.84-2.85,2.28A2,2,0,0,0,431.28,166.67Z" fill="#091b43"/><path d="M441.24,155.42a.59.59,0,0,1,.63-.6,1.82,1.82,0,0,1,1.83,1.74,5.27,5.27,0,0,1,4.11-1.92c1.32,0,3,.36,2.52,1.29l-.72,1.5a.6.6,0,0,1-.84.33,3.42,3.42,0,0,0-1.26-.27,4,4,0,0,0-3.27,1.86v8.79c0,.6-.39.66-1,.66H441.9a.67.67,0,0,1-.66-.66Z" fill="#091b43"/><path d="M458.58,154.64a6.17,6.17,0,0,1,6.33,6.36c0,.24,0,.72-.06,1a.65.65,0,0,1-.63.6h-9.57a4.05,4.05,0,0,0,4.14,3.78,5.38,5.38,0,0,0,3.39-1.17c.3-.21.57-.3.81.06l.81,1.26c.24.3.36.57-.06.93a7.94,7.94,0,0,1-5.13,1.71c-4.2,0-6.93-3.3-6.93-7.26S454.41,154.64,458.58,154.64Zm3.36,5.7a3.27,3.27,0,0,0-3.42-3.15,3.52,3.52,0,0,0-3.72,3.15Z" fill="#091b43"/><path d="M467.76,155.42a.59.59,0,0,1,.63-.6,1.76,1.76,0,0,1,1.8,1.68,6.39,6.39,0,0,1,4.59-1.86c4.23,0,5.37,2.94,5.37,6.54v7a.69.69,0,0,1-.66.66h-1.68a.67.67,0,0,1-.66-.66v-7.08c0-2.25-.93-3.57-2.73-3.57a4.22,4.22,0,0,0-3.66,2v8.64c0,.45-.24.66-.81.66h-1.53a.67.67,0,0,1-.66-.66Z" fill="#091b43"/><path d="M483.24,157.49a.67.67,0,0,1-.66-.66V155.6a.63.63,0,0,1,.66-.66h1.59v-3.87a.67.67,0,0,1,.66-.66h1.71a.64.64,0,0,1,.63.66v3.87h3.66a.65.65,0,0,1,.66.66v1.23a.69.69,0,0,1-.66.66h-3.66v7.38c0,1.17.75,1.41,1.65,1.41a3.85,3.85,0,0,0,1.68-.51.52.52,0,0,1,.81.3l.54,1.41c.15.36,0,.6-.33.81a6.6,6.6,0,0,1-3,.84c-3,0-4.35-1.68-4.35-4.14v-7.5Z" fill="#091b43"/><path d="M494.43,167.72a.57.57,0,0,1-.24-.72l.63-1.29a.62.62,0,0,1,.9-.18,6.44,6.44,0,0,0,3.45,1c1.17,0,1.83-.57,1.83-1.35s-1.05-1.53-3-2.4c-2.13-1-3.75-2.1-3.75-4.38,0-1.74,1.23-3.78,4.59-3.78a7.74,7.74,0,0,1,4.05,1,.82.82,0,0,1,.3,1l-.48,1a.65.65,0,0,1-.9.27,7.19,7.19,0,0,0-3-.69c-1.2,0-1.77.6-1.77,1.23,0,.9,1,1.44,2.37,2,2.55,1.08,4.47,2,4.47,4.59,0,2.16-1.86,4-4.95,4A8,8,0,0,1,494.43,167.72Z" fill="#091b43"/><path d="M513.81,148.46a.69.69,0,0,1,.66-.66h1.68a.71.71,0,0,1,.66.66v19.68a.69.69,0,0,1-.66.66h-1.68a.67.67,0,0,1-.66-.66Z" fill="#091b43"/><path d="M527,154.64a7.25,7.25,0,1,1-7.08,7.2A7.19,7.19,0,0,1,527,154.64Zm0,11.64a4.2,4.2,0,0,0,4.11-4.44,4.13,4.13,0,1,0-8.25,0A4.2,4.2,0,0,0,527,166.28Z" fill="#091b43"/><path d="M536.25,157.49a.67.67,0,0,1-.66-.66V155.6a.63.63,0,0,1,.66-.66h1.59v-3.87a.67.67,0,0,1,.66-.66h1.71a.64.64,0,0,1,.63.66v3.87h3.66a.65.65,0,0,1,.66.66v1.23a.69.69,0,0,1-.66.66h-3.66v7.38c0,1.17.75,1.41,1.65,1.41a3.85,3.85,0,0,0,1.68-.51.52.52,0,0,1,.81.3l.54,1.41c.15.36,0,.6-.33.81a6.6,6.6,0,0,1-3,.84c-3,0-4.35-1.68-4.35-4.14v-7.5Z" fill="#091b43"/><path d="M547.44,167.72a.57.57,0,0,1-.24-.72l.63-1.29a.62.62,0,0,1,.9-.18,6.44,6.44,0,0,0,3.45,1c1.17,0,1.83-.57,1.83-1.35s-1-1.53-3-2.4c-2.13-1-3.75-2.1-3.75-4.38,0-1.74,1.23-3.78,4.59-3.78a7.74,7.74,0,0,1,4,1,.82.82,0,0,1,.3,1l-.48,1a.65.65,0,0,1-.9.27,7.19,7.19,0,0,0-3-.69c-1.2,0-1.77.6-1.77,1.23,0,.9,1,1.44,2.37,2,2.55,1.08,4.47,2,4.47,4.59,0,2.16-1.86,4-5,4A8,8,0,0,1,547.44,167.72Z" fill="#091b43"/><path d="M572.94,154.64a7.25,7.25,0,1,1-7.08,7.2A7.19,7.19,0,0,1,572.94,154.64Zm0,11.64a4.2,4.2,0,0,0,4.11-4.44,4.13,4.13,0,1,0-8.25,0A4.2,4.2,0,0,0,572.94,166.28Z" fill="#091b43"/><path d="M584,157.73h-1.8a.67.67,0,0,1-.66-.66V155.6a.63.63,0,0,1,.66-.66H584v-1.59c0-3.72,1.77-5.85,5.13-5.85a6.12,6.12,0,0,1,3.93,1.38.61.61,0,0,1,.12.78l-.87,1.26c-.21.33-.54.36-.9.12a3.68,3.68,0,0,0-2.22-.69c-1.56,0-2.19,1.26-2.19,3v1.59h3.93a.65.65,0,0,1,.66.66v1.47a.69.69,0,0,1-.66.66H587v10.41a.69.69,0,0,1-.66.66h-1.68a.69.69,0,0,1-.66-.66Z" fill="#091b43"/><path d="M599.91,157.49a.67.67,0,0,1-.66-.66V155.6a.63.63,0,0,1,.66-.66h1.59v-3.87a.67.67,0,0,1,.66-.66h1.71a.64.64,0,0,1,.63.66v3.87h3.66a.65.65,0,0,1,.66.66v1.23a.69.69,0,0,1-.66.66H604.5v7.38c0,1.17.75,1.41,1.65,1.41a3.85,3.85,0,0,0,1.68-.51.52.52,0,0,1,.81.3l.54,1.41c.15.36,0,.6-.33.81a6.6,6.6,0,0,1-3,.84c-3,0-4.35-1.68-4.35-4.14v-7.5Z" fill="#091b43"/><path d="M611.19,150a2,2,0,0,1,2-2,2,2,0,1,1,0,4.05A2,2,0,0,1,611.19,150Zm.48,5.64a.69.69,0,0,1,.66-.66H614a.71.71,0,0,1,.66.66v12.54a.69.69,0,0,1-.66.66h-1.68a.67.67,0,0,1-.66-.66Z" fill="#091b43"/><path d="M618.57,155.42a.59.59,0,0,1,.63-.6,1.75,1.75,0,0,1,1.8,1.62,6,6,0,0,1,4.32-1.8,4.74,4.74,0,0,1,4.23,2.19,6.59,6.59,0,0,1,4.68-2.19c4.23,0,5.28,2.94,5.28,6.54v7a.65.65,0,0,1-.66.66h-1.68a.63.63,0,0,1-.66-.66v-7.08c0-2.22-.84-3.57-2.73-3.57a4.32,4.32,0,0,0-3.33,1.62,13,13,0,0,1,.12,1.86v7.17a.66.66,0,0,1-.63.66h-1.71a.65.65,0,0,1-.66-.66v-7.08c0-2.25-.81-3.57-2.73-3.57a3.52,3.52,0,0,0-3.27,2v8.64a.69.69,0,0,1-.66.66h-1.68a.67.67,0,0,1-.66-.66Z" fill="#091b43"/><path d="M649.32,154.64a6.17,6.17,0,0,1,6.33,6.36c0,.24,0,.72-.06,1a.65.65,0,0,1-.63.6h-9.57a4.05,4.05,0,0,0,4.14,3.78,5.38,5.38,0,0,0,3.39-1.17c.3-.21.57-.3.81.06l.81,1.26c.24.3.36.57-.06.93a7.94,7.94,0,0,1-5.13,1.71c-4.2,0-6.93-3.3-6.93-7.26S645.15,154.64,649.32,154.64Zm3.36,5.7a3.27,3.27,0,0,0-3.42-3.15,3.52,3.52,0,0,0-3.72,3.15Z" fill="#091b43"/><path d="M660.15,164.75a2.15,2.15,0,1,1-2.1,2.16A2.15,2.15,0,0,1,660.15,164.75Z" fill="#091b43"/><path d="M671.34,148.52a.52.52,0,0,1,.54-.72h2a.62.62,0,0,1,.54.42L678.06,162h.12l4.89-14.16a.54.54,0,0,1,.51-.33h.54a.54.54,0,0,1,.51.33l5,14.16h.12l3.57-13.77a.62.62,0,0,1,.54-.42h2a.52.52,0,0,1,.54.72l-5.67,20.16a.59.59,0,0,1-.54.42h-.48a.57.57,0,0,1-.51-.33l-5.28-14.91h-.15l-5.19,14.91a.57.57,0,0,1-.51.33h-.48a.58.58,0,0,1-.54-.42Z" fill="#091b43"/><path d="M703.8,154.64a6.17,6.17,0,0,1,6.32,6.36c0,.24,0,.72,0,1a.65.65,0,0,1-.63.6h-9.57a4.05,4.05,0,0,0,4.14,3.78,5.38,5.38,0,0,0,3.39-1.17c.3-.21.57-.3.81.06l.81,1.26c.24.3.36.57-.06.93a7.94,7.94,0,0,1-5.13,1.71c-4.2,0-6.93-3.3-6.93-7.26S699.63,154.64,703.8,154.64Zm3.36,5.7a3.27,3.27,0,0,0-3.42-3.15,3.52,3.52,0,0,0-3.72,3.15Z" fill="#091b43"/><path d="M726.12,154.64a6.08,6.08,0,0,1,5,2.4.7.7,0,0,1-.12,1L730,159c-.4.36-.67.09-.91-.15a4.15,4.15,0,0,0-2.84-1.38,4.4,4.4,0,0,0-.09,8.79c1.8,0,2.51-1,3.26-1.71a.64.64,0,0,1,.93-.06l.94.75c.33.3.47.63.23,1a6.31,6.31,0,0,1-5.4,2.88A7.06,7.06,0,0,1,719,161.9,7.2,7.2,0,0,1,726.12,154.64Z" fill="#091b43"/><path d="M738.83,160a10.66,10.66,0,0,1,2.79.42c.06-2.19-1-3.18-2.79-3.18a9.7,9.7,0,0,0-3.29.66.65.65,0,0,1-.79-.57l-.26-1.14a.62.62,0,0,1,.44-.81,8.52,8.52,0,0,1,4-.78c4.44,0,5.67,2.67,5.67,6.12v7.56a.59.59,0,0,1-.63.6,1.77,1.77,0,0,1-1.83-1.62,6,6,0,0,1-4.35,1.83,4.27,4.27,0,0,1-4.46-4.62C733.29,162,735.26,160,738.83,160Zm-.45,6.63a4.29,4.29,0,0,0,3.21-1.68v-2.31a6.23,6.23,0,0,0-2.51-.48c-1.62,0-2.86.84-2.86,2.28A2,2,0,0,0,738.38,166.67Z" fill="#091b43"/><path d="M748.34,155.42a.59.59,0,0,1,.63-.6,1.76,1.76,0,0,1,1.8,1.68,6.39,6.39,0,0,1,4.59-1.86c4.23,0,5.37,2.94,5.37,6.54v7a.69.69,0,0,1-.66.66h-1.68a.67.67,0,0,1-.66-.66v-7.08c0-2.25-.93-3.57-2.73-3.57a4.22,4.22,0,0,0-3.66,2v8.64c0,.45-.24.66-.81.66H749a.67.67,0,0,1-.66-.66Z" fill="#091b43"/><path d="M770.81,167.72a.57.57,0,0,1-.24-.72l.63-1.29a.62.62,0,0,1,.9-.18,6.44,6.44,0,0,0,3.45,1c1.17,0,1.83-.57,1.83-1.35s-1-1.53-3-2.4c-2.13-1-3.75-2.1-3.75-4.38,0-1.74,1.23-3.78,4.59-3.78a7.74,7.74,0,0,1,4,1,.82.82,0,0,1,.3,1l-.48,1a.65.65,0,0,1-.9.27,7.19,7.19,0,0,0-3-.69c-1.2,0-1.77.6-1.77,1.23,0,.9,1,1.44,2.37,2,2.55,1.08,4.47,2,4.47,4.59,0,2.16-1.86,4-5,4A8,8,0,0,1,770.81,167.72Z" fill="#091b43"/><path d="M782.54,157.49a.67.67,0,0,1-.66-.66V155.6a.63.63,0,0,1,.66-.66h1.59v-3.87a.67.67,0,0,1,.66-.66h1.71a.64.64,0,0,1,.63.66v3.87h3.66a.65.65,0,0,1,.66.66v1.23a.69.69,0,0,1-.66.66h-3.66v7.38c0,1.17.75,1.41,1.65,1.41a3.85,3.85,0,0,0,1.68-.51.52.52,0,0,1,.81.3l.54,1.41c.15.36,0,.6-.33.81a6.6,6.6,0,0,1-3,.84c-3,0-4.35-1.68-4.35-4.14v-7.5Z" fill="#091b43"/><path d="M793.82,150a2,2,0,0,1,2-2,2,2,0,1,1,0,4.05A2,2,0,0,1,793.82,150Zm.48,5.64a.69.69,0,0,1,.66-.66h1.68a.71.71,0,0,1,.66.66v12.54a.69.69,0,0,1-.66.66H795a.67.67,0,0,1-.66-.66Z" fill="#091b43"/><path d="M801.29,148.46a.69.69,0,0,1,.66-.66h1.68a.71.71,0,0,1,.66.66v19.68a.69.69,0,0,1-.66.66H802a.67.67,0,0,1-.66-.66Z" fill="#091b43"/><path d="M808.37,148.46a.69.69,0,0,1,.66-.66h1.68a.71.71,0,0,1,.66.66v19.68a.69.69,0,0,1-.66.66H809a.67.67,0,0,1-.66-.66Z" fill="#091b43"/><path d="M834.68,168.89c0,4.32-2.79,6.48-6.42,6.48a7.49,7.49,0,0,1-4.8-1.74.64.64,0,0,1-.15-.78l.72-1.32a.59.59,0,0,1,.93-.21,5.21,5.21,0,0,0,3.24,1.29c1.83,0,3.45-.9,3.45-3.72v-.75a7.39,7.39,0,0,1-3.54,1c-3.78,0-6.69-3.21-6.69-7.26s2.73-7.23,6.54-7.23a6.59,6.59,0,0,1,4.32,1.59,1.73,1.73,0,0,1,1.77-1.41.59.59,0,0,1,.63.6Zm-6.21-2.61a5.64,5.64,0,0,0,3.21-1.11v-5.73a3.91,3.91,0,0,0-7.26,2.43A4.27,4.27,0,0,0,828.47,166.28Z" fill="#091b43"/><path d="M844.64,154.64A6.17,6.17,0,0,1,851,161c0,.24,0,.72-.06,1a.65.65,0,0,1-.63.6h-9.57a4.05,4.05,0,0,0,4.14,3.78,5.38,5.38,0,0,0,3.39-1.17c.3-.21.57-.3.81.06l.81,1.26c.24.3.36.57-.06.93a7.94,7.94,0,0,1-5.13,1.71c-4.2,0-6.93-3.3-6.93-7.26S840.47,154.64,844.64,154.64Zm3.36,5.7a3.27,3.27,0,0,0-3.42-3.15,3.52,3.52,0,0,0-3.72,3.15Z" fill="#091b43"/><path d="M853.16,157.49a.67.67,0,0,1-.66-.66V155.6a.63.63,0,0,1,.66-.66h1.59v-3.87a.67.67,0,0,1,.66-.66h1.71a.64.64,0,0,1,.63.66v3.87h3.66a.65.65,0,0,1,.66.66v1.23a.69.69,0,0,1-.66.66h-3.66v7.38c0,1.17.75,1.41,1.65,1.41a3.85,3.85,0,0,0,1.68-.51.52.52,0,0,1,.81.3l.54,1.41c.15.36,0,.6-.33.81a6.6,6.6,0,0,1-3,.84c-3,0-4.35-1.68-4.35-4.14v-7.5Z" fill="#091b43"/><path d="M345.75,190.49a.67.67,0,0,1-.66-.66V188.6a.63.63,0,0,1,.66-.66h1.59v-3.87a.67.67,0,0,1,.66-.66h1.71a.64.64,0,0,1,.63.66v3.87H354a.65.65,0,0,1,.66.66v1.23a.69.69,0,0,1-.66.66h-3.66v7.38c0,1.17.75,1.41,1.65,1.41a3.85,3.85,0,0,0,1.68-.51.52.52,0,0,1,.81.3l.54,1.41c.15.36,0,.6-.33.81a6.6,6.6,0,0,1-3,.84c-3,0-4.35-1.68-4.35-4.14v-7.5Z" fill="#091b43"/><path d="M357.51,181.46a.69.69,0,0,1,.66-.66h1.68a.71.71,0,0,1,.66.66v7.62a6.7,6.7,0,0,1,4-1.44c3.93,0,5.37,2.76,5.37,6.54v7a.69.69,0,0,1-.66.66h-1.68a.67.67,0,0,1-.66-.66v-7c0-2.28-1-3.63-2.76-3.63a4.13,4.13,0,0,0-3.63,2v8.64a.64.64,0,0,1-.69.66h-1.65a.67.67,0,0,1-.66-.66Z" fill="#091b43"/><path d="M379.71,187.64A6.17,6.17,0,0,1,386,194c0,.24,0,.72-.06,1a.65.65,0,0,1-.63.6h-9.57a4.05,4.05,0,0,0,4.14,3.78,5.38,5.38,0,0,0,3.39-1.17c.3-.21.57-.3.81.06l.81,1.26c.24.3.36.57-.06.93a7.94,7.94,0,0,1-5.13,1.71c-4.2,0-6.93-3.3-6.93-7.26S375.54,187.64,379.71,187.64Zm3.36,5.7a3.27,3.27,0,0,0-3.42-3.15,3.52,3.52,0,0,0-3.72,3.15Z" fill="#091b43"/><path d="M401.85,187.64a6.17,6.17,0,0,1,6.33,6.36c0,.24,0,.72-.06,1a.65.65,0,0,1-.63.6h-9.57a4.05,4.05,0,0,0,4.14,3.78,5.38,5.38,0,0,0,3.39-1.17c.3-.21.57-.3.81.06l.81,1.26c.24.3.36.57-.06.93a7.94,7.94,0,0,1-5.13,1.71c-4.2,0-6.93-3.3-6.93-7.26S397.68,187.64,401.85,187.64Zm3.36,5.7a3.27,3.27,0,0,0-3.42-3.15,3.52,3.52,0,0,0-3.72,3.15Z" fill="#091b43"/><path d="M410.46,200.72a.57.57,0,0,1-.24-.72l.63-1.29a.62.62,0,0,1,.9-.18,6.44,6.44,0,0,0,3.45,1c1.17,0,1.83-.57,1.83-1.35s-1-1.53-3-2.4c-2.13-1-3.75-2.1-3.75-4.38,0-1.74,1.23-3.78,4.59-3.78a7.74,7.74,0,0,1,4.05,1,.82.82,0,0,1,.3,1l-.48,1a.65.65,0,0,1-.9.27,7.19,7.19,0,0,0-3-.69c-1.2,0-1.77.6-1.77,1.23,0,.9,1,1.44,2.37,2,2.55,1.08,4.47,2,4.47,4.59,0,2.16-1.86,4-5,4A8,8,0,0,1,410.46,200.72Z" fill="#091b43"/><path d="M422.28,200.72A.57.57,0,0,1,422,200l.63-1.29a.62.62,0,0,1,.9-.18,6.44,6.44,0,0,0,3.45,1c1.17,0,1.83-.57,1.83-1.35s-1.05-1.53-3-2.4c-2.13-1-3.75-2.1-3.75-4.38,0-1.74,1.23-3.78,4.59-3.78a7.74,7.74,0,0,1,4,1,.82.82,0,0,1,.3,1l-.48,1a.65.65,0,0,1-.9.27,7.19,7.19,0,0,0-3-.69c-1.2,0-1.77.6-1.77,1.23,0,.9,1,1.44,2.37,2,2.55,1.08,4.47,2,4.47,4.59,0,2.16-1.86,4-5,4A8,8,0,0,1,422.28,200.72Z" fill="#091b43"/><path d="M440.73,187.64a6.17,6.17,0,0,1,6.33,6.36c0,.24,0,.72-.06,1a.65.65,0,0,1-.63.6H436.8a4.05,4.05,0,0,0,4.14,3.78,5.38,5.38,0,0,0,3.39-1.17c.3-.21.57-.3.81.06l.81,1.26c.24.3.36.57-.06.93a7.94,7.94,0,0,1-5.13,1.71c-4.2,0-6.93-3.3-6.93-7.26S436.56,187.64,440.73,187.64Zm3.36,5.7a3.27,3.27,0,0,0-3.42-3.15,3.52,3.52,0,0,0-3.72,3.15Z" fill="#091b43"/><path d="M449.91,188.42a.59.59,0,0,1,.63-.6,1.76,1.76,0,0,1,1.8,1.68,6.39,6.39,0,0,1,4.59-1.86c4.23,0,5.37,2.94,5.37,6.54v7a.69.69,0,0,1-.66.66H460a.67.67,0,0,1-.66-.66v-7.08c0-2.25-.93-3.57-2.73-3.57a4.22,4.22,0,0,0-3.66,2v8.64c0,.45-.24.66-.81.66h-1.53a.67.67,0,0,1-.66-.66Z" fill="#091b43"/><path d="M465.39,190.49a.67.67,0,0,1-.66-.66V188.6a.63.63,0,0,1,.66-.66H467v-3.87a.67.67,0,0,1,.66-.66h1.71a.64.64,0,0,1,.63.66v3.87h3.66a.65.65,0,0,1,.66.66v1.23a.69.69,0,0,1-.66.66H470v7.38c0,1.17.75,1.41,1.65,1.41a3.85,3.85,0,0,0,1.68-.51.52.52,0,0,1,.81.3l.54,1.41c.15.36,0,.6-.33.81a6.6,6.6,0,0,1-3,.84c-3,0-4.35-1.68-4.35-4.14v-7.5Z" fill="#091b43"/><path d="M476.67,183a2,2,0,0,1,2-2,2,2,0,1,1,0,4.05A2,2,0,0,1,476.67,183Zm.48,5.64a.69.69,0,0,1,.66-.66h1.68a.71.71,0,0,1,.66.66v12.54a.69.69,0,0,1-.66.66h-1.68a.67.67,0,0,1-.66-.66Z" fill="#091b43"/><path d="M488.55,193a10.66,10.66,0,0,1,2.79.42c.06-2.19-1-3.18-2.79-3.18a9.77,9.77,0,0,0-3.3.66.64.64,0,0,1-.78-.57l-.27-1.14a.63.63,0,0,1,.45-.81,8.52,8.52,0,0,1,4-.78c4.44,0,5.67,2.67,5.67,6.12v7.56a.59.59,0,0,1-.63.6,1.76,1.76,0,0,1-1.83-1.62,6,6,0,0,1-4.35,1.83,4.28,4.28,0,0,1-4.47-4.62C483,195,485,193,488.55,193Zm-.45,6.63a4.29,4.29,0,0,0,3.21-1.68v-2.31a6.3,6.3,0,0,0-2.52-.48c-1.62,0-2.85.84-2.85,2.28A2,2,0,0,0,488.1,199.67Z" fill="#091b43"/><path d="M498.15,181.46a.69.69,0,0,1,.66-.66h1.68a.71.71,0,0,1,.66.66v19.68a.69.69,0,0,1-.66.66h-1.68a.67.67,0,0,1-.66-.66Z" fill="#091b43"/><path d="M504.57,200.72a.57.57,0,0,1-.24-.72l.63-1.29a.62.62,0,0,1,.9-.18,6.44,6.44,0,0,0,3.45,1c1.17,0,1.83-.57,1.83-1.35s-1.05-1.53-3-2.4c-2.13-1-3.75-2.1-3.75-4.38,0-1.74,1.23-3.78,4.59-3.78a7.74,7.74,0,0,1,4,1,.82.82,0,0,1,.3,1l-.48,1a.65.65,0,0,1-.9.27,7.19,7.19,0,0,0-3-.69c-1.2,0-1.77.6-1.77,1.23,0,.9,1,1.44,2.37,2,2.55,1.08,4.47,2,4.47,4.59,0,2.16-1.86,4-5,4A8,8,0,0,1,504.57,200.72Z" fill="#091b43"/><path d="M522.72,188.72a.5.5,0,0,1,.48-.78H525a.61.61,0,0,1,.6.42l2.28,7.95h.06l3.75-8.34a.63.63,0,0,1,.57-.33h.21a.59.59,0,0,1,.6.33l3.72,8.37h.06l2.22-8c.18-.42.69-.42,1-.42h1.26c.48,0,.75.36.54.78l-4,13.05a.63.63,0,0,1-.63.36h-.12a.65.65,0,0,1-.6-.33l-4.23-9.42h-.06l-4.26,9.42a.52.52,0,0,1-.54.33h-.18a.55.55,0,0,1-.57-.36Z" fill="#091b43"/><path d="M544.23,183a2,2,0,0,1,2-2,2,2,0,1,1,0,4.05A2,2,0,0,1,544.23,183Zm.48,5.64a.69.69,0,0,1,.66-.66h1.68a.71.71,0,0,1,.66.66v12.54a.69.69,0,0,1-.66.66h-1.68a.67.67,0,0,1-.66-.66Z" fill="#091b43"/><path d="M551,190.49a.67.67,0,0,1-.66-.66V188.6a.63.63,0,0,1,.66-.66h1.59v-3.87a.67.67,0,0,1,.66-.66h1.71a.64.64,0,0,1,.63.66v3.87h3.66a.65.65,0,0,1,.66.66v1.23a.69.69,0,0,1-.66.66h-3.66v7.38c0,1.17.75,1.41,1.65,1.41a3.85,3.85,0,0,0,1.68-.51.52.52,0,0,1,.81.3l.54,1.41c.15.36,0,.6-.33.81a6.6,6.6,0,0,1-3,.84c-3,0-4.35-1.68-4.35-4.14v-7.5Z" fill="#091b43"/><path d="M562.71,181.46a.69.69,0,0,1,.66-.66h1.68a.71.71,0,0,1,.66.66v7.62a6.7,6.7,0,0,1,4-1.44c3.93,0,5.37,2.76,5.37,6.54v7a.69.69,0,0,1-.66.66h-1.68a.67.67,0,0,1-.66-.66v-7c0-2.28-1-3.63-2.76-3.63a4.13,4.13,0,0,0-3.63,2v8.64a.64.64,0,0,1-.69.66h-1.65a.67.67,0,0,1-.66-.66Z" fill="#091b43"/><path d="M585.06,187.64a7.25,7.25,0,1,1-7.08,7.2A7.19,7.19,0,0,1,585.06,187.64Zm0,11.64a4.2,4.2,0,0,0,4.11-4.44,4.13,4.13,0,1,0-8.25,0A4.2,4.2,0,0,0,585.06,199.28Z" fill="#091b43"/><path d="M595,188.6a.71.71,0,0,1,.66-.66h1.68a.69.69,0,0,1,.66.66V196c0,2.28.93,3.3,2.7,3.3a3.43,3.43,0,0,0,3.24-2.28v-8.4c0-.57.27-.66.78-.66h1.53a.71.71,0,0,1,.69.66v12.72a.59.59,0,0,1-.63.6,1.76,1.76,0,0,1-1.83-1.62,5.57,5.57,0,0,1-4.32,1.83c-4.14,0-5.16-2.73-5.16-6.36Z" fill="#091b43"/><path d="M610.17,190.49a.67.67,0,0,1-.66-.66V188.6a.63.63,0,0,1,.66-.66h1.59v-3.87a.67.67,0,0,1,.66-.66h1.71a.64.64,0,0,1,.63.66v3.87h3.66a.65.65,0,0,1,.66.66v1.23a.69.69,0,0,1-.66.66h-3.66v7.38c0,1.17.75,1.41,1.65,1.41a3.85,3.85,0,0,0,1.68-.51.52.52,0,0,1,.81.3l.54,1.41c.15.36,0,.6-.33.81a6.6,6.6,0,0,1-3,.84c-3,0-4.35-1.68-4.35-4.14v-7.5Z" fill="#091b43"/><path d="M628.26,200.72A.57.57,0,0,1,628,200l.63-1.29a.62.62,0,0,1,.9-.18,6.44,6.44,0,0,0,3.45,1c1.17,0,1.83-.57,1.83-1.35s-1.05-1.53-3-2.4c-2.13-1-3.75-2.1-3.75-4.38,0-1.74,1.23-3.78,4.59-3.78a7.77,7.77,0,0,1,4,1,.8.8,0,0,1,.29,1l-.47,1a.65.65,0,0,1-.9.27,7.19,7.19,0,0,0-3-.69c-1.2,0-1.77.6-1.77,1.23,0,.9,1,1.44,2.36,2,2.55,1.08,4.47,2,4.47,4.59,0,2.16-1.85,4-4.94,4A8,8,0,0,1,628.26,200.72Z" fill="#091b43"/><path d="M645.14,193a10.66,10.66,0,0,1,2.79.42c.07-2.19-1-3.18-2.79-3.18a9.83,9.83,0,0,0-3.3.66c-.42.09-.68-.18-.77-.57l-.28-1.14a.64.64,0,0,1,.46-.81,8.52,8.52,0,0,1,4-.78c4.43,0,5.67,2.67,5.67,6.12v7.56a.6.6,0,0,1-.63.6,1.75,1.75,0,0,1-1.83-1.62,6,6,0,0,1-4.35,1.83,4.28,4.28,0,0,1-4.47-4.62C639.6,195,641.58,193,645.14,193Zm-.44,6.63a4.29,4.29,0,0,0,3.21-1.68v-2.31a6.41,6.41,0,0,0-2.53-.48c-1.62,0-2.84.84-2.84,2.28A2,2,0,0,0,644.7,199.67Z" fill="#091b43"/><path d="M660.89,187.64a6.08,6.08,0,0,1,5,2.4.69.69,0,0,1-.12,1l-1.08,1c-.39.36-.66.09-.9-.15a4.18,4.18,0,0,0-2.85-1.38,4.4,4.4,0,0,0-.09,8.79c1.8,0,2.52-1,3.27-1.71a.64.64,0,0,1,.93-.06l.93.75c.33.3.48.63.24,1a6.33,6.33,0,0,1-5.4,2.88,7.07,7.07,0,0,1-7.07-7.23A7.19,7.19,0,0,1,660.89,187.64Z" fill="#091b43"/><path d="M669.11,188.42a.59.59,0,0,1,.63-.6,1.82,1.82,0,0,1,1.83,1.74,5.27,5.27,0,0,1,4.11-1.92c1.32,0,3,.36,2.52,1.29l-.72,1.5a.6.6,0,0,1-.84.33,3.42,3.42,0,0,0-1.26-.27,4,4,0,0,0-3.27,1.86v8.79c0,.6-.39.66-1,.66h-1.38a.67.67,0,0,1-.66-.66Z" fill="#091b43"/><path d="M679.91,183a2,2,0,0,1,2-2,2,2,0,1,1,0,4.05A2,2,0,0,1,679.91,183Zm.48,5.64a.69.69,0,0,1,.66-.66h1.68a.71.71,0,0,1,.66.66v12.54a.69.69,0,0,1-.66.66h-1.68a.67.67,0,0,1-.66-.66Z" fill="#091b43"/><path d="M688.46,190.73h-1.8a.67.67,0,0,1-.66-.66V188.6a.63.63,0,0,1,.66-.66h1.8v-1.59c0-3.72,1.77-5.85,5.13-5.85a6.12,6.12,0,0,1,3.93,1.38.61.61,0,0,1,.12.78l-.87,1.26c-.21.33-.54.36-.9.12a3.68,3.68,0,0,0-2.22-.69c-1.56,0-2.19,1.26-2.19,3v1.59h3.93a.65.65,0,0,1,.66.66v1.47a.69.69,0,0,1-.66.66h-3.93v10.41a.69.69,0,0,1-.66.66h-1.68a.69.69,0,0,1-.66-.66Z" fill="#091b43"/><path d="M698,183a2,2,0,0,1,2-2,2,2,0,1,1,0,4.05A2,2,0,0,1,698,183Zm.48,5.64a.69.69,0,0,1,.66-.66h1.68a.71.71,0,0,1,.66.66v12.54a.69.69,0,0,1-.66.66h-1.68a.67.67,0,0,1-.66-.66Z" fill="#091b43"/><path d="M711.59,187.64a6.08,6.08,0,0,1,5,2.4.69.69,0,0,1-.12,1l-1.08,1c-.39.36-.66.09-.9-.15a4.18,4.18,0,0,0-2.85-1.38,4.4,4.4,0,0,0-.09,8.79c1.8,0,2.52-1,3.27-1.71a.64.64,0,0,1,.93-.06l.93.75c.33.3.48.63.24,1a6.33,6.33,0,0,1-5.4,2.88,7.07,7.07,0,0,1-7.08-7.23A7.2,7.2,0,0,1,711.59,187.64Z" fill="#091b43"/><path d="M719.33,183a2,2,0,0,1,2-2,2,2,0,1,1,0,4.05A2,2,0,0,1,719.33,183Zm.48,5.64a.69.69,0,0,1,.66-.66h1.68a.71.71,0,0,1,.66.66v12.54a.69.69,0,0,1-.66.66h-1.68a.67.67,0,0,1-.66-.66Z" fill="#091b43"/><path d="M726.71,188.42a.59.59,0,0,1,.63-.6,1.76,1.76,0,0,1,1.8,1.68,6.39,6.39,0,0,1,4.59-1.86c4.23,0,5.37,2.94,5.37,6.54v7a.69.69,0,0,1-.66.66h-1.68a.67.67,0,0,1-.66-.66v-7.08c0-2.25-.93-3.57-2.73-3.57a4.22,4.22,0,0,0-3.66,2v8.64c0,.45-.24.66-.81.66h-1.53a.67.67,0,0,1-.66-.66Z" fill="#091b43"/><path d="M755.27,201.89c0,4.32-2.79,6.48-6.42,6.48a7.49,7.49,0,0,1-4.8-1.74.64.64,0,0,1-.15-.78l.72-1.32a.59.59,0,0,1,.93-.21,5.21,5.21,0,0,0,3.24,1.29c1.83,0,3.45-.9,3.45-3.72v-.75a7.39,7.39,0,0,1-3.54,1c-3.78,0-6.69-3.21-6.69-7.26s2.73-7.23,6.54-7.23a6.59,6.59,0,0,1,4.32,1.59,1.73,1.73,0,0,1,1.77-1.41.59.59,0,0,1,.63.6Zm-6.21-2.61a5.64,5.64,0,0,0,3.21-1.11v-5.73a3.91,3.91,0,0,0-7.26,2.43A4.27,4.27,0,0,0,749.06,199.28Z" fill="#091b43"/><path d="M765.11,190.49a.67.67,0,0,1-.66-.66V188.6a.63.63,0,0,1,.66-.66h1.59v-3.87a.67.67,0,0,1,.66-.66h1.71a.64.64,0,0,1,.63.66v3.87h3.66a.65.65,0,0,1,.66.66v1.23a.69.69,0,0,1-.66.66H769.7v7.38c0,1.17.75,1.41,1.65,1.41a3.85,3.85,0,0,0,1.68-.51.52.52,0,0,1,.81.3l.54,1.41c.15.36,0,.6-.33.81a6.6,6.6,0,0,1-3,.84c-3,0-4.35-1.68-4.35-4.14v-7.5Z" fill="#091b43"/><path d="M776.87,181.46a.69.69,0,0,1,.66-.66h1.68a.71.71,0,0,1,.66.66v7.62a6.7,6.7,0,0,1,4-1.44c3.93,0,5.37,2.76,5.37,6.54v7a.69.69,0,0,1-.66.66h-1.68a.67.67,0,0,1-.66-.66v-7c0-2.28-1-3.63-2.76-3.63a4.13,4.13,0,0,0-3.63,2v8.64a.64.64,0,0,1-.69.66h-1.65a.67.67,0,0,1-.66-.66Z" fill="#091b43"/><path d="M799.07,187.64A6.17,6.17,0,0,1,805.4,194c0,.24,0,.72-.06,1a.65.65,0,0,1-.63.6h-9.57a4.05,4.05,0,0,0,4.14,3.78,5.38,5.38,0,0,0,3.39-1.17c.3-.21.57-.3.81.06l.81,1.26c.24.3.36.57-.06.93a7.94,7.94,0,0,1-5.13,1.71c-4.2,0-6.93-3.3-6.93-7.26S794.9,187.64,799.07,187.64Zm3.36,5.7a3.27,3.27,0,0,0-3.42-3.15,3.52,3.52,0,0,0-3.72,3.15Z" fill="#091b43"/><path d="M814.19,190.49a.67.67,0,0,1-.66-.66V188.6a.63.63,0,0,1,.66-.66h1.59v-3.87a.67.67,0,0,1,.66-.66h1.71a.64.64,0,0,1,.63.66v3.87h3.66a.65.65,0,0,1,.66.66v1.23a.69.69,0,0,1-.66.66h-3.66v7.38c0,1.17.75,1.41,1.65,1.41a3.85,3.85,0,0,0,1.68-.51.52.52,0,0,1,.81.3l.54,1.41c.15.36,0,.6-.33.81a6.6,6.6,0,0,1-3,.84c-3,0-4.35-1.68-4.35-4.14v-7.5Z" fill="#091b43"/><path d="M825.47,183a2,2,0,0,1,2-2,2,2,0,1,1,0,4.05A2,2,0,0,1,825.47,183Zm.48,5.64a.69.69,0,0,1,.66-.66h1.68a.71.71,0,0,1,.66.66v12.54a.69.69,0,0,1-.66.66h-1.68a.67.67,0,0,1-.66-.66Z" fill="#091b43"/><path d="M832.85,188.42a.59.59,0,0,1,.63-.6,1.75,1.75,0,0,1,1.8,1.62,6,6,0,0,1,4.32-1.8,4.74,4.74,0,0,1,4.23,2.19,6.59,6.59,0,0,1,4.68-2.19c4.23,0,5.28,2.94,5.28,6.54v7a.65.65,0,0,1-.66.66h-1.68a.63.63,0,0,1-.66-.66v-7.08c0-2.22-.84-3.57-2.73-3.57a4.32,4.32,0,0,0-3.33,1.62,13,13,0,0,1,.12,1.86v7.17a.66.66,0,0,1-.63.66h-1.71a.65.65,0,0,1-.66-.66v-7.08c0-2.25-.81-3.57-2.73-3.57a3.52,3.52,0,0,0-3.27,2v8.64a.69.69,0,0,1-.66.66h-1.68a.67.67,0,0,1-.66-.66Z" fill="#091b43"/><path d="M863.6,187.64a6.17,6.17,0,0,1,6.33,6.36c0,.24,0,.72-.06,1a.65.65,0,0,1-.63.6h-9.57a4.05,4.05,0,0,0,4.14,3.78,5.38,5.38,0,0,0,3.39-1.17c.3-.21.57-.3.81.06l.81,1.26c.24.3.36.57-.06.93a7.94,7.94,0,0,1-5.13,1.71c-4.2,0-6.93-3.3-6.93-7.26S859.43,187.64,863.6,187.64Zm3.36,5.7a3.27,3.27,0,0,0-3.42-3.15,3.52,3.52,0,0,0-3.72,3.15Z" fill="#091b43"/><path d="M874.43,197.75a2.15,2.15,0,1,1-2.1,2.16A2.15,2.15,0,0,1,874.43,197.75Z" fill="#091b43"/></g><g id="Lansing_MI" data-name="Lansing, MI"><path d="M345.21,78a.44.44,0,0,1,.43-.44h.9A.46.46,0,0,1,347,78V92.08h6.62a.44.44,0,0,1,.44.43v.67a.44.44,0,0,1-.44.44h-8a.44.44,0,0,1-.43-.44Z" fill="#0071de"/><path d="M359.6,86.88a9,9,0,0,1,2.28.35c0-2-.92-2.92-2.44-2.92a6.52,6.52,0,0,0-2.46.62c-.27.11-.41,0-.5-.28l-.23-.62c-.09-.32.07-.46.32-.57a6.82,6.82,0,0,1,3-.69c2.71,0,4,1.6,4,4.46V93.3a.38.38,0,0,1-.41.41c-.69,0-1.06-.53-1.13-1.24a4.63,4.63,0,0,1-3.33,1.4,3.23,3.23,0,0,1-3.29-3.47C355.35,88.38,356.87,86.88,359.6,86.88Zm-.66,5.45a3.69,3.69,0,0,0,2.92-1.42V88.74a5.58,5.58,0,0,0-2.26-.41c-1.47,0-2.57.71-2.57,2.07A1.84,1.84,0,0,0,358.94,92.33Z" fill="#0071de"/><path d="M366.63,83.32a.39.39,0,0,1,.41-.42c.67,0,1,.51,1.11,1.2a5.47,5.47,0,0,1,3.56-1.33c3.08,0,3.84,2,3.84,4.73v5.61a.52.52,0,0,1-.5.51h-.69a.51.51,0,0,1-.51-.51V87.27c0-2-.69-3-2.25-3a4.67,4.67,0,0,0-3.27,1.47v7.33a.52.52,0,0,1-.5.51h-.69a.51.51,0,0,1-.51-.51Z" fill="#0071de"/><path d="M378,92.58a.38.38,0,0,1-.07-.46l.32-.59c.14-.26.32-.35.62-.14a4.4,4.4,0,0,0,2.65.94c1.08,0,1.82-.5,1.82-1.33,0-1-.83-1.43-2.37-2.19s-3-1.45-3-3.26c0-1.11.83-2.78,3.29-2.78a5.69,5.69,0,0,1,3,.82.51.51,0,0,1,.11.72l-.23.43a.52.52,0,0,1-.73.19,4.17,4.17,0,0,0-2.19-.62c-1.17,0-1.56.66-1.56,1.17,0,.94.73,1.29,2,1.88,1.84.85,3.43,1.54,3.43,3.48,0,1.67-1.45,3-3.61,3A5.2,5.2,0,0,1,378,92.58Z" fill="#0071de"/><path d="M387,79a1.26,1.26,0,1,1,2.51,0,1.27,1.27,0,0,1-1.27,1.24A1.25,1.25,0,0,1,387,79Zm.44,4.48a.52.52,0,0,1,.5-.5h.69a.55.55,0,0,1,.51.5v9.61a.53.53,0,0,1-.51.51H388a.51.51,0,0,1-.5-.51Z" fill="#0071de"/><path d="M392.36,83.32a.39.39,0,0,1,.42-.42c.66,0,1,.51,1.1,1.2a5.5,5.5,0,0,1,3.57-1.33c3.08,0,3.84,2,3.84,4.73v5.61a.53.53,0,0,1-.51.51h-.69a.51.51,0,0,1-.51-.51V87.27c0-2-.69-3-2.25-3a4.67,4.67,0,0,0-3.27,1.47v7.33a.52.52,0,0,1-.5.51h-.69a.51.51,0,0,1-.51-.51Z" fill="#0071de"/><path d="M413.41,93.69c0,3.63-2.23,5-4.64,5a6,6,0,0,1-3.7-1.38.5.5,0,0,1-.12-.62l.46-.66c.16-.26.44-.26.69,0a4.21,4.21,0,0,0,2.67,1.13c1.68,0,3-.92,3-3.4v-.76a5.12,5.12,0,0,1-2.94.94c-2.92,0-5-2.46-5-5.56s2.06-5.54,5-5.54a5.37,5.37,0,0,1,3.2,1.1,1.09,1.09,0,0,1,1.08-1,.39.39,0,0,1,.41.42ZM409,92.31a5.15,5.15,0,0,0,2.69-.88V85.62a3.94,3.94,0,0,0-2.8-1.29c-2.12,0-3.43,1.88-3.43,4C405.48,90.58,407,92.31,409,92.31Z" fill="#0071de"/><path d="M417.61,91.09c1.13,0,1.73,1.13,1.73,2.53A3.89,3.89,0,0,1,418,96.77a.25.25,0,0,1-.37,0l-.39-.37c-.14-.14-.07-.3.05-.41a2.74,2.74,0,0,0,1-2,1.51,1.51,0,0,0-.09-.53,1.57,1.57,0,0,1-.76.21,1.1,1.1,0,0,1-1.1-1.13A1.26,1.26,0,0,1,417.61,91.09Z" fill="#0071de"/><path d="M429.78,77.61a.45.45,0,0,1,.41-.32h.37a.44.44,0,0,1,.39.25l4.56,12.68h.11l4.49-12.68a.44.44,0,0,1,.39-.25h.36a.45.45,0,0,1,.42.32l3,15.46c.07.32-.06.55-.41.55h-.92a.46.46,0,0,1-.41-.32l-2.05-11.85h-.09L436.13,93.6a.5.5,0,0,1-.39.25h-.42a.48.48,0,0,1-.39-.25l-4.28-12.15h-.09l-2,11.85a.44.44,0,0,1-.41.32h-.92c-.35,0-.48-.23-.42-.55Z" fill="#0071de"/><path d="M447.22,78a.45.45,0,0,1,.43-.44h.92A.46.46,0,0,1,449,78V93.18a.46.46,0,0,1-.44.44h-.92a.45.45,0,0,1-.43-.44Z" fill="#0071de"/></g><g id="Alicia"><path d="M342.06,61.84l9.33-20.19a.54.54,0,0,1,.51-.33h.3a.51.51,0,0,1,.51.33L362,61.84a.53.53,0,0,1-.51.78h-2.61A.86.86,0,0,1,358,62l-1.47-3.24h-9L346.05,62a.9.9,0,0,1-.87.6h-2.61A.53.53,0,0,1,342.06,61.84Zm13-6.39-3-6.6h-.09L349,55.45Z" fill="#0071de"/><path d="M363.73,42.28a.71.71,0,0,1,.66-.66h2.43a.71.71,0,0,1,.66.66V62a.69.69,0,0,1-.66.66h-2.43a.69.69,0,0,1-.66-.66Z" fill="#0071de"/><path d="M370.25,44a2.34,2.34,0,0,1,2.37-2.37A2.36,2.36,0,0,1,375,44a2.39,2.39,0,0,1-2.4,2.4A2.36,2.36,0,0,1,370.25,44Zm.54,5.43a.67.67,0,0,1,.66-.66h2.43a.67.67,0,0,1,.66.66V62a.69.69,0,0,1-.66.66h-2.43a.69.69,0,0,1-.66-.66Z" fill="#0071de"/><path d="M384.27,48.46a6.86,6.86,0,0,1,5.16,2.34c.3.3.15.69-.15,1L388,53.17c-.3.33-.63.18-.9-.09a3.78,3.78,0,0,0-2.76-1.2A3.83,3.83,0,1,0,387.27,58a.65.65,0,0,1,.87-.09l1.35,1.14c.33.3.48.63.24,1A6.2,6.2,0,0,1,384.24,63a7.25,7.25,0,1,1,0-14.49Z" fill="#0071de"/><path d="M391.43,44a2.34,2.34,0,0,1,2.37-2.37A2.36,2.36,0,0,1,396.2,44a2.39,2.39,0,0,1-2.4,2.4A2.36,2.36,0,0,1,391.43,44Zm.54,5.43a.67.67,0,0,1,.66-.66h2.43a.67.67,0,0,1,.66.66V62a.69.69,0,0,1-.66.66h-2.43A.69.69,0,0,1,392,62Z" fill="#0071de"/><path d="M403.56,53.86a10.17,10.17,0,0,1,2.67.39,2.38,2.38,0,0,0-2.61-2.61,11.59,11.59,0,0,0-3.21.51c-.45.15-.72-.18-.78-.6l-.3-1.56a.63.63,0,0,1,.45-.84,13.52,13.52,0,0,1,4.05-.69c4,0,5.91,2.25,5.91,6v7.62a.64.64,0,0,1-.72.63A2,2,0,0,1,407,61.33,6.15,6.15,0,0,1,402.72,63,4.41,4.41,0,0,1,398,58.21C398,55.75,400.05,53.86,403.56,53.86Zm.09,6.3a3,3,0,0,0,2.49-1.47v-2a5.53,5.53,0,0,0-2-.42c-1.59,0-2.46.75-2.46,2A1.83,1.83,0,0,0,403.65,60.16Z" fill="#0071de"/></g><g id="Layer_21" data-name="Layer 21"><polygon points="702.42 35.64 698.28 46.52 686.65 47.1 695.72 54.4 692.67 65.64 702.42 59.27 712.17 65.64 709.12 54.4 718.19 47.1 706.56 46.52 702.42 35.64" fill="#ffc220"/><polygon points="739.41 35.64 735.27 46.52 723.64 47.1 732.71 54.4 729.67 65.64 739.41 59.27 749.16 65.64 746.12 54.4 755.19 47.1 743.56 46.52 739.41 35.64" fill="#ffc220"/><polygon points="776.41 35.64 772.27 46.52 760.64 47.1 769.71 54.4 766.66 65.64 776.41 59.27 786.16 65.64 783.11 54.4 792.18 47.1 780.55 46.52 776.41 35.64" fill="#ffc220"/><polygon points="813.41 35.64 809.26 46.52 797.63 47.1 806.7 54.4 803.66 65.64 813.41 59.27 823.15 65.64 820.11 54.4 829.18 47.1 817.55 46.52 813.41 35.64" fill="#ffc220"/><polygon points="850.4 35.64 846.26 46.52 834.63 47.1 843.7 54.4 840.65 65.64 850.4 59.27 860.15 65.64 857.11 54.4 866.17 47.1 854.54 46.52 850.4 35.64" fill="#ffc220"/></g></g><g id="rect"><rect width="970" height="250" fill="none"/></g></g></g></g></svg>