<svg xmlns="http://www.w3.org/2000/svg" viewBox="0 0 160 600"><g id="Layer_2" data-name="Layer 2"><g id="_160x600_Reviews_Hero_G_F1" data-name="160x600_Reviews_Hero G_F1" style="isolation:isolate"><g id="Bubble"><g id="Content"><g id="BUBBLE-2" data-name="BUBBLE"><rect x="4.5" y="193.5" width="151" height="179.5" rx="20" fill="#fff"/></g><g id="I_love_that_Walmart_has_saved_me_so_much_money." data-name="I love that Walmart+ has saved me so much money."><path d="M15.55,290.25a.33.33,0,0,1,.32-.32H17a.33.33,0,0,1,.32.32V301.5a.34.34,0,0,1-.32.33H15.87a.34.34,0,0,1-.32-.33Z" fill="#091b43"/><path d="M23.84,290.3a.38.38,0,0,1,.38-.37h1a.39.39,0,0,1,.37.37v11.15a.38.38,0,0,1-.37.38h-1a.38.38,0,0,1-.38-.38Z" fill="#091b43"/><path d="M31.32,293.8a4.11,4.11,0,1,1-4,4.08A4.08,4.08,0,0,1,31.32,293.8Zm0,6.6a2.38,2.38,0,0,0,2.33-2.52,2.34,2.34,0,1,0-4.67,0A2.38,2.38,0,0,0,31.32,300.4Z" fill="#091b43"/><path d="M36,294.41c-.13-.23,0-.44.29-.44h1a.35.35,0,0,1,.34.22L39.72,299h0l2.2-4.81c.1-.22.3-.22.52-.22h.77c.29,0,.42.21.29.44l-3.4,7.4a.35.35,0,0,1-.32.2H39.7a.38.38,0,0,1-.34-.2Z" fill="#091b43"/><path d="M48.1,293.8a3.5,3.5,0,0,1,3.59,3.61,5.09,5.09,0,0,1,0,.54.36.36,0,0,1-.35.34H45.87a2.3,2.3,0,0,0,2.35,2.14,3,3,0,0,0,1.92-.66c.17-.12.32-.17.46,0l.46.72c.13.17.2.32,0,.52a4.44,4.44,0,0,1-2.9,1,4.11,4.11,0,0,1,0-8.21ZM50,297a1.85,1.85,0,0,0-1.93-1.78A2,2,0,0,0,46,297Z" fill="#091b43"/><path d="M56.67,295.42a.38.38,0,0,1-.37-.38v-.69a.35.35,0,0,1,.37-.38h.9v-2.19a.38.38,0,0,1,.37-.37h1a.36.36,0,0,1,.36.37V294h2.07a.37.37,0,0,1,.38.38V295a.39.39,0,0,1-.38.38H59.27v4.18c0,.66.43.8.94.8a2.2,2.2,0,0,0,.95-.29.29.29,0,0,1,.46.17l.3.8c.09.2,0,.34-.19.46A3.77,3.77,0,0,1,60,302a2.18,2.18,0,0,1-2.47-2.34v-4.25Z" fill="#091b43"/><path d="M63.33,290.3a.38.38,0,0,1,.38-.37h.95a.39.39,0,0,1,.37.37v4.32a3.78,3.78,0,0,1,2.28-.82c2.23,0,3,1.57,3,3.71v3.94a.38.38,0,0,1-.37.38H69a.38.38,0,0,1-.38-.38v-4c0-1.29-.54-2.05-1.56-2.05A2.34,2.34,0,0,0,65,296.56v4.89a.36.36,0,0,1-.39.38h-.93a.38.38,0,0,1-.38-.38Z" fill="#091b43"/><path d="M75,296.86a6,6,0,0,1,1.58.24c0-1.24-.6-1.8-1.58-1.8a5.55,5.55,0,0,0-1.87.37.36.36,0,0,1-.44-.32l-.16-.65a.36.36,0,0,1,.26-.46,4.83,4.83,0,0,1,2.24-.44c2.52,0,3.22,1.51,3.22,3.47v4.28a.34.34,0,0,1-.36.34,1,1,0,0,1-1-.91,3.41,3.41,0,0,1-2.46,1,2.43,2.43,0,0,1-2.54-2.62C71.88,298,73,296.86,75,296.86Zm-.26,3.76a2.43,2.43,0,0,0,1.82-.95v-1.31a3.52,3.52,0,0,0-1.43-.27c-.91,0-1.61.47-1.61,1.29A1.15,1.15,0,0,0,74.77,300.62Z" fill="#091b43"/><path d="M80,295.42a.38.38,0,0,1-.37-.38v-.69A.35.35,0,0,1,80,294h.9v-2.19a.38.38,0,0,1,.38-.37h1a.36.36,0,0,1,.35.37V294h2.08a.37.37,0,0,1,.37.38V295a.39.39,0,0,1-.37.38H82.64v4.18c0,.66.43.8.94.8a2.2,2.2,0,0,0,1-.29.29.29,0,0,1,.46.17l.31.8c.08.2,0,.34-.19.46a3.78,3.78,0,0,1-1.7.47,2.18,2.18,0,0,1-2.47-2.34v-4.25Z" fill="#091b43"/><path d="M14.44,308.83a.29.29,0,0,1,.31-.4h1.14a.35.35,0,0,1,.3.23l2.06,7.81h.07l2.77-8a.3.3,0,0,1,.29-.18h.3a.3.3,0,0,1,.29.18l2.81,8h.06l2-7.81a.35.35,0,0,1,.3-.23h1.14a.29.29,0,0,1,.31.4l-3.21,11.43a.34.34,0,0,1-.31.24h-.27a.33.33,0,0,1-.29-.19l-3-8.45h-.09l-2.94,8.45a.33.33,0,0,1-.29.19H18a.34.34,0,0,1-.31-.24Z" fill="#091b43"/><path d="M32,315.36a5.94,5.94,0,0,1,1.58.24c0-1.24-.59-1.8-1.58-1.8a5.55,5.55,0,0,0-1.87.37.36.36,0,0,1-.44-.32l-.15-.65a.35.35,0,0,1,.25-.46A4.89,4.89,0,0,1,32,312.3c2.51,0,3.21,1.51,3.21,3.47v4.28a.34.34,0,0,1-.36.34,1,1,0,0,1-1-.91,3.39,3.39,0,0,1-2.46,1,2.42,2.42,0,0,1-2.53-2.62C28.81,316.45,29.93,315.36,32,315.36Zm-.25,3.76a2.45,2.45,0,0,0,1.82-.95v-1.31a3.61,3.61,0,0,0-1.43-.27c-.92,0-1.62.47-1.62,1.29A1.15,1.15,0,0,0,31.7,319.12Z" fill="#091b43"/><path d="M37.39,308.8a.38.38,0,0,1,.38-.37h.95a.4.4,0,0,1,.37.37V320a.39.39,0,0,1-.37.38h-.95a.38.38,0,0,1-.38-.38Z" fill="#091b43"/><path d="M41.35,312.74a.34.34,0,0,1,.36-.34,1,1,0,0,1,1,.92,3.43,3.43,0,0,1,2.45-1,2.66,2.66,0,0,1,2.39,1.24,3.75,3.75,0,0,1,2.66-1.24c2.39,0,3,1.67,3,3.71V320a.37.37,0,0,1-.38.38h-1a.35.35,0,0,1-.37-.38v-4c0-1.26-.48-2-1.55-2a2.5,2.5,0,0,0-1.89.91,6.57,6.57,0,0,1,.07,1.06V320a.38.38,0,0,1-.36.38h-1a.37.37,0,0,1-.38-.38v-4c0-1.28-.46-2-1.54-2a2,2,0,0,0-1.86,1.14V320a.38.38,0,0,1-.37.38h-1a.38.38,0,0,1-.38-.38Z" fill="#091b43"/><path d="M57.89,315.36a5.94,5.94,0,0,1,1.58.24c0-1.24-.59-1.8-1.58-1.8a5.55,5.55,0,0,0-1.87.37.37.37,0,0,1-.44-.32l-.15-.65a.36.36,0,0,1,.25-.46,4.89,4.89,0,0,1,2.25-.44c2.51,0,3.21,1.51,3.21,3.47v4.28a.34.34,0,0,1-.36.34,1,1,0,0,1-1-.91,3.42,3.42,0,0,1-2.47,1,2.42,2.42,0,0,1-2.53-2.62C54.75,316.45,55.87,315.36,57.89,315.36Zm-.25,3.76a2.45,2.45,0,0,0,1.82-.95v-1.31a3.61,3.61,0,0,0-1.43-.27c-.92,0-1.62.47-1.62,1.29A1.15,1.15,0,0,0,57.64,319.12Z" fill="#091b43"/><path d="M63.28,312.74a.34.34,0,0,1,.36-.34,1,1,0,0,1,1,1A3,3,0,0,1,67,312.3c.75,0,1.69.21,1.43.73l-.41.85a.34.34,0,0,1-.47.19,1.93,1.93,0,0,0-.72-.15A2.23,2.23,0,0,0,65,315v5c0,.34-.22.38-.54.38h-.78a.38.38,0,0,1-.38-.38Z" fill="#091b43"/><path d="M69.3,313.92a.38.38,0,0,1-.37-.38v-.69a.35.35,0,0,1,.37-.38h.9v-2.19a.38.38,0,0,1,.37-.37h1a.36.36,0,0,1,.36.37v2.19H74a.37.37,0,0,1,.38.38v.69a.39.39,0,0,1-.38.38H71.9v4.18c0,.66.43.8.94.8a2.2,2.2,0,0,0,1-.29.29.29,0,0,1,.46.17l.3.8c.09.2,0,.34-.18.46a3.86,3.86,0,0,1-1.7.47,2.18,2.18,0,0,1-2.47-2.34v-4.25Z" fill="#091b43"/><path d="M79.19,315.12H76.58a.34.34,0,0,1-.33-.32v-.71a.35.35,0,0,1,.33-.33h2.61v-2.63a.33.33,0,0,1,.33-.31h.71a.32.32,0,0,1,.32.31v2.63h2.62a.33.33,0,0,1,.31.33v.71a.32.32,0,0,1-.31.32H80.55v2.6a.32.32,0,0,1-.32.31h-.71a.33.33,0,0,1-.33-.31Z" fill="#091b43"/><path d="M89.9,308.8a.38.38,0,0,1,.38-.37h1a.39.39,0,0,1,.37.37v4.32a3.78,3.78,0,0,1,2.28-.82c2.23,0,3,1.57,3,3.71V320a.38.38,0,0,1-.37.38h-1a.38.38,0,0,1-.38-.38v-4c0-1.29-.54-2.05-1.56-2.05a2.34,2.34,0,0,0-2.06,1.14V320a.36.36,0,0,1-.39.38h-.93a.38.38,0,0,1-.38-.38Z" fill="#091b43"/><path d="M101.6,315.36a5.94,5.94,0,0,1,1.58.24c0-1.24-.59-1.8-1.58-1.8a5.55,5.55,0,0,0-1.87.37.36.36,0,0,1-.44-.32l-.16-.65a.36.36,0,0,1,.26-.46,4.87,4.87,0,0,1,2.24-.44c2.52,0,3.22,1.51,3.22,3.47v4.28a.34.34,0,0,1-.36.34,1,1,0,0,1-1-.91,3.41,3.41,0,0,1-2.46,1,2.43,2.43,0,0,1-2.54-2.62C98.45,316.45,99.58,315.36,101.6,315.36Zm-.26,3.76a2.41,2.41,0,0,0,1.82-.95v-1.31a3.5,3.5,0,0,0-1.42-.27c-.92,0-1.62.47-1.62,1.29A1.15,1.15,0,0,0,101.34,319.12Z" fill="#091b43"/><path d="M106.67,319.71a.31.31,0,0,1-.14-.4l.36-.74a.35.35,0,0,1,.51-.1,3.61,3.61,0,0,0,1.95.58c.66,0,1-.32,1-.76s-.6-.87-1.68-1.36-2.13-1.19-2.13-2.49c0-1,.7-2.14,2.6-2.14a4.35,4.35,0,0,1,2.3.58.48.48,0,0,1,.17.58l-.28.54a.36.36,0,0,1-.51.15,4.18,4.18,0,0,0-1.68-.39c-.68,0-1,.34-1,.7,0,.51.56.82,1.34,1.16,1.45.61,2.53,1.14,2.53,2.6,0,1.22-1,2.29-2.8,2.29A4.51,4.51,0,0,1,106.67,319.71Z" fill="#091b43"/><path d="M14.87,338.21a.31.31,0,0,1-.14-.4l.36-.74a.35.35,0,0,1,.51-.1,3.61,3.61,0,0,0,2,.58c.67,0,1-.32,1-.76s-.6-.87-1.68-1.36-2.13-1.19-2.13-2.49c0-1,.7-2.14,2.6-2.14a4.35,4.35,0,0,1,2.3.58.48.48,0,0,1,.17.58l-.27.54a.36.36,0,0,1-.51.15,4.26,4.26,0,0,0-1.69-.39c-.68,0-1,.34-1,.7,0,.51.56.82,1.34,1.16,1.45.61,2.54,1.14,2.54,2.6,0,1.22-1.06,2.29-2.81,2.29A4.51,4.51,0,0,1,14.87,338.21Z" fill="#091b43"/><path d="M24.44,333.86a6,6,0,0,1,1.58.24c0-1.24-.6-1.8-1.58-1.8a5.55,5.55,0,0,0-1.87.37.36.36,0,0,1-.44-.32L22,331.7a.36.36,0,0,1,.26-.46,4.83,4.83,0,0,1,2.24-.44c2.52,0,3.21,1.51,3.21,3.47v4.28a.33.33,0,0,1-.35.34,1,1,0,0,1-1-.91,3.41,3.41,0,0,1-2.46,1,2.43,2.43,0,0,1-2.54-2.62C21.29,335,22.41,333.86,24.44,333.86Zm-.26,3.76a2.45,2.45,0,0,0,1.82-.95v-1.31a3.52,3.52,0,0,0-1.43-.27c-.91,0-1.61.47-1.61,1.29A1.15,1.15,0,0,0,24.18,337.62Z" fill="#091b43"/><path d="M28.79,331.41c-.14-.23,0-.44.29-.44h1a.35.35,0,0,1,.34.22L32.55,336h0l2.19-4.81c.11-.22.31-.22.53-.22h.77c.28,0,.42.21.28.44l-3.4,7.4a.35.35,0,0,1-.32.2h-.1a.38.38,0,0,1-.34-.2Z" fill="#091b43"/><path d="M40.93,330.8a3.49,3.49,0,0,1,3.58,3.61,5,5,0,0,1,0,.54.38.38,0,0,1-.36.34H38.7a2.3,2.3,0,0,0,2.35,2.14,3.05,3.05,0,0,0,1.92-.66c.17-.12.32-.17.46,0l.46.72c.13.17.2.32,0,.52a4.47,4.47,0,0,1-2.91,1,4.11,4.11,0,0,1,0-8.21Zm1.9,3.23a1.85,1.85,0,0,0-1.94-1.78,2,2,0,0,0-2.1,1.78Z" fill="#091b43"/><path d="M49.44,330.8a5.7,5.7,0,0,1,2,.41V327.3a.39.39,0,0,1,.37-.37h1a.38.38,0,0,1,.37.37v11.25a.33.33,0,0,1-.35.34,1,1,0,0,1-1-.9,3.73,3.73,0,0,1-2.5,1,3.84,3.84,0,0,1-3.59-4.11A3.88,3.88,0,0,1,49.44,330.8Zm0,6.6a2.22,2.22,0,0,0,2-1.16v-3.36a3.9,3.9,0,0,0-1.8-.46,2.38,2.38,0,0,0-2.28,2.48A2.32,2.32,0,0,0,49.48,337.4Z" fill="#091b43"/><path d="M59.25,331.24a.34.34,0,0,1,.36-.34,1,1,0,0,1,1,.92,3.43,3.43,0,0,1,2.45-1,2.69,2.69,0,0,1,2.4,1.24,3.72,3.72,0,0,1,2.65-1.24c2.39,0,3,1.67,3,3.71v3.94a.37.37,0,0,1-.38.38h-.95a.35.35,0,0,1-.37-.38v-4c0-1.26-.48-2-1.55-2a2.5,2.5,0,0,0-1.89.91,6.57,6.57,0,0,1,.07,1.06v4.06a.37.37,0,0,1-.35.38h-1a.37.37,0,0,1-.38-.38v-4c0-1.28-.46-2-1.54-2A2,2,0,0,0,61,333.56v4.89a.38.38,0,0,1-.37.38h-.95a.38.38,0,0,1-.38-.38Z" fill="#091b43"/><path d="M76.68,330.8a3.49,3.49,0,0,1,3.58,3.61,5,5,0,0,1,0,.54.38.38,0,0,1-.36.34H74.45a2.3,2.3,0,0,0,2.35,2.14,3.05,3.05,0,0,0,1.92-.66c.17-.12.32-.17.46,0l.46.72c.13.17.2.32,0,.52a4.46,4.46,0,0,1-2.9,1,4.11,4.11,0,0,1,0-8.21Zm1.9,3.23a1.85,1.85,0,0,0-1.94-1.78,2,2,0,0,0-2.1,1.78Z" fill="#091b43"/><path d="M85.47,338.21a.31.31,0,0,1-.14-.4l.36-.74a.35.35,0,0,1,.51-.1,3.61,3.61,0,0,0,2,.58c.67,0,1-.32,1-.76s-.59-.87-1.68-1.36-2.13-1.19-2.13-2.49c0-1,.7-2.14,2.6-2.14a4.35,4.35,0,0,1,2.3.58.48.48,0,0,1,.17.58l-.27.54a.36.36,0,0,1-.51.15,4.23,4.23,0,0,0-1.69-.39c-.68,0-1,.34-1,.7,0,.51.56.82,1.34,1.16,1.45.61,2.54,1.14,2.54,2.6,0,1.22-1.06,2.29-2.81,2.29A4.51,4.51,0,0,1,85.47,338.21Z" fill="#091b43"/><path d="M96,330.8a4.11,4.11,0,1,1-4,4.08A4.07,4.07,0,0,1,96,330.8Zm0,6.6a2.37,2.37,0,0,0,2.32-2.52,2.34,2.34,0,1,0-4.67,0A2.38,2.38,0,0,0,96,337.4Z" fill="#091b43"/><path d="M15.19,349.74a.34.34,0,0,1,.36-.34,1,1,0,0,1,1,.92,3.4,3.4,0,0,1,2.44-1,2.69,2.69,0,0,1,2.4,1.24,3.74,3.74,0,0,1,2.65-1.24c2.4,0,3,1.67,3,3.71V357a.37.37,0,0,1-.37.38h-.95a.36.36,0,0,1-.38-.38v-4c0-1.26-.47-2-1.54-2a2.5,2.5,0,0,0-1.89.91,6.57,6.57,0,0,1,.07,1.06V357a.38.38,0,0,1-.36.38h-1a.37.37,0,0,1-.37-.38v-4c0-1.28-.46-2-1.55-2a2,2,0,0,0-1.85,1.14V357a.39.39,0,0,1-.37.38h-1a.38.38,0,0,1-.37-.38Z" fill="#091b43"/><path d="M29.1,349.85a.4.4,0,0,1,.37-.38h1a.39.39,0,0,1,.38.38V354c0,1.29.52,1.87,1.53,1.87a2,2,0,0,0,1.83-1.29v-4.76c0-.33.15-.38.44-.38h.87a.41.41,0,0,1,.39.38v7.2a.33.33,0,0,1-.36.34,1,1,0,0,1-1-.91,3.19,3.19,0,0,1-2.45,1c-2.35,0-2.92-1.54-2.92-3.6Z" fill="#091b43"/><path d="M41.61,349.3a3.44,3.44,0,0,1,2.85,1.36.38.38,0,0,1-.07.56l-.61.56c-.22.21-.37.05-.51-.08a2.34,2.34,0,0,0-1.61-.78,2.49,2.49,0,0,0,0,5,2.43,2.43,0,0,0,1.85-1,.37.37,0,0,1,.53,0l.52.43c.19.17.28.36.14.56a3.59,3.59,0,0,1-3.06,1.63,4,4,0,0,1-4-4.09A4.08,4.08,0,0,1,41.61,349.3Z" fill="#091b43"/><path d="M46.27,345.8a.38.38,0,0,1,.37-.37h1a.4.4,0,0,1,.38.37v4.32a3.71,3.71,0,0,1,2.27-.82c2.23,0,3,1.57,3,3.71V357a.39.39,0,0,1-.38.38H52a.38.38,0,0,1-.37-.38v-4c0-1.29-.55-2.05-1.57-2.05A2.32,2.32,0,0,0,48,352.06V357a.37.37,0,0,1-.4.38h-.93a.38.38,0,0,1-.37-.38Z" fill="#091b43"/><path d="M59.32,349.74a.34.34,0,0,1,.36-.34,1,1,0,0,1,1,.92,3.43,3.43,0,0,1,2.45-1,2.69,2.69,0,0,1,2.39,1.24,3.74,3.74,0,0,1,2.65-1.24c2.4,0,3,1.67,3,3.71V357a.37.37,0,0,1-.38.38h-1a.35.35,0,0,1-.37-.38v-4c0-1.26-.48-2-1.55-2a2.5,2.5,0,0,0-1.89.91,6.57,6.57,0,0,1,.07,1.06V357a.38.38,0,0,1-.36.38h-1a.37.37,0,0,1-.37-.38v-4c0-1.28-.46-2-1.55-2A2,2,0,0,0,61,352.06V357a.39.39,0,0,1-.37.38h-1a.38.38,0,0,1-.37-.38Z" fill="#091b43"/><path d="M76.83,349.3a4.11,4.11,0,1,1-4,4.08A4.08,4.08,0,0,1,76.83,349.3Zm0,6.6a2.38,2.38,0,0,0,2.33-2.52,2.34,2.34,0,1,0-4.68,0A2.38,2.38,0,0,0,76.83,355.9Z" fill="#091b43"/><path d="M82.54,349.74a.34.34,0,0,1,.36-.34,1,1,0,0,1,1,1,3.61,3.61,0,0,1,2.6-1.06c2.4,0,3,1.67,3,3.71V357a.38.38,0,0,1-.37.38h-1a.38.38,0,0,1-.38-.38v-4c0-1.28-.52-2-1.54-2a2.39,2.39,0,0,0-2.08,1.14V357c0,.26-.13.38-.46.38h-.86a.38.38,0,0,1-.38-.38Z" fill="#091b43"/><path d="M95.12,349.3a3.5,3.5,0,0,1,3.59,3.61c0,.13,0,.4,0,.54a.38.38,0,0,1-.36.34H92.9a2.28,2.28,0,0,0,2.34,2.14,3,3,0,0,0,1.92-.66c.17-.12.33-.17.46,0l.46.72c.14.17.2.32,0,.52a4.47,4.47,0,0,1-2.91,1,4.11,4.11,0,0,1,0-8.21ZM97,352.53a1.86,1.86,0,0,0-1.94-1.78A2,2,0,0,0,93,352.53Z" fill="#091b43"/><path d="M99.41,350a.35.35,0,0,1,.34-.51h1.12a.4.4,0,0,1,.34.22l1.82,5.39h0l2.21-5.39c.07-.18.22-.22.41-.22h1a.34.34,0,0,1,.34.51l-4.79,11.15a.4.4,0,0,1-.32.24h-1.09a.35.35,0,0,1-.34-.53l1.58-3.79Z" fill="#091b43"/><path d="M109.42,355a1.22,1.22,0,1,1-1.19,1.22A1.21,1.21,0,0,1,109.42,355Z" fill="#091b43"/></g><g id="Fort_Worth_TX" data-name="Fort Worth, TX"><path d="M14.61,261.12a.28.28,0,0,1,.28-.28h6a.28.28,0,0,1,.29.28V262a.29.29,0,0,1-.29.29H16.15v3.46h4a.3.3,0,0,1,.28.29v.82a.3.3,0,0,1-.28.29h-4v3.94a.3.3,0,0,1-.28.29h-1a.29.29,0,0,1-.28-.29Z" fill="#0071de"/><path d="M25.25,264.26a3.62,3.62,0,1,1-3.54,3.6A3.6,3.6,0,0,1,25.25,264.26Zm0,5.82a2.1,2.1,0,0,0,2.06-2.22,2.07,2.07,0,1,0-4.13,0A2.11,2.11,0,0,0,25.25,270.08Z" fill="#0071de"/><path d="M30.2,264.65a.29.29,0,0,1,.31-.3.91.91,0,0,1,.92.87,2.63,2.63,0,0,1,2-1c.66,0,1.49.18,1.26.64l-.36.75a.3.3,0,0,1-.42.17,1.68,1.68,0,0,0-.63-.14,2,2,0,0,0-1.63.93V271c0,.3-.2.33-.48.33h-.69a.33.33,0,0,1-.33-.33Z" fill="#0071de"/><path d="M35.77,265.68a.33.33,0,0,1-.33-.33v-.61a.31.31,0,0,1,.33-.33h.8v-1.94a.33.33,0,0,1,.33-.33h.85a.32.32,0,0,1,.32.33v1.94H39.9a.32.32,0,0,1,.33.33v.61a.34.34,0,0,1-.33.33H38.07v3.69c0,.59.37.71.82.71a1.9,1.9,0,0,0,.84-.26.26.26,0,0,1,.41.15l.27.71c.07.18,0,.3-.17.4a3.26,3.26,0,0,1-1.5.42,1.91,1.91,0,0,1-2.17-2.07v-3.75Z" fill="#0071de"/><path d="M44.44,261.2a.26.26,0,0,1,.27-.36h1a.3.3,0,0,1,.27.21l1.81,6.88h.06l2.45-7.08a.26.26,0,0,1,.25-.16h.27a.27.27,0,0,1,.26.16l2.47,7.08h.06l1.79-6.88a.3.3,0,0,1,.27-.21h1a.26.26,0,0,1,.27.36l-2.83,10.08a.29.29,0,0,1-.27.21h-.24a.29.29,0,0,1-.26-.17l-2.64-7.45h-.07L48,271.32a.29.29,0,0,1-.25.17h-.24a.29.29,0,0,1-.27-.21Z" fill="#0071de"/><path d="M60.77,264.26a3.62,3.62,0,1,1-3.54,3.6A3.59,3.59,0,0,1,60.77,264.26Zm0,5.82a2.1,2.1,0,0,0,2-2.22,2.06,2.06,0,1,0-4.12,0A2.11,2.11,0,0,0,60.77,270.08Z" fill="#0071de"/><path d="M65.71,264.65a.29.29,0,0,1,.32-.3.9.9,0,0,1,.91.87,2.64,2.64,0,0,1,2.06-1c.66,0,1.48.18,1.26.64l-.36.75a.3.3,0,0,1-.42.17,1.73,1.73,0,0,0-.63-.14,2,2,0,0,0-1.64.93V271c0,.3-.19.33-.48.33H66a.33.33,0,0,1-.33-.33Z" fill="#0071de"/><path d="M71.28,265.68a.33.33,0,0,1-.33-.33v-.61a.31.31,0,0,1,.33-.33h.8v-1.94a.33.33,0,0,1,.33-.33h.85a.32.32,0,0,1,.32.33v1.94h1.83a.32.32,0,0,1,.33.33v.61a.34.34,0,0,1-.33.33H73.58v3.69c0,.59.37.71.82.71a1.9,1.9,0,0,0,.84-.26.26.26,0,0,1,.41.15l.27.71c.07.18,0,.3-.17.4a3.26,3.26,0,0,1-1.5.42,1.91,1.91,0,0,1-2.17-2.07v-3.75Z" fill="#0071de"/><path d="M77,261.17a.34.34,0,0,1,.33-.33h.84a.35.35,0,0,1,.33.33V265a3.38,3.38,0,0,1,2-.72c2,0,2.69,1.38,2.69,3.27V271a.35.35,0,0,1-.33.33H82a.33.33,0,0,1-.33-.33V267.5c0-1.14-.48-1.82-1.38-1.82a2.07,2.07,0,0,0-1.82,1V271a.32.32,0,0,1-.34.33h-.83A.33.33,0,0,1,77,271Z" fill="#0071de"/><path d="M85.8,269.34c.75,0,1.25.69,1.25,1.73A3.12,3.12,0,0,1,86,273.45a.19.19,0,0,1-.29,0l-.31-.3c-.09-.1,0-.21.06-.3a2.12,2.12,0,0,0,.76-1.39,1.27,1.27,0,0,0,0-.32.93.93,0,0,1-.51.15.86.86,0,0,1-.85-.9A1,1,0,0,1,85.8,269.34Z" fill="#0071de"/><path d="M94.25,262.25H91.8a.29.29,0,0,1-.28-.29v-.84a.28.28,0,0,1,.28-.28h6.45a.28.28,0,0,1,.29.28V262a.29.29,0,0,1-.29.29H95.81v8.8a.3.3,0,0,1-.29.29h-1a.3.3,0,0,1-.28-.29Z" fill="#0071de"/><path d="M102.47,266l-3-4.69a.27.27,0,0,1,.26-.42H101a.33.33,0,0,1,.26.13l2.08,3.59h0l2.14-3.59a.27.27,0,0,1,.24-.13h1.28a.27.27,0,0,1,.25.42l-3,4.69,3.08,5a.27.27,0,0,1-.26.42H106a.32.32,0,0,1-.26-.14l-2.34-3.84h-.06l-2.31,3.84a.31.31,0,0,1-.25.14H99.65a.27.27,0,0,1-.27-.42Z" fill="#0071de"/></g><g id="Michelle"><path d="M15.56,237.82a.34.34,0,0,1,.36-.3h.32a.36.36,0,0,1,.34.2l4.4,9.44H21l4.4-9.44a.34.34,0,0,1,.34-.2h.32a.34.34,0,0,1,.36.3l2.36,13.44a.35.35,0,0,1-.36.46H26.64a.43.43,0,0,1-.38-.3l-1.18-7.58H25l-3.5,7.86a.34.34,0,0,1-.34.22h-.36a.36.36,0,0,1-.34-.22l-3.54-7.86h-.06l-1.16,7.58a.39.39,0,0,1-.36.3h-1.8a.37.37,0,0,1-.38-.46Z" fill="#0071de"/><path d="M30.38,239.3A1.56,1.56,0,0,1,32,237.72a1.58,1.58,0,0,1,1.6,1.58,1.59,1.59,0,0,1-1.6,1.6A1.58,1.58,0,0,1,30.38,239.3Zm.36,3.62a.44.44,0,0,1,.44-.44H32.8a.44.44,0,0,1,.44.44v8.36a.46.46,0,0,1-.44.44H31.18a.46.46,0,0,1-.44-.44Z" fill="#0071de"/><path d="M39.67,242.28a4.58,4.58,0,0,1,3.44,1.56c.2.2.1.46-.1.66l-.84.92c-.2.22-.42.12-.6-.06a2.52,2.52,0,0,0-1.84-.8,2.55,2.55,0,1,0,1.94,4.08.43.43,0,0,1,.58-.06l.9.76c.22.2.32.42.16.66a4.14,4.14,0,0,1-3.66,1.94,4.83,4.83,0,1,1,0-9.66Z" fill="#0071de"/><path d="M44.75,238.16a.47.47,0,0,1,.44-.44h1.62a.46.46,0,0,1,.44.44v4.9a3.59,3.59,0,0,1,2.36-.78c2.94,0,3.74,2,3.74,4.36v4.64a.46.46,0,0,1-.44.44H51.29a.44.44,0,0,1-.44-.44v-4.66c0-1.28-.58-2.06-1.68-2.06a1.91,1.91,0,0,0-1.92,1.62v5.1c0,.26-.12.44-.48.44H45.19a.46.46,0,0,1-.44-.44Z" fill="#0071de"/><path d="M59.54,242.28a4.14,4.14,0,0,1,4.24,4.28c0,.14,0,.46,0,.6a.47.47,0,0,1-.44.42H57.38a2.22,2.22,0,0,0,2.3,2.14,3.06,3.06,0,0,0,2-.68c.22-.18.46-.2.6,0l.78,1a.39.39,0,0,1,0,.6,5.22,5.22,0,0,1-3.44,1.26,4.83,4.83,0,0,1,0-9.66Zm1.72,3.66a1.69,1.69,0,0,0-1.78-1.6,1.83,1.83,0,0,0-2,1.6Z" fill="#0071de"/><path d="M65.36,238.16a.47.47,0,0,1,.44-.44h1.62a.47.47,0,0,1,.44.44v13.12a.46.46,0,0,1-.44.44H65.8a.46.46,0,0,1-.44-.44Z" fill="#0071de"/><path d="M70,238.16a.47.47,0,0,1,.44-.44h1.62a.47.47,0,0,1,.44.44v13.12a.46.46,0,0,1-.44.44H70.45a.46.46,0,0,1-.44-.44Z" fill="#0071de"/><path d="M78.78,242.28A4.14,4.14,0,0,1,83,246.56c0,.14,0,.46,0,.6a.47.47,0,0,1-.44.42H76.62a2.22,2.22,0,0,0,2.3,2.14,3.06,3.06,0,0,0,2-.68c.22-.18.46-.2.6,0l.78,1a.39.39,0,0,1,0,.6,5.22,5.22,0,0,1-3.44,1.26,4.83,4.83,0,0,1,0-9.66Zm1.72,3.66a1.69,1.69,0,0,0-1.78-1.6,1.83,1.83,0,0,0-2,1.6Z" fill="#0071de"/></g><g id="Layer_20" data-name="Layer 20"><polygon points="21.51 208.64 19.43 214.08 13.62 214.37 18.16 218.02 16.63 223.64 21.51 220.46 26.38 223.64 24.86 218.02 29.39 214.37 23.58 214.08 21.51 208.64" fill="#ffc220"/><polygon points="40.01 208.64 37.93 214.08 32.12 214.37 36.65 218.02 35.13 223.64 40.01 220.46 44.88 223.64 43.36 218.02 47.89 214.37 42.08 214.08 40.01 208.64" fill="#ffc220"/><polygon points="58.5 208.64 56.43 214.08 50.62 214.37 55.15 218.02 53.63 223.64 58.5 220.46 63.38 223.64 61.85 218.02 66.39 214.37 60.57 214.08 58.5 208.64" fill="#ffc220"/><polygon points="77 208.64 74.93 214.08 69.11 214.37 73.65 218.02 72.13 223.64 77 220.46 81.87 223.64 80.35 218.02 84.89 214.37 79.07 214.08 77 208.64" fill="#ffc220"/><polygon points="95.5 208.64 93.43 214.08 87.61 214.37 92.15 218.02 90.63 223.64 95.5 220.46 100.37 223.64 98.85 218.02 103.39 214.37 97.57 214.08 95.5 208.64" fill="#ffc220"/></g></g></g><g id="rect"><rect width="160" height="600" fill="none"/></g></g></g></svg>