<svg xmlns="http://www.w3.org/2000/svg" viewBox="0 0 300 250"><g id="Layer_2" data-name="Layer 2"><g id="Bubble"><g id="Content"><g id="BUBBLE-2" data-name="BUBBLE"><rect x="8.5" y="117" width="282.5" height="103.5" rx="30" fill="#fff"/></g><g id="Walmart_is_very_convenient_and_saves_busy_parents_lots_of_time" data-name="Walmart+ is very convenient and saves busy parents lots of time"><path d="M26.44,172.31a.31.31,0,0,1,.32-.43H28a.38.38,0,0,1,.33.25l2.18,8.29h.08l2.94-8.52a.33.33,0,0,1,.31-.2h.32a.33.33,0,0,1,.31.2l3,8.52h.07l2.15-8.29a.38.38,0,0,1,.33-.25h1.21a.31.31,0,0,1,.32.43l-3.41,12.14a.35.35,0,0,1-.33.26h-.28a.34.34,0,0,1-.31-.2l-3.18-9H33.9l-3.13,9a.33.33,0,0,1-.3.2h-.29a.35.35,0,0,1-.33-.26Z" fill="#091b43"/><path d="M45.05,179.25a6.56,6.56,0,0,1,1.68.25c0-1.32-.64-1.91-1.68-1.91a5.77,5.77,0,0,0-2,.4.39.39,0,0,1-.47-.35l-.16-.68a.37.37,0,0,1,.27-.49,5,5,0,0,1,2.38-.47c2.68,0,3.42,1.61,3.42,3.68v4.56a.36.36,0,0,1-.38.36,1.06,1.06,0,0,1-1.1-1,3.59,3.59,0,0,1-2.62,1.1,2.57,2.57,0,0,1-2.7-2.78C41.7,180.41,42.9,179.25,45.05,179.25Zm-.28,4a2.56,2.56,0,0,0,1.94-1v-1.39a3.85,3.85,0,0,0-1.52-.29c-1,0-1.72.51-1.72,1.37A1.22,1.22,0,0,0,44.77,183.24Z" fill="#091b43"/><path d="M50.83,172.28a.41.41,0,0,1,.4-.4h1a.42.42,0,0,1,.39.4v11.85a.41.41,0,0,1-.39.4h-1a.41.41,0,0,1-.4-.4Z" fill="#091b43"/><path d="M55,176.47a.35.35,0,0,1,.38-.36,1,1,0,0,1,1.08,1A3.64,3.64,0,0,1,59.1,176a2.86,2.86,0,0,1,2.55,1.32A3.94,3.94,0,0,1,64.47,176c2.55,0,3.18,1.77,3.18,3.94v4.19a.4.4,0,0,1-.4.4h-1a.39.39,0,0,1-.4-.4v-4.27c0-1.33-.51-2.15-1.64-2.15a2.6,2.6,0,0,0-2,1,7.37,7.37,0,0,1,.07,1.12v4.32a.4.4,0,0,1-.38.4h-1a.39.39,0,0,1-.39-.4v-4.27c0-1.35-.49-2.15-1.65-2.15a2.15,2.15,0,0,0-2,1.21v5.21a.41.41,0,0,1-.39.4h-1a.41.41,0,0,1-.39-.4Z" fill="#091b43"/><path d="M72.62,179.25a6.56,6.56,0,0,1,1.68.25c0-1.32-.64-1.91-1.68-1.91a5.77,5.77,0,0,0-2,.4.39.39,0,0,1-.47-.35L70,177a.37.37,0,0,1,.27-.49,5,5,0,0,1,2.38-.47c2.68,0,3.42,1.61,3.42,3.68v4.56a.36.36,0,0,1-.38.36,1.06,1.06,0,0,1-1.1-1,3.59,3.59,0,0,1-2.62,1.1,2.57,2.57,0,0,1-2.7-2.78C69.27,180.41,70.47,179.25,72.62,179.25Zm-.27,4a2.56,2.56,0,0,0,1.93-1v-1.39a3.85,3.85,0,0,0-1.52-.29c-1,0-1.72.51-1.72,1.37A1.23,1.23,0,0,0,72.35,183.24Z" fill="#091b43"/><path d="M78.34,176.47a.36.36,0,0,1,.38-.36,1.1,1.1,0,0,1,1.11,1A3.17,3.17,0,0,1,82.3,176c.8,0,1.79.21,1.52.78l-.44.9a.36.36,0,0,1-.5.2,1.94,1.94,0,0,0-.76-.17,2.38,2.38,0,0,0-2,1.12v5.3c0,.36-.23.4-.58.4h-.83a.41.41,0,0,1-.4-.4Z" fill="#091b43"/><path d="M84.74,177.71a.4.4,0,0,1-.4-.39v-.74a.38.38,0,0,1,.4-.4h1v-2.33a.4.4,0,0,1,.4-.4h1a.38.38,0,0,1,.38.4v2.33h2.21a.39.39,0,0,1,.4.4v.74a.41.41,0,0,1-.4.39H87.5v4.45c0,.7.46.85,1,.85a2.34,2.34,0,0,0,1-.31.32.32,0,0,1,.49.18l.32.85c.09.22,0,.36-.2.49a3.89,3.89,0,0,1-1.8.5,2.31,2.31,0,0,1-2.62-2.49v-4.52Z" fill="#091b43"/><path d="M95.26,179H92.47a.36.36,0,0,1-.34-.35v-.76a.35.35,0,0,1,.34-.34h2.79v-2.8a.33.33,0,0,1,.34-.32h.76a.33.33,0,0,1,.34.32v2.8h2.78a.34.34,0,0,1,.33.34v.76a.35.35,0,0,1-.33.35H96.7v2.76a.34.34,0,0,1-.34.33H95.6a.34.34,0,0,1-.34-.33Z" fill="#091b43"/><path d="M106.35,173.18a1.2,1.2,0,0,1,1.19-1.23,1.22,1.22,0,1,1,0,2.44A1.19,1.19,0,0,1,106.35,173.18Zm.29,3.4a.41.41,0,0,1,.4-.4h1a.42.42,0,0,1,.39.4v7.55a.41.41,0,0,1-.39.4h-1a.41.41,0,0,1-.4-.4Z" fill="#091b43"/><path d="M110.45,183.88a.33.33,0,0,1-.14-.44l.37-.78a.38.38,0,0,1,.55-.1,3.85,3.85,0,0,0,2.07.61c.71,0,1.11-.34,1.11-.81s-.64-.92-1.79-1.45-2.26-1.26-2.26-2.64c0-1,.74-2.27,2.76-2.27a4.66,4.66,0,0,1,2.44.61.5.5,0,0,1,.18.62l-.29.57a.39.39,0,0,1-.54.17,4.24,4.24,0,0,0-1.79-.42c-.72,0-1.06.36-1.06.74,0,.54.59.87,1.42,1.23,1.54.65,2.7,1.21,2.7,2.77,0,1.3-1.12,2.43-3,2.43A4.91,4.91,0,0,1,110.45,183.88Z" fill="#091b43"/><path d="M121.16,176.65c-.14-.25,0-.47.31-.47h1.1a.36.36,0,0,1,.36.23l2.23,5.12h0l2.33-5.12c.11-.23.33-.23.56-.23h.82c.3,0,.45.22.3.47l-3.61,7.86a.36.36,0,0,1-.34.21h-.11a.39.39,0,0,1-.36-.21Z" fill="#091b43"/><path d="M134.06,176a3.72,3.72,0,0,1,3.82,3.83c0,.14,0,.43,0,.58a.4.4,0,0,1-.38.36H131.7a2.43,2.43,0,0,0,2.49,2.27,3.22,3.22,0,0,0,2-.7c.18-.13.35-.18.49,0l.49.75c.14.18.21.35,0,.56a4.74,4.74,0,0,1-3.09,1,4.36,4.36,0,0,1,0-8.72Zm2,3.43a2,2,0,0,0-2.06-1.9,2.11,2.11,0,0,0-2.24,1.9Z" fill="#091b43"/><path d="M139.59,176.47a.36.36,0,0,1,.38-.36,1.09,1.09,0,0,1,1.1,1,3.22,3.22,0,0,1,2.48-1.15c.79,0,1.79.21,1.52.78l-.44.9a.36.36,0,0,1-.5.2,1.94,1.94,0,0,0-.76-.17,2.38,2.38,0,0,0-2,1.12v5.3c0,.36-.24.4-.58.4H140a.41.41,0,0,1-.4-.4Z" fill="#091b43"/><path d="M145.54,176.72a.37.37,0,0,1,.36-.54h1.19a.41.41,0,0,1,.36.23l1.94,5.73h0l2.35-5.73c.07-.2.23-.23.43-.23h1.12a.36.36,0,0,1,.37.54l-5.1,11.85a.42.42,0,0,1-.34.26h-1.16a.38.38,0,0,1-.36-.56l1.68-4Z" fill="#091b43"/><path d="M162.68,176a3.69,3.69,0,0,1,3,1.44.42.42,0,0,1-.07.6l-.65.6c-.24.21-.4.05-.55-.1a2.52,2.52,0,0,0-1.71-.83,2.65,2.65,0,0,0-.06,5.3,2.58,2.58,0,0,0,2-1,.39.39,0,0,1,.56,0l.56.45c.2.18.29.38.15.6a3.82,3.82,0,0,1-3.26,1.73,4.25,4.25,0,0,1-4.26-4.35A4.33,4.33,0,0,1,162.68,176Z" fill="#091b43"/><path d="M171.27,176a4.36,4.36,0,1,1-4.27,4.33A4.33,4.33,0,0,1,171.27,176Zm0,7a2.53,2.53,0,0,0,2.47-2.68,2.49,2.49,0,1,0-5,0A2.54,2.54,0,0,0,171.27,183Z" fill="#091b43"/><path d="M177.34,176.47a.35.35,0,0,1,.37-.36,1.06,1.06,0,0,1,1.09,1,3.84,3.84,0,0,1,2.76-1.12c2.55,0,3.24,1.77,3.24,3.94v4.19a.42.42,0,0,1-.4.4h-1a.41.41,0,0,1-.4-.4v-4.27c0-1.35-.56-2.15-1.64-2.15a2.58,2.58,0,0,0-2.21,1.21v5.21c0,.27-.14.4-.49.4h-.92a.41.41,0,0,1-.39-.4Z" fill="#091b43"/><path d="M186.15,176.65c-.14-.25,0-.47.31-.47h1.1a.36.36,0,0,1,.36.23l2.23,5.12h0l2.33-5.12c.11-.23.33-.23.56-.23h.82c.3,0,.45.22.3.47l-3.61,7.86a.36.36,0,0,1-.34.21h-.11a.39.39,0,0,1-.36-.21Z" fill="#091b43"/><path d="M199.05,176a3.72,3.72,0,0,1,3.82,3.83c0,.14,0,.43,0,.58a.4.4,0,0,1-.38.36h-5.76a2.43,2.43,0,0,0,2.49,2.27,3.22,3.22,0,0,0,2-.7c.18-.13.34-.18.49,0l.49.75c.14.18.21.35,0,.56a4.76,4.76,0,0,1-3.09,1,4.36,4.36,0,0,1,0-8.72Zm2,3.43a2,2,0,0,0-2.06-1.9,2.11,2.11,0,0,0-2.24,1.9Z" fill="#091b43"/><path d="M204.58,176.47a.36.36,0,0,1,.38-.36,1.06,1.06,0,0,1,1.09,1,3.84,3.84,0,0,1,2.76-1.12c2.55,0,3.23,1.77,3.23,3.94v4.19a.41.41,0,0,1-.39.4h-1a.41.41,0,0,1-.39-.4v-4.27c0-1.35-.56-2.15-1.65-2.15a2.57,2.57,0,0,0-2.2,1.21v5.21c0,.27-.14.4-.49.4H205a.41.41,0,0,1-.4-.4Z" fill="#091b43"/><path d="M214,173.18a1.2,1.2,0,0,1,1.2-1.23,1.22,1.22,0,1,1,0,2.44A1.2,1.2,0,0,1,214,173.18Zm.29,3.4a.41.41,0,0,1,.4-.4h1a.43.43,0,0,1,.4.4v7.55a.42.42,0,0,1-.4.4h-1a.41.41,0,0,1-.4-.4Z" fill="#091b43"/><path d="M222.11,176a3.72,3.72,0,0,1,3.81,3.83c0,.14,0,.43,0,.58a.38.38,0,0,1-.38.36h-5.76a2.43,2.43,0,0,0,2.49,2.27,3.27,3.27,0,0,0,2.05-.7c.18-.13.34-.18.48,0l.49.75c.15.18.22.35,0,.56a4.76,4.76,0,0,1-3.09,1,4.36,4.36,0,0,1,0-8.72Zm2,3.43a2,2,0,0,0-2.06-1.9,2.12,2.12,0,0,0-2.24,1.9Z" fill="#091b43"/><path d="M227.64,176.47a.35.35,0,0,1,.38-.36,1.06,1.06,0,0,1,1.08,1,3.86,3.86,0,0,1,2.77-1.12c2.54,0,3.23,1.77,3.23,3.94v4.19a.42.42,0,0,1-.4.4h-1a.41.41,0,0,1-.4-.4v-4.27c0-1.35-.56-2.15-1.64-2.15a2.58,2.58,0,0,0-2.21,1.21v5.21c0,.27-.14.4-.48.4H228a.41.41,0,0,1-.4-.4Z" fill="#091b43"/><path d="M237,177.71a.4.4,0,0,1-.4-.39v-.74a.38.38,0,0,1,.4-.4h1v-2.33a.4.4,0,0,1,.4-.4h1a.38.38,0,0,1,.37.4v2.33h2.21a.39.39,0,0,1,.4.4v.74a.41.41,0,0,1-.4.39h-2.21v4.45c0,.7.46.85,1,.85a2.34,2.34,0,0,0,1-.31.32.32,0,0,1,.49.18l.32.85c.09.22,0,.36-.2.49a3.89,3.89,0,0,1-1.8.5,2.31,2.31,0,0,1-2.62-2.49v-4.52Z" fill="#091b43"/><path d="M250.91,179.25a6.46,6.46,0,0,1,1.68.25c0-1.32-.63-1.91-1.68-1.91a5.77,5.77,0,0,0-2,.4c-.25,0-.41-.11-.47-.35l-.16-.68a.37.37,0,0,1,.27-.49,5,5,0,0,1,2.38-.47c2.68,0,3.42,1.61,3.42,3.68v4.56a.36.36,0,0,1-.38.36,1.06,1.06,0,0,1-1.1-1,3.59,3.59,0,0,1-2.62,1.1,2.57,2.57,0,0,1-2.69-2.78C247.57,180.41,248.76,179.25,250.91,179.25Zm-.27,4a2.56,2.56,0,0,0,1.93-1v-1.39a3.85,3.85,0,0,0-1.52-.29c-1,0-1.71.51-1.71,1.37A1.22,1.22,0,0,0,250.64,183.24Z" fill="#091b43"/><path d="M256.64,176.47a.35.35,0,0,1,.38-.36,1.06,1.06,0,0,1,1.08,1,3.84,3.84,0,0,1,2.76-1.12c2.55,0,3.24,1.77,3.24,3.94v4.19a.42.42,0,0,1-.4.4h-1a.41.41,0,0,1-.4-.4v-4.27c0-1.35-.56-2.15-1.64-2.15a2.58,2.58,0,0,0-2.21,1.21v5.21c0,.27-.14.4-.48.4H257a.41.41,0,0,1-.39-.4Z" fill="#091b43"/><path d="M269.88,176a6.09,6.09,0,0,1,2.09.43v-4.15a.43.43,0,0,1,.4-.4h1a.41.41,0,0,1,.4.4v12a.35.35,0,0,1-.38.36,1.06,1.06,0,0,1-1.1-1,4,4,0,0,1-2.66,1.08c-2.2,0-3.81-2-3.81-4.37A4.12,4.12,0,0,1,269.88,176Zm0,7a2.38,2.38,0,0,0,2.07-1.23V178.2a4.13,4.13,0,0,0-1.91-.49,2.53,2.53,0,0,0-2.42,2.64A2.46,2.46,0,0,0,269.92,183Z" fill="#091b43"/><path d="M26.89,203.3a.35.35,0,0,1-.15-.44l.38-.77a.38.38,0,0,1,.55-.11,3.85,3.85,0,0,0,2.07.61c.71,0,1.1-.34,1.1-.81s-.63-.92-1.78-1.45-2.26-1.26-2.26-2.63c0-1,.74-2.28,2.76-2.28A4.55,4.55,0,0,1,32,196a.48.48,0,0,1,.18.61l-.29.58a.39.39,0,0,1-.54.16,4.39,4.39,0,0,0-1.79-.42c-.72,0-1.06.37-1.06.74,0,.55.59.87,1.42,1.23,1.54.65,2.7,1.21,2.7,2.77,0,1.3-1.12,2.44-3,2.44A4.89,4.89,0,0,1,26.89,203.3Z" fill="#091b43"/><path d="M37.06,198.67a6.23,6.23,0,0,1,1.68.26c0-1.32-.63-1.92-1.68-1.92a5.83,5.83,0,0,0-2,.4c-.25.05-.41-.11-.47-.35l-.16-.68a.38.38,0,0,1,.27-.49,5.23,5.23,0,0,1,2.39-.47c2.67,0,3.41,1.61,3.41,3.69v4.55a.35.35,0,0,1-.38.36,1.06,1.06,0,0,1-1.1-1,3.57,3.57,0,0,1-2.62,1.11,2.58,2.58,0,0,1-2.69-2.78C33.72,199.83,34.91,198.67,37.06,198.67Zm-.27,4a2.57,2.57,0,0,0,1.93-1v-1.39A3.85,3.85,0,0,0,37.2,200c-1,0-1.71.51-1.71,1.38A1.22,1.22,0,0,0,36.79,202.67Z" fill="#091b43"/><path d="M41.69,196.07c-.15-.25,0-.47.3-.47h1.1a.37.37,0,0,1,.37.24L45.68,201h0L48,195.84c.11-.24.33-.24.56-.24h.82c.31,0,.45.22.31.47l-3.62,7.86a.36.36,0,0,1-.34.22h-.11a.39.39,0,0,1-.36-.22Z" fill="#091b43"/><path d="M54.59,195.42a3.72,3.72,0,0,1,3.81,3.83,5.65,5.65,0,0,1,0,.58.39.39,0,0,1-.38.36H52.22a2.44,2.44,0,0,0,2.49,2.28,3.22,3.22,0,0,0,2-.71c.18-.12.35-.18.49,0l.49.76c.14.18.22.34,0,.56a4.77,4.77,0,0,1-3.09,1,4.37,4.37,0,0,1,0-8.73Zm2,3.43A2,2,0,0,0,54.55,197a2.12,2.12,0,0,0-2.24,1.89Z" fill="#091b43"/><path d="M59.77,203.3a.35.35,0,0,1-.14-.44l.38-.77a.37.37,0,0,1,.54-.11,3.89,3.89,0,0,0,2.08.61c.7,0,1.1-.34,1.1-.81s-.63-.92-1.79-1.45-2.26-1.26-2.26-2.63c0-1,.74-2.28,2.77-2.28a4.53,4.53,0,0,1,2.43.62.48.48,0,0,1,.18.61l-.28.58a.4.4,0,0,1-.55.16,4.31,4.31,0,0,0-1.78-.42c-.73,0-1.07.37-1.07.74,0,.55.6.87,1.43,1.23,1.53.65,2.69,1.21,2.69,2.77,0,1.3-1.12,2.44-3,2.44A4.9,4.9,0,0,1,59.77,203.3Z" fill="#091b43"/><path d="M71.39,191.7a.41.41,0,0,1,.4-.4h1a.43.43,0,0,1,.39.4v4.15a6.17,6.17,0,0,1,2.1-.43,4.19,4.19,0,0,1,4.1,4.36,4.14,4.14,0,0,1-3.88,4.37A3.86,3.86,0,0,1,72.85,203a1,1,0,0,1-1.08,1,.35.35,0,0,1-.38-.36Zm1.81,9.52a2.36,2.36,0,0,0,2,1.21,2.51,2.51,0,0,0,2.35-2.65,2.59,2.59,0,0,0-2.49-2.64,4.41,4.41,0,0,0-1.91.45Z" fill="#091b43"/><path d="M81.16,196a.43.43,0,0,1,.4-.4h1a.41.41,0,0,1,.4.4v4.44c0,1.38.56,2,1.63,2a2.06,2.06,0,0,0,2-1.37V196c0-.34.16-.4.47-.4h.92a.42.42,0,0,1,.41.4v7.66A.35.35,0,0,1,88,204a1.06,1.06,0,0,1-1.1-1,3.31,3.31,0,0,1-2.6,1.11c-2.49,0-3.11-1.65-3.11-3.83Z" fill="#091b43"/><path d="M90.36,203.3a.33.33,0,0,1-.14-.44l.37-.77a.38.38,0,0,1,.55-.11,3.85,3.85,0,0,0,2.07.61c.71,0,1.11-.34,1.11-.81s-.64-.92-1.79-1.45-2.26-1.26-2.26-2.63c0-1,.74-2.28,2.76-2.28a4.55,4.55,0,0,1,2.44.62.48.48,0,0,1,.18.61l-.29.58a.39.39,0,0,1-.54.16A4.39,4.39,0,0,0,93,197c-.72,0-1.06.37-1.06.74,0,.55.59.87,1.43,1.23,1.53.65,2.69,1.21,2.69,2.77,0,1.3-1.12,2.44-3,2.44A4.9,4.9,0,0,1,90.36,203.3Z" fill="#091b43"/><path d="M96.85,196.14a.37.37,0,0,1,.36-.54H98.4a.4.4,0,0,1,.36.24l1.93,5.72h0l2.35-5.72c.07-.2.23-.24.43-.24h1.12a.36.36,0,0,1,.36.54L99.9,208a.42.42,0,0,1-.34.25H98.4a.37.37,0,0,1-.36-.56l1.68-4Z" fill="#091b43"/><path d="M112.08,207.85a.39.39,0,0,1-.44.4h-1a.41.41,0,0,1-.4-.4v-12a.36.36,0,0,1,.38-.36,1,1,0,0,1,1.07.87,3.8,3.8,0,0,1,2.6-1,4.1,4.1,0,0,1,3.94,4.36,4.15,4.15,0,0,1-4,4.37,4.46,4.46,0,0,1-2.13-.58Zm0-6a3.5,3.5,0,0,0,1.93.61,2.53,2.53,0,0,0,2.44-2.65,2.42,2.42,0,0,0-2.36-2.64,2.28,2.28,0,0,0-2,1.17Z" fill="#091b43"/><path d="M122.77,198.67a6.23,6.23,0,0,1,1.68.26c0-1.32-.63-1.92-1.68-1.92a5.76,5.76,0,0,0-2,.4.39.39,0,0,1-.47-.35l-.17-.68a.39.39,0,0,1,.27-.49,5.23,5.23,0,0,1,2.39-.47c2.67,0,3.41,1.61,3.41,3.69v4.55a.35.35,0,0,1-.38.36,1.06,1.06,0,0,1-1.1-1,3.55,3.55,0,0,1-2.62,1.11,2.58,2.58,0,0,1-2.69-2.78C119.43,199.83,120.62,198.67,122.77,198.67Zm-.27,4a2.61,2.61,0,0,0,1.94-1v-1.39a3.85,3.85,0,0,0-1.52-.29c-1,0-1.72.51-1.72,1.38A1.22,1.22,0,0,0,122.5,202.67Z" fill="#091b43"/><path d="M128.5,195.89a.36.36,0,0,1,.38-.36,1.09,1.09,0,0,1,1.1,1.05,3.17,3.17,0,0,1,2.48-1.16c.79,0,1.79.22,1.51.78l-.43.9a.35.35,0,0,1-.5.2,2.15,2.15,0,0,0-.76-.16,2.36,2.36,0,0,0-2,1.12v5.29c0,.36-.24.4-.58.4h-.83a.4.4,0,0,1-.4-.4Z" fill="#091b43"/><path d="M138.94,195.42a3.72,3.72,0,0,1,3.82,3.83,5.65,5.65,0,0,1,0,.58.39.39,0,0,1-.38.36h-5.76a2.44,2.44,0,0,0,2.49,2.28,3.22,3.22,0,0,0,2-.71c.18-.12.34-.18.49,0l.49.76c.14.18.21.34,0,.56a4.82,4.82,0,0,1-3.09,1,4.37,4.37,0,0,1,0-8.73Zm2,3.43a2,2,0,0,0-2.06-1.89,2.11,2.11,0,0,0-2.24,1.89Z" fill="#091b43"/><path d="M144.47,195.89a.36.36,0,0,1,.38-.36,1.06,1.06,0,0,1,1.09,1,3.84,3.84,0,0,1,2.76-1.12c2.55,0,3.23,1.77,3.23,3.94v4.19a.41.41,0,0,1-.39.4h-1a.4.4,0,0,1-.39-.4v-4.26c0-1.36-.56-2.15-1.65-2.15a2.53,2.53,0,0,0-2.2,1.21v5.2c0,.27-.15.4-.49.4h-.92a.4.4,0,0,1-.4-.4Z" fill="#091b43"/><path d="M153.79,197.14a.4.4,0,0,1-.39-.4V196a.38.38,0,0,1,.39-.4h1v-2.33a.4.4,0,0,1,.4-.4h1a.38.38,0,0,1,.38.4v2.33h2.2a.39.39,0,0,1,.4.4v.74a.41.41,0,0,1-.4.4h-2.2v4.44c0,.71.45.85,1,.85a2.3,2.3,0,0,0,1-.31.32.32,0,0,1,.49.18l.33.85c.09.22,0,.36-.2.49a3.93,3.93,0,0,1-1.81.51,2.32,2.32,0,0,1-2.62-2.5v-4.51Z" fill="#091b43"/><path d="M160.53,203.3a.35.35,0,0,1-.14-.44l.38-.77a.37.37,0,0,1,.54-.11,3.89,3.89,0,0,0,2.08.61c.7,0,1.1-.34,1.1-.81s-.63-.92-1.79-1.45-2.26-1.26-2.26-2.63c0-1,.74-2.28,2.77-2.28a4.6,4.6,0,0,1,2.44.62.48.48,0,0,1,.18.61l-.29.58a.39.39,0,0,1-.54.16,4.39,4.39,0,0,0-1.79-.42c-.73,0-1.07.37-1.07.74,0,.55.6.87,1.43,1.23,1.53.65,2.69,1.21,2.69,2.77,0,1.3-1.12,2.44-3,2.44A4.9,4.9,0,0,1,160.53,203.3Z" fill="#091b43"/><path d="M172.21,191.7a.41.41,0,0,1,.39-.4h1a.43.43,0,0,1,.4.4v11.85a.41.41,0,0,1-.4.4h-1a.39.39,0,0,1-.39-.4Z" fill="#091b43"/><path d="M180.15,195.42a4.37,4.37,0,1,1-4.26,4.34A4.34,4.34,0,0,1,180.15,195.42Zm0,7a2.53,2.53,0,0,0,2.48-2.67,2.49,2.49,0,1,0-2.48,2.67Z" fill="#091b43"/><path d="M185.72,197.14a.4.4,0,0,1-.4-.4V196a.38.38,0,0,1,.4-.4h1v-2.33a.4.4,0,0,1,.39-.4h1a.38.38,0,0,1,.38.4v2.33h2.21a.39.39,0,0,1,.39.4v.74a.41.41,0,0,1-.39.4h-2.21v4.44c0,.71.45.85,1,.85a2.34,2.34,0,0,0,1-.31.32.32,0,0,1,.49.18l.32.85c.09.22,0,.36-.2.49a3.92,3.92,0,0,1-1.8.51,2.31,2.31,0,0,1-2.62-2.5v-4.51Z" fill="#091b43"/><path d="M192.46,203.3a.35.35,0,0,1-.15-.44l.38-.77a.37.37,0,0,1,.54-.11,3.92,3.92,0,0,0,2.08.61c.71,0,1.1-.34,1.1-.81s-.63-.92-1.79-1.45-2.25-1.26-2.25-2.63c0-1,.74-2.28,2.76-2.28a4.58,4.58,0,0,1,2.44.62.48.48,0,0,1,.18.61l-.29.58a.39.39,0,0,1-.54.16,4.39,4.39,0,0,0-1.79-.42c-.72,0-1.06.37-1.06.74,0,.55.59.87,1.42,1.23,1.54.65,2.69,1.21,2.69,2.77,0,1.3-1.12,2.44-3,2.44A4.86,4.86,0,0,1,192.46,203.3Z" fill="#091b43"/><path d="M207.81,195.42a4.37,4.37,0,1,1-4.26,4.34A4.34,4.34,0,0,1,207.81,195.42Zm0,7a2.53,2.53,0,0,0,2.48-2.67,2.49,2.49,0,1,0-5,0A2.53,2.53,0,0,0,207.81,202.43Z" fill="#091b43"/><path d="M214.46,197.28h-1.08a.4.4,0,0,1-.4-.4V196a.38.38,0,0,1,.4-.4h1.08v-1c0-2.24,1.07-3.52,3.09-3.52a3.72,3.72,0,0,1,2.37.83.37.37,0,0,1,.07.47l-.52.76a.34.34,0,0,1-.54.07,2.23,2.23,0,0,0-1.34-.41c-.94,0-1.32.76-1.32,1.8v1h2.37a.39.39,0,0,1,.39.4v.88a.41.41,0,0,1-.39.4h-2.37v6.27a.41.41,0,0,1-.4.4h-1a.41.41,0,0,1-.4-.4Z" fill="#091b43"/><path d="M224.06,197.14a.4.4,0,0,1-.4-.4V196a.38.38,0,0,1,.4-.4H225v-2.33a.41.41,0,0,1,.4-.4h1a.38.38,0,0,1,.38.4v2.33H229a.39.39,0,0,1,.39.4v.74a.41.41,0,0,1-.39.4h-2.21v4.44c0,.71.45.85,1,.85a2.34,2.34,0,0,0,1-.31.31.31,0,0,1,.48.18l.33.85c.09.22,0,.36-.2.49a3.93,3.93,0,0,1-1.81.51,2.32,2.32,0,0,1-2.62-2.5v-4.51Z" fill="#091b43"/><path d="M230.85,192.6a1.2,1.2,0,0,1,1.19-1.23,1.22,1.22,0,1,1,0,2.44A1.19,1.19,0,0,1,230.85,192.6Zm.29,3.4a.41.41,0,0,1,.4-.4h1a.43.43,0,0,1,.4.4v7.55a.41.41,0,0,1-.4.4h-1a.4.4,0,0,1-.4-.4Z" fill="#091b43"/><path d="M235.29,195.89a.36.36,0,0,1,.38-.36,1.06,1.06,0,0,1,1.09,1,3.66,3.66,0,0,1,2.6-1.08,2.87,2.87,0,0,1,2.55,1.32,3.91,3.91,0,0,1,2.81-1.32c2.55,0,3.18,1.77,3.18,3.94v4.19a.39.39,0,0,1-.39.4h-1a.38.38,0,0,1-.4-.4v-4.26c0-1.34-.51-2.15-1.65-2.15a2.61,2.61,0,0,0-2,1,9,9,0,0,1,.07,1.12v4.32a.4.4,0,0,1-.38.4h-1a.39.39,0,0,1-.4-.4v-4.26c0-1.36-.48-2.15-1.64-2.15a2.12,2.12,0,0,0-2,1.21v5.2a.41.41,0,0,1-.4.4h-1a.4.4,0,0,1-.4-.4Z" fill="#091b43"/><path d="M253.81,195.42a3.72,3.72,0,0,1,3.81,3.83,5.63,5.63,0,0,1,0,.58.39.39,0,0,1-.38.36h-5.76a2.44,2.44,0,0,0,2.49,2.28,3.22,3.22,0,0,0,2-.71c.18-.12.34-.18.49,0l.49.76c.14.18.21.34,0,.56a4.82,4.82,0,0,1-3.09,1,4.37,4.37,0,0,1,0-8.73Zm2,3.43a2,2,0,0,0-2.06-1.89,2.11,2.11,0,0,0-2.24,1.89Z" fill="#091b43"/><path d="M260.34,201.51a1.29,1.29,0,1,1-1.27,1.3A1.3,1.3,0,0,1,260.34,201.51Z" fill="#091b43"/></g><g id="Alicia"><path d="M24.63,139l4.92-10.64a.28.28,0,0,1,.27-.18H30a.26.26,0,0,1,.26.18L35.11,139a.28.28,0,0,1-.27.41H33.47a.46.46,0,0,1-.46-.32l-.77-1.7H27.51l-.78,1.7a.47.47,0,0,1-.45.32H24.9A.28.28,0,0,1,24.63,139Zm6.83-3.37-1.58-3.48h-.05l-1.55,3.48Z" fill="#0071de"/><path d="M36.12,128.72a.38.38,0,0,1,.35-.35h1.28a.38.38,0,0,1,.35.35v10.37a.37.37,0,0,1-.35.35H36.47a.36.36,0,0,1-.35-.35Z" fill="#0071de"/><path d="M39.63,129.62a1.23,1.23,0,0,1,1.24-1.25,1.26,1.26,0,1,1-1.24,1.25Zm.28,2.86a.35.35,0,0,1,.35-.35h1.28a.36.36,0,0,1,.35.35v6.61a.37.37,0,0,1-.35.35H40.26a.36.36,0,0,1-.35-.35Z" fill="#0071de"/><path d="M47.08,132a3.63,3.63,0,0,1,2.72,1.23c.16.16.08.36-.08.52l-.66.73c-.16.17-.34.09-.48-.05a2,2,0,0,0-1.45-.63A2,2,0,1,0,48.66,137a.35.35,0,0,1,.46,0l.71.6c.18.16.25.33.13.52a3.29,3.29,0,0,1-2.9,1.53,3.82,3.82,0,1,1,0-7.63Z" fill="#0071de"/><path d="M50.92,129.62a1.24,1.24,0,0,1,1.25-1.25,1.26,1.26,0,1,1-1.25,1.25Zm.29,2.86a.35.35,0,0,1,.34-.35h1.29a.35.35,0,0,1,.34.35v6.61a.36.36,0,0,1-.34.35H51.55a.36.36,0,0,1-.34-.35Z" fill="#0071de"/><path d="M57.38,134.82a5.32,5.32,0,0,1,1.41.21,1.26,1.26,0,0,0-1.38-1.38,6,6,0,0,0-1.69.27c-.24.08-.38-.09-.41-.31l-.16-.83a.33.33,0,0,1,.24-.44,7.3,7.3,0,0,1,2.13-.36c2.12,0,3.12,1.18,3.12,3.17v4a.34.34,0,0,1-.38.33,1.06,1.06,0,0,1-1.09-.74,3.27,3.27,0,0,1-2.23.85,2.32,2.32,0,0,1-2.47-2.5C54.47,135.82,55.53,134.82,57.38,134.82Zm0,3.32a1.55,1.55,0,0,0,1.31-.77v-1.08a2.92,2.92,0,0,0-1.07-.22c-.84,0-1.3.4-1.3,1A1,1,0,0,0,57.43,138.14Z" fill="#0071de"/></g><g id="Lansing_MI" data-name="Lansing, MI"><path d="M26.33,147.83a.26.26,0,0,1,.26-.26h.9a.26.26,0,0,1,.25.26v8h3.68a.26.26,0,0,1,.25.26v.75a.25.25,0,0,1-.25.25H26.59a.26.26,0,0,1-.26-.25Z" fill="#0071de"/><path d="M34.94,153.1a4.81,4.81,0,0,1,1.26.19c0-1-.48-1.44-1.26-1.44a4.24,4.24,0,0,0-1.49.3.29.29,0,0,1-.35-.26l-.13-.51a.29.29,0,0,1,.21-.37,3.83,3.83,0,0,1,1.78-.35c2,0,2.57,1.21,2.57,2.76v3.42a.27.27,0,0,1-.29.27.79.79,0,0,1-.82-.73,2.73,2.73,0,0,1-2,.82,1.93,1.93,0,0,1-2-2.08C32.43,154,33.33,153.1,34.94,153.1Zm-.21,3a1.89,1.89,0,0,0,1.45-.76v-1a2.84,2.84,0,0,0-1.13-.22c-.74,0-1.29.38-1.29,1A.91.91,0,0,0,34.73,156.09Z" fill="#0071de"/><path d="M39.2,151a.26.26,0,0,1,.28-.27.79.79,0,0,1,.81.76,2.88,2.88,0,0,1,2.08-.84c1.91,0,2.42,1.33,2.42,3v3.15a.31.31,0,0,1-.3.29h-.75a.29.29,0,0,1-.3-.29v-3.2c0-1-.42-1.61-1.24-1.61a1.92,1.92,0,0,0-1.65.9v3.91c0,.2-.11.29-.36.29h-.7a.29.29,0,0,1-.29-.29Z" fill="#0071de"/><path d="M46.19,156.57a.26.26,0,0,1-.11-.33l.29-.58a.26.26,0,0,1,.4-.08,3,3,0,0,0,1.56.46c.53,0,.83-.26.83-.61s-.48-.69-1.34-1.09-1.7-.94-1.7-2c0-.79.56-1.71,2.08-1.71a3.58,3.58,0,0,1,1.83.46.38.38,0,0,1,.13.46l-.22.43a.29.29,0,0,1-.4.13,3.3,3.3,0,0,0-1.34-.32c-.55,0-.8.28-.8.56s.44.65,1.07.92c1.15.49,2,.91,2,2.08a2,2,0,0,1-2.24,1.82A3.66,3.66,0,0,1,46.19,156.57Z" fill="#0071de"/><path d="M51.5,148.54a.9.9,0,0,1,.9-.92.92.92,0,1,1,0,1.83A.89.89,0,0,1,51.5,148.54Zm.22,2.55a.31.31,0,0,1,.3-.3h.75a.32.32,0,0,1,.3.3v5.67a.31.31,0,0,1-.3.29H52a.29.29,0,0,1-.3-.29Z" fill="#0071de"/><path d="M54.79,151a.26.26,0,0,1,.28-.27.79.79,0,0,1,.81.76,2.88,2.88,0,0,1,2.08-.84c1.91,0,2.42,1.33,2.42,3v3.15a.31.31,0,0,1-.3.29h-.75a.29.29,0,0,1-.3-.29v-3.2c0-1-.42-1.61-1.24-1.61a1.92,1.92,0,0,0-1.65.9v3.91c0,.2-.11.29-.37.29h-.69a.29.29,0,0,1-.29-.29Z" fill="#0071de"/><path d="M67.67,157.1a2.7,2.7,0,0,1-2.9,2.92,3.4,3.4,0,0,1-2.17-.78.3.3,0,0,1-.06-.36l.32-.59a.26.26,0,0,1,.42-.1,2.35,2.35,0,0,0,1.46.59c.83,0,1.56-.41,1.56-1.68v-.34a3.44,3.44,0,0,1-1.6.44,3.13,3.13,0,0,1-3-3.28,3.08,3.08,0,0,1,3-3.26,3,3,0,0,1,2,.72.78.78,0,0,1,.8-.64.27.27,0,0,1,.28.27Zm-2.8-1.18a2.58,2.58,0,0,0,1.45-.5v-2.59a1.86,1.86,0,0,0-1.51-.88,1.84,1.84,0,0,0-1.77,2A1.93,1.93,0,0,0,64.87,155.92Z" fill="#0071de"/><path d="M70.17,155.25c.68,0,1.12.63,1.12,1.56a2.81,2.81,0,0,1-1,2.15c-.1.09-.18.06-.26,0l-.28-.27c-.08-.1,0-.19,0-.27a1.91,1.91,0,0,0,.69-1.26,1.52,1.52,0,0,0,0-.29A.87.87,0,0,1,70,157a.79.79,0,0,1-.77-.82A.87.87,0,0,1,70.17,155.25Z" fill="#0071de"/><path d="M77.32,147.64a.29.29,0,0,1,.25-.21h.21a.29.29,0,0,1,.24.15l2.83,6.93h.05l2.82-6.93a.26.26,0,0,1,.23-.15h.22a.28.28,0,0,1,.24.21l1.67,9.1a.23.23,0,0,1-.25.31H85a.26.26,0,0,1-.25-.18l-1-6.06h0L81.21,157a.23.23,0,0,1-.23.15h-.24a.25.25,0,0,1-.23-.15l-2.45-6.23H78l-1,6.06a.27.27,0,0,1-.25.18H75.9c-.19,0-.28-.12-.26-.31Z" fill="#0071de"/><path d="M87.77,147.83a.26.26,0,0,1,.26-.26h.89a.26.26,0,0,1,.26.26v9a.26.26,0,0,1-.26.25H88a.26.26,0,0,1-.26-.25Z" fill="#0071de"/></g><g id="Layer_18" data-name="Layer 18"><polygon points="193.83 128 191.87 133.15 186.36 133.42 190.65 136.88 189.21 142.2 193.83 139.18 198.44 142.2 197 136.88 201.29 133.42 195.79 133.15 193.83 128" fill="#ffc220"/><polygon points="211.34 128 209.38 133.15 203.88 133.42 208.17 136.88 206.73 142.2 211.34 139.18 215.96 142.2 214.52 136.88 218.81 133.42 213.31 133.15 211.34 128" fill="#ffc220"/><polygon points="228.86 128 226.9 133.15 221.39 133.42 225.69 136.88 224.25 142.2 228.86 139.18 233.47 142.2 232.03 136.88 236.33 133.42 230.82 133.15 228.86 128" fill="#ffc220"/><polygon points="246.38 128 244.41 133.15 238.91 133.42 243.2 136.88 241.76 142.2 246.38 139.18 250.99 142.2 249.55 136.88 253.84 133.42 248.34 133.15 246.38 128" fill="#ffc220"/><polygon points="263.89 128 261.93 133.15 256.43 133.42 260.72 136.88 259.28 142.2 263.89 139.18 268.51 142.2 267.07 136.88 271.36 133.42 265.85 133.15 263.89 128" fill="#ffc220"/></g></g><g id="rect"><rect width="300" height="250" fill="none"/></g></g></g></svg>