<svg xmlns="http://www.w3.org/2000/svg" viewBox="0 0 300 250"><g id="Layer_2" data-name="Layer 2"><g id="_300x250_Reviews_Hero_G_F1" data-name="300x250_Reviews_Hero G_F1" style="isolation:isolate"><g id="Bubble"><g id="Content"><g id="BUBBLE-2" data-name="BUBBLE"><rect x="8.5" y="117" width="282.5" height="103.5" rx="30" fill="#fff"/></g><g id="I_love_that_Walmart_has_saved_me_so_much_money." data-name="I love that Walmart+ has saved me so much money."><path d="M27.62,172.22a.35.35,0,0,1,.34-.34h1.2a.36.36,0,0,1,.35.34v12a.36.36,0,0,1-.35.34H28a.35.35,0,0,1-.34-.34Z" fill="#091b43"/><path d="M36.48,172.28a.41.41,0,0,1,.39-.4h1a.43.43,0,0,1,.4.4v11.9a.41.41,0,0,1-.4.4h-1a.4.4,0,0,1-.39-.4Z" fill="#091b43"/><path d="M44.46,176a4.38,4.38,0,1,1-4.28,4.35A4.35,4.35,0,0,1,44.46,176Zm0,7a2.67,2.67,0,1,0-2.5-2.69A2.54,2.54,0,0,0,44.46,183.06Z" fill="#091b43"/><path d="M49.42,176.67c-.15-.25,0-.47.3-.47h1.11a.38.38,0,0,1,.37.23l2.23,5.14h0l2.35-5.14c.1-.23.32-.23.56-.23h.81c.31,0,.46.22.31.47l-3.63,7.89a.36.36,0,0,1-.34.22h-.11a.39.39,0,0,1-.36-.22Z" fill="#091b43"/><path d="M62.38,176a3.73,3.73,0,0,1,3.83,3.84,5.46,5.46,0,0,1,0,.58.4.4,0,0,1-.38.37H60a2.45,2.45,0,0,0,2.5,2.28,3.25,3.25,0,0,0,2-.7c.18-.13.35-.18.49,0l.49.77c.15.18.22.34,0,.56a4.86,4.86,0,0,1-3.11,1,4.38,4.38,0,0,1,0-8.76Zm2,3.44a2,2,0,0,0-2.07-1.9,2.12,2.12,0,0,0-2.25,1.9Z" fill="#091b43"/><path d="M71.52,177.74a.41.41,0,0,1-.4-.4v-.74a.38.38,0,0,1,.4-.4h1v-2.34a.41.41,0,0,1,.4-.4h1a.38.38,0,0,1,.38.4v2.34h2.21a.39.39,0,0,1,.4.4v.74a.41.41,0,0,1-.4.4H74.3v4.47c0,.7.45.85,1,.85a2.3,2.3,0,0,0,1-.31.31.31,0,0,1,.49.18l.33.85a.36.36,0,0,1-.2.49,3.93,3.93,0,0,1-1.81.51,2.32,2.32,0,0,1-2.64-2.5v-4.54Z" fill="#091b43"/><path d="M78.64,172.28a.41.41,0,0,1,.4-.4h1a.43.43,0,0,1,.4.4v4.61a4,4,0,0,1,2.43-.87c2.38,0,3.25,1.67,3.25,3.95v4.21a.41.41,0,0,1-.4.4h-1a.4.4,0,0,1-.4-.4v-4.24c0-1.38-.58-2.2-1.67-2.2a2.49,2.49,0,0,0-2.2,1.22v5.22a.38.38,0,0,1-.42.4H79a.4.4,0,0,1-.4-.4Z" fill="#091b43"/><path d="M91.12,179.28a6.26,6.26,0,0,1,1.69.26c0-1.33-.63-1.93-1.69-1.93a6,6,0,0,0-2,.4.38.38,0,0,1-.47-.34l-.17-.69a.38.38,0,0,1,.27-.49,5.15,5.15,0,0,1,2.4-.47c2.69,0,3.43,1.61,3.43,3.7v4.57a.36.36,0,0,1-.38.37,1.07,1.07,0,0,1-1.11-1,3.62,3.62,0,0,1-2.63,1.1,2.58,2.58,0,0,1-2.7-2.79C87.77,180.44,89,179.28,91.12,179.28Zm-.27,4a2.56,2.56,0,0,0,1.94-1v-1.4a3.8,3.8,0,0,0-1.52-.29c-1,0-1.72.51-1.72,1.38A1.22,1.22,0,0,0,90.85,183.29Z" fill="#091b43"/><path d="M96.48,177.74a.4.4,0,0,1-.4-.4v-.74a.38.38,0,0,1,.4-.4h1v-2.34a.4.4,0,0,1,.4-.4h1a.39.39,0,0,1,.39.4v2.34h2.21a.39.39,0,0,1,.4.4v.74a.41.41,0,0,1-.4.4H99.26v4.47c0,.7.45.85,1,.85a2.34,2.34,0,0,0,1-.31.31.31,0,0,1,.49.18l.33.85a.36.36,0,0,1-.2.49,4,4,0,0,1-1.82.51,2.32,2.32,0,0,1-2.63-2.5v-4.54Z" fill="#091b43"/><path d="M107,172.31a.31.31,0,0,1,.33-.43h1.21a.37.37,0,0,1,.33.25l2.19,8.33h.08l3-8.56a.31.31,0,0,1,.3-.2h.33a.33.33,0,0,1,.31.2l3,8.56h.08l2.16-8.33a.35.35,0,0,1,.32-.25h1.22a.32.32,0,0,1,.33.43l-3.43,12.2a.35.35,0,0,1-.33.25h-.29a.35.35,0,0,1-.31-.2l-3.19-9h-.1l-3.14,9a.33.33,0,0,1-.3.2h-.29a.34.34,0,0,1-.33-.25Z" fill="#091b43"/><path d="M125.66,179.28a6.35,6.35,0,0,1,1.69.26c0-1.33-.63-1.93-1.69-1.93a6,6,0,0,0-2,.4.39.39,0,0,1-.48-.34L123,177a.38.38,0,0,1,.27-.49,5.15,5.15,0,0,1,2.4-.47c2.69,0,3.43,1.61,3.43,3.7v4.57a.37.37,0,0,1-.38.37,1.06,1.06,0,0,1-1.11-1,3.62,3.62,0,0,1-2.63,1.1A2.59,2.59,0,0,1,122.3,182C122.3,180.44,123.5,179.28,125.66,179.28Zm-.27,4a2.56,2.56,0,0,0,1.94-1v-1.4a3.85,3.85,0,0,0-1.52-.29c-1,0-1.73.51-1.73,1.38A1.23,1.23,0,0,0,125.39,183.29Z" fill="#091b43"/><path d="M131.47,172.28a.41.41,0,0,1,.4-.4h1a.43.43,0,0,1,.4.4v11.9a.41.41,0,0,1-.4.4h-1a.4.4,0,0,1-.4-.4Z" fill="#091b43"/><path d="M135.7,176.49a.36.36,0,0,1,.38-.37,1.06,1.06,0,0,1,1.09,1,3.65,3.65,0,0,1,2.61-1.08,2.86,2.86,0,0,1,2.56,1.32,4,4,0,0,1,2.83-1.32c2.56,0,3.2,1.77,3.2,3.95v4.21a.39.39,0,0,1-.4.4h-1a.38.38,0,0,1-.4-.4V179.9c0-1.34-.5-2.16-1.65-2.16a2.58,2.58,0,0,0-2,1,9,9,0,0,1,.07,1.13v4.33a.4.4,0,0,1-.38.4h-1a.39.39,0,0,1-.4-.4V179.9c0-1.36-.49-2.16-1.65-2.16a2.15,2.15,0,0,0-2,1.22v5.22a.41.41,0,0,1-.39.4h-1a.4.4,0,0,1-.4-.4Z" fill="#091b43"/><path d="M153.36,179.28a6.35,6.35,0,0,1,1.69.26c0-1.33-.64-1.93-1.69-1.93a6.16,6.16,0,0,0-2,.4c-.25.06-.41-.11-.47-.34l-.16-.69a.37.37,0,0,1,.27-.49,5.11,5.11,0,0,1,2.4-.47c2.68,0,3.43,1.61,3.43,3.7v4.57a.37.37,0,0,1-.38.37,1.06,1.06,0,0,1-1.11-1,3.64,3.64,0,0,1-2.63,1.1A2.59,2.59,0,0,1,150,182C150,180.44,151.2,179.28,153.36,179.28Zm-.27,4a2.58,2.58,0,0,0,1.94-1v-1.4a3.87,3.87,0,0,0-1.53-.29c-1,0-1.72.51-1.72,1.38A1.23,1.23,0,0,0,153.09,183.29Z" fill="#091b43"/><path d="M159.11,176.49a.37.37,0,0,1,.38-.37,1.1,1.1,0,0,1,1.11,1.06,3.19,3.19,0,0,1,2.49-1.16c.8,0,1.79.21,1.52.78l-.43.9a.36.36,0,0,1-.51.2,2.15,2.15,0,0,0-.76-.16,2.36,2.36,0,0,0-2,1.13v5.31c0,.37-.24.4-.58.4h-.84a.4.4,0,0,1-.4-.4Z" fill="#091b43"/><path d="M165.54,177.74a.4.4,0,0,1-.4-.4v-.74a.38.38,0,0,1,.4-.4h1v-2.34a.4.4,0,0,1,.4-.4h1a.38.38,0,0,1,.38.4v2.34h2.22a.39.39,0,0,1,.4.4v.74a.41.41,0,0,1-.4.4h-2.22v4.47c0,.7.46.85,1,.85a2.34,2.34,0,0,0,1-.31.31.31,0,0,1,.49.18l.33.85a.36.36,0,0,1-.2.49,4,4,0,0,1-1.82.51,2.32,2.32,0,0,1-2.63-2.5v-4.54Z" fill="#091b43"/><path d="M176.1,179h-2.79a.35.35,0,0,1-.35-.35v-.76a.35.35,0,0,1,.35-.34h2.79v-2.82a.34.34,0,0,1,.35-.32h.76a.33.33,0,0,1,.34.32v2.82h2.8a.33.33,0,0,1,.32.34v.76a.34.34,0,0,1-.32.35h-2.8v2.78a.33.33,0,0,1-.34.32h-.76a.34.34,0,0,1-.35-.32Z" fill="#091b43"/><path d="M187.54,172.28a.41.41,0,0,1,.39-.4h1a.43.43,0,0,1,.4.4v4.61a4,4,0,0,1,2.43-.87c2.38,0,3.25,1.67,3.25,3.95v4.21a.41.41,0,0,1-.4.4h-1a.4.4,0,0,1-.4-.4v-4.24c0-1.38-.58-2.2-1.67-2.2a2.49,2.49,0,0,0-2.2,1.22v5.22a.38.38,0,0,1-.42.4h-1a.4.4,0,0,1-.39-.4Z" fill="#091b43"/><path d="M200,179.28a6.35,6.35,0,0,1,1.69.26c0-1.33-.64-1.93-1.69-1.93a6,6,0,0,0-2,.4.39.39,0,0,1-.48-.34l-.16-.69a.38.38,0,0,1,.27-.49,5.15,5.15,0,0,1,2.4-.47c2.68,0,3.43,1.61,3.43,3.7v4.57a.37.37,0,0,1-.38.37,1.06,1.06,0,0,1-1.11-1,3.64,3.64,0,0,1-2.63,1.1,2.59,2.59,0,0,1-2.71-2.79C196.66,180.44,197.86,179.28,200,179.28Zm-.27,4a2.58,2.58,0,0,0,1.94-1v-1.4a3.85,3.85,0,0,0-1.52-.29c-1,0-1.73.51-1.73,1.38A1.23,1.23,0,0,0,199.75,183.29Z" fill="#091b43"/><path d="M205.43,183.93a.33.33,0,0,1-.14-.44l.38-.78a.37.37,0,0,1,.54-.11,3.84,3.84,0,0,0,2.09.62c.71,0,1.11-.34,1.11-.82s-.64-.92-1.8-1.45-2.27-1.27-2.27-2.65c0-1.05.74-2.28,2.78-2.28a4.73,4.73,0,0,1,2.45.61.5.5,0,0,1,.18.62l-.29.58a.39.39,0,0,1-.55.16,4.38,4.38,0,0,0-1.79-.41c-.73,0-1.07.36-1.07.74,0,.55.6.87,1.43,1.24,1.54.65,2.7,1.21,2.7,2.77,0,1.31-1.12,2.45-3,2.45A4.83,4.83,0,0,1,205.43,183.93Z" fill="#091b43"/><path d="M216.76,183.93a.34.34,0,0,1-.15-.44l.38-.78a.39.39,0,0,1,.55-.11,3.8,3.8,0,0,0,2.08.62c.71,0,1.11-.34,1.11-.82s-.63-.92-1.8-1.45-2.26-1.27-2.26-2.65c0-1.05.74-2.28,2.77-2.28a4.73,4.73,0,0,1,2.45.61.5.5,0,0,1,.18.62l-.29.58a.38.38,0,0,1-.54.16,4.39,4.39,0,0,0-1.8-.41c-.72,0-1.07.36-1.07.74,0,.55.6.87,1.44,1.24,1.54.65,2.7,1.21,2.7,2.77,0,1.31-1.13,2.45-3,2.45A4.82,4.82,0,0,1,216.76,183.93Z" fill="#091b43"/><path d="M227,179.28a6.26,6.26,0,0,1,1.69.26c0-1.33-.63-1.93-1.69-1.93a6,6,0,0,0-2,.4.38.38,0,0,1-.47-.34l-.17-.69a.39.39,0,0,1,.27-.49A5.15,5.15,0,0,1,227,176c2.69,0,3.43,1.61,3.43,3.7v4.57a.36.36,0,0,1-.38.37,1.07,1.07,0,0,1-1.11-1,3.62,3.62,0,0,1-2.63,1.1,2.58,2.58,0,0,1-2.7-2.79C223.62,180.44,224.81,179.28,227,179.28Zm-.27,4a2.56,2.56,0,0,0,1.94-1v-1.4a3.8,3.8,0,0,0-1.52-.29c-1,0-1.72.51-1.72,1.38A1.22,1.22,0,0,0,226.7,183.29Z" fill="#091b43"/><path d="M231.62,176.67c-.14-.25,0-.47.31-.47H233a.36.36,0,0,1,.36.23l2.23,5.14h0l2.34-5.14c.11-.23.33-.23.56-.23h.82c.31,0,.45.22.31.47l-3.63,7.89a.39.39,0,0,1-.35.22h-.11a.39.39,0,0,1-.36-.22Z" fill="#091b43"/><path d="M244.58,176a3.73,3.73,0,0,1,3.83,3.84,5.46,5.46,0,0,1,0,.58.4.4,0,0,1-.38.37H242.2a2.46,2.46,0,0,0,2.51,2.28,3.27,3.27,0,0,0,2-.7c.18-.13.34-.18.49,0l.49.77c.14.18.22.34,0,.56a4.83,4.83,0,0,1-3.1,1,4.38,4.38,0,0,1,0-8.76Zm2,3.44a2,2,0,0,0-2.07-1.9,2.13,2.13,0,0,0-2.25,1.9Z" fill="#091b43"/><path d="M253.67,176a6.25,6.25,0,0,1,2.11.43v-4.17a.43.43,0,0,1,.4-.4h1a.41.41,0,0,1,.4.4v12a.36.36,0,0,1-.38.37,1.07,1.07,0,0,1-1.11-1,4,4,0,0,1-2.67,1.09c-2.21,0-3.83-2-3.83-4.39A4.14,4.14,0,0,1,253.67,176Zm0,7a2.39,2.39,0,0,0,2.09-1.24v-3.59a4.22,4.22,0,0,0-1.93-.49,2.54,2.54,0,0,0-2.43,2.65A2.47,2.47,0,0,0,253.71,183.06Z" fill="#091b43"/><path d="M27.24,196.45a.35.35,0,0,1,.38-.36,1.07,1.07,0,0,1,1.09,1A3.64,3.64,0,0,1,31.32,196a2.86,2.86,0,0,1,2.56,1.33A4,4,0,0,1,36.71,196c2.56,0,3.2,1.78,3.2,4v4.21a.39.39,0,0,1-.4.4h-1a.38.38,0,0,1-.4-.4v-4.28c0-1.35-.51-2.16-1.65-2.16a2.63,2.63,0,0,0-2,1,7.1,7.1,0,0,1,.08,1.12v4.34a.4.4,0,0,1-.38.4h-1a.39.39,0,0,1-.4-.4v-4.28c0-1.37-.49-2.16-1.65-2.16a2.13,2.13,0,0,0-2,1.21v5.23a.41.41,0,0,1-.4.4h-1a.4.4,0,0,1-.4-.4Z" fill="#091b43"/><path d="M45.84,196a3.74,3.74,0,0,1,3.83,3.85c0,.14,0,.43,0,.58a.38.38,0,0,1-.38.36H43.46A2.46,2.46,0,0,0,46,203.06a3.28,3.28,0,0,0,2.05-.71c.18-.13.34-.18.49,0l.49.76c.14.18.22.35,0,.56a4.77,4.77,0,0,1-3.1,1,4.39,4.39,0,0,1,0-8.77Zm2,3.45a2,2,0,0,0-2.07-1.91,2.14,2.14,0,0,0-2.25,1.91Z" fill="#091b43"/><path d="M55.22,203.89a.34.34,0,0,1-.14-.43l.38-.78a.37.37,0,0,1,.54-.11,3.92,3.92,0,0,0,2.09.62c.71,0,1.11-.35,1.11-.82s-.64-.93-1.8-1.45-2.27-1.27-2.27-2.65c0-1.05.75-2.29,2.78-2.29a4.71,4.71,0,0,1,2.45.62.49.49,0,0,1,.18.62l-.29.58a.39.39,0,0,1-.54.16,4.44,4.44,0,0,0-1.8-.42c-.73,0-1.07.36-1.07.75,0,.54.6.87,1.43,1.23,1.55.65,2.71,1.22,2.71,2.78,0,1.3-1.13,2.45-3,2.45A4.88,4.88,0,0,1,55.22,203.89Z" fill="#091b43"/><path d="M66.48,196a4.39,4.39,0,1,1-4.29,4.36A4.35,4.35,0,0,1,66.48,196Zm0,7A2.54,2.54,0,0,0,69,200.34a2.5,2.5,0,1,0-5,0A2.54,2.54,0,0,0,66.48,203Z" fill="#091b43"/><path d="M76.75,196.45a.35.35,0,0,1,.38-.36,1.06,1.06,0,0,1,1.09,1A3.64,3.64,0,0,1,80.83,196a2.85,2.85,0,0,1,2.56,1.33A4,4,0,0,1,86.22,196c2.56,0,3.2,1.78,3.2,4v4.21a.39.39,0,0,1-.4.4H88a.38.38,0,0,1-.4-.4v-4.28c0-1.35-.5-2.16-1.65-2.16a2.58,2.58,0,0,0-2,1,9,9,0,0,1,.07,1.12v4.34a.4.4,0,0,1-.38.4h-1a.39.39,0,0,1-.4-.4v-4.28c0-1.37-.49-2.16-1.65-2.16a2.15,2.15,0,0,0-2,1.21v5.23a.41.41,0,0,1-.39.4h-1a.4.4,0,0,1-.4-.4Z" fill="#091b43"/><path d="M91.6,196.56a.43.43,0,0,1,.4-.4h1a.41.41,0,0,1,.4.4V201c0,1.38.56,2,1.63,2a2.1,2.1,0,0,0,2-1.38v-5.08c0-.34.16-.4.47-.4h.92a.43.43,0,0,1,.42.4v7.7a.36.36,0,0,1-.38.36,1.07,1.07,0,0,1-1.11-1,3.36,3.36,0,0,1-2.61,1.11c-2.51,0-3.12-1.65-3.12-3.85Z" fill="#091b43"/><path d="M105,196a3.68,3.68,0,0,1,3,1.45.41.41,0,0,1-.07.6l-.65.6c-.24.22-.4.06-.55-.09a2.5,2.5,0,0,0-1.72-.83,2.66,2.66,0,1,0,1.92,4.28.4.4,0,0,1,.57,0l.56.46c.2.18.29.38.14.59a3.81,3.81,0,0,1-3.26,1.75,4.28,4.28,0,0,1-4.29-4.38A4.35,4.35,0,0,1,105,196Z" fill="#091b43"/><path d="M109.93,192.24a.41.41,0,0,1,.4-.4h1a.43.43,0,0,1,.4.4v4.61a4.1,4.1,0,0,1,2.43-.87c2.38,0,3.25,1.67,3.25,4v4.21a.41.41,0,0,1-.4.4h-1a.4.4,0,0,1-.4-.4V199.9c0-1.38-.58-2.19-1.67-2.19a2.51,2.51,0,0,0-2.2,1.21v5.23a.39.39,0,0,1-.41.4h-1a.4.4,0,0,1-.4-.4Z" fill="#091b43"/><path d="M123.87,196.45a.35.35,0,0,1,.38-.36,1.07,1.07,0,0,1,1.09,1A3.64,3.64,0,0,1,128,196a2.86,2.86,0,0,1,2.56,1.33,4,4,0,0,1,2.83-1.33c2.56,0,3.2,1.78,3.2,4v4.21a.39.39,0,0,1-.4.4h-1a.38.38,0,0,1-.4-.4v-4.28c0-1.35-.51-2.16-1.65-2.16a2.63,2.63,0,0,0-2,1,7.1,7.1,0,0,1,.08,1.12v4.34a.4.4,0,0,1-.38.4h-1a.39.39,0,0,1-.4-.4v-4.28c0-1.37-.49-2.16-1.65-2.16a2.13,2.13,0,0,0-2,1.21v5.23a.41.41,0,0,1-.4.4h-1a.4.4,0,0,1-.4-.4Z" fill="#091b43"/><path d="M142.56,196a4.39,4.39,0,1,1-4.28,4.36A4.36,4.36,0,0,1,142.56,196Zm0,7a2.54,2.54,0,0,0,2.49-2.68,2.5,2.5,0,1,0-5,0A2.54,2.54,0,0,0,142.56,203Z" fill="#091b43"/><path d="M148.66,196.45a.35.35,0,0,1,.38-.36,1.07,1.07,0,0,1,1.09,1,3.85,3.85,0,0,1,2.78-1.13c2.56,0,3.25,1.78,3.25,4v4.21a.41.41,0,0,1-.4.4h-1a.4.4,0,0,1-.4-.4v-4.28c0-1.37-.56-2.16-1.65-2.16a2.56,2.56,0,0,0-2.22,1.21v5.23c0,.27-.14.4-.49.4h-.92a.4.4,0,0,1-.4-.4Z" fill="#091b43"/><path d="M162.09,196a3.74,3.74,0,0,1,3.83,3.85c0,.14,0,.43,0,.58a.38.38,0,0,1-.38.36h-5.79a2.46,2.46,0,0,0,2.51,2.29,3.28,3.28,0,0,0,2.05-.71c.18-.13.34-.18.49,0l.49.76c.14.18.22.35,0,.56a4.77,4.77,0,0,1-3.1,1,4.39,4.39,0,0,1,0-8.77Zm2,3.45a2,2,0,0,0-2.07-1.91,2.14,2.14,0,0,0-2.25,1.91Z" fill="#091b43"/><path d="M166.66,196.71a.38.38,0,0,1,.37-.55h1.19a.43.43,0,0,1,.37.24l1.94,5.75h0l2.35-5.75c.08-.2.24-.24.44-.24h1.13a.36.36,0,0,1,.36.55l-5.12,11.9a.42.42,0,0,1-.34.26h-1.17a.38.38,0,0,1-.36-.56l1.69-4.05Z" fill="#091b43"/><path d="M177.35,202.1a1.3,1.3,0,1,1-1.27,1.3A1.3,1.3,0,0,1,177.35,202.1Z" fill="#091b43"/></g><g id="name_city_and_state" data-name="name, city and state"><g id="Fort_Worth_TX" data-name="Fort Worth, TX"><path d="M26.33,147.83a.26.26,0,0,1,.26-.26H32a.26.26,0,0,1,.26.26v.76a.26.26,0,0,1-.26.25H27.73V152h3.62a.27.27,0,0,1,.25.26V153a.26.26,0,0,1-.25.25H27.73v3.57a.26.26,0,0,1-.26.25h-.88a.26.26,0,0,1-.26-.25Z" fill="#0071de"/><path d="M36,150.66a3.27,3.27,0,1,1-3.19,3.25A3.25,3.25,0,0,1,36,150.66Zm0,5.26a1.9,1.9,0,0,0,1.86-2,1.87,1.87,0,1,0-3.73,0A1.91,1.91,0,0,0,36,155.92Z" fill="#0071de"/><path d="M40.44,151a.27.27,0,0,1,.29-.27.81.81,0,0,1,.82.79,2.38,2.38,0,0,1,1.86-.87c.6,0,1.34.16,1.14.58l-.33.68a.27.27,0,0,1-.38.15,1.42,1.42,0,0,0-.57-.12,1.76,1.76,0,0,0-1.47.84v4c0,.27-.18.29-.44.29h-.62a.3.3,0,0,1-.3-.29Z" fill="#0071de"/><path d="M45.49,152a.3.3,0,0,1-.3-.3v-.56a.29.29,0,0,1,.3-.3h.72v-1.74a.29.29,0,0,1,.3-.3h.77a.28.28,0,0,1,.28.3v1.74h1.66a.29.29,0,0,1,.29.3v.56a.31.31,0,0,1-.29.3H47.56v3.33c0,.53.34.64.75.64a1.83,1.83,0,0,0,.76-.23.23.23,0,0,1,.36.13l.25.64a.27.27,0,0,1-.15.36,2.93,2.93,0,0,1-1.36.38,1.73,1.73,0,0,1-2-1.87V152Z" fill="#0071de"/><path d="M53.32,147.9a.24.24,0,0,1,.25-.33h.9a.28.28,0,0,1,.25.19L56.36,154h0l2.21-6.4a.25.25,0,0,1,.23-.15h.24a.24.24,0,0,1,.23.15l2.24,6.4h0l1.62-6.22a.26.26,0,0,1,.24-.19h.91a.24.24,0,0,1,.24.33L62.06,157a.26.26,0,0,1-.24.19H61.6a.27.27,0,0,1-.23-.15L59,150.31h-.07L56.57,157a.25.25,0,0,1-.23.15h-.21a.27.27,0,0,1-.25-.19Z" fill="#0071de"/><path d="M68.09,150.66a3.27,3.27,0,1,1-3.2,3.25A3.25,3.25,0,0,1,68.09,150.66Zm0,5.26a1.9,1.9,0,0,0,1.85-2,1.86,1.86,0,1,0-3.72,0A1.9,1.9,0,0,0,68.09,155.92Z" fill="#0071de"/><path d="M72.56,151a.27.27,0,0,1,.29-.27.83.83,0,0,1,.83.79,2.35,2.35,0,0,1,1.85-.87c.6,0,1.34.16,1.14.58l-.33.68a.26.26,0,0,1-.37.15,1.46,1.46,0,0,0-.57-.12,1.78,1.78,0,0,0-1.48.84v4c0,.27-.18.29-.43.29h-.63a.3.3,0,0,1-.3-.29Z" fill="#0071de"/><path d="M77.61,152a.3.3,0,0,1-.3-.3v-.56a.29.29,0,0,1,.3-.3h.72v-1.74a.29.29,0,0,1,.3-.3h.77a.28.28,0,0,1,.28.3v1.74h1.66a.3.3,0,0,1,.3.3v.56a.31.31,0,0,1-.3.3H79.68v3.33c0,.53.34.64.75.64a1.83,1.83,0,0,0,.76-.23.23.23,0,0,1,.36.13l.25.64c.07.16,0,.27-.15.36a2.93,2.93,0,0,1-1.36.38,1.73,1.73,0,0,1-2-1.87V152Z" fill="#0071de"/><path d="M82.79,147.87a.31.31,0,0,1,.3-.3h.76a.32.32,0,0,1,.3.3v3.44a3,3,0,0,1,1.81-.65c1.78,0,2.43,1.25,2.43,3v3.15a.31.31,0,0,1-.3.29h-.76a.3.3,0,0,1-.3-.29v-3.17c0-1-.43-1.64-1.24-1.64a1.85,1.85,0,0,0-1.64.9v3.91a.29.29,0,0,1-.32.29h-.74a.3.3,0,0,1-.3-.29Z" fill="#0071de"/><path d="M90.75,155.25c.68,0,1.13.63,1.13,1.56a2.85,2.85,0,0,1-1,2.16c-.09.08-.18.05-.26,0l-.28-.27c-.08-.1,0-.19,0-.27a1.91,1.91,0,0,0,.69-1.26,1.52,1.52,0,0,0,0-.29.86.86,0,0,1-.46.14.79.79,0,0,1-.78-.82A.88.88,0,0,1,90.75,155.25Z" fill="#0071de"/><path d="M98.38,148.84H96.17a.26.26,0,0,1-.26-.25v-.76a.26.26,0,0,1,.26-.26H102a.26.26,0,0,1,.26.26v.76a.26.26,0,0,1-.26.25H99.79v8a.26.26,0,0,1-.26.25h-.89a.26.26,0,0,1-.26-.25Z" fill="#0071de"/><path d="M105.83,152.19,103.14,148a.24.24,0,0,1,.23-.38h1.15a.3.3,0,0,1,.24.12l1.88,3.24h0l1.94-3.24a.25.25,0,0,1,.21-.12H110a.25.25,0,0,1,.23.38l-2.69,4.24,2.78,4.49c.11.19,0,.37-.23.37h-1a.25.25,0,0,1-.23-.12l-2.12-3.47h0l-2.09,3.47a.28.28,0,0,1-.23.12h-1c-.25,0-.35-.2-.25-.37Z" fill="#0071de"/></g><g id="Michelle"><path d="M27.23,128.45a.27.27,0,0,1,.28-.24h.25a.3.3,0,0,1,.27.16l3.48,7.46h0L35,128.37a.29.29,0,0,1,.27-.16h.26a.27.27,0,0,1,.28.24l1.87,10.62a.28.28,0,0,1-.29.37H36a.35.35,0,0,1-.3-.24l-.93-6h0l-2.76,6.21a.28.28,0,0,1-.27.18h-.29a.29.29,0,0,1-.27-.18l-2.79-6.21h-.05l-.92,6a.3.3,0,0,1-.28.24H25.64a.29.29,0,0,1-.3-.37Z" fill="#0071de"/><path d="M39,129.62a1.24,1.24,0,0,1,1.25-1.25A1.26,1.26,0,1,1,39,129.62Zm.29,2.86a.35.35,0,0,1,.35-.34h1.28a.34.34,0,0,1,.34.34v6.61a.36.36,0,0,1-.34.35H39.61a.36.36,0,0,1-.35-.35Z" fill="#0071de"/><path d="M46.35,132a3.63,3.63,0,0,1,2.72,1.23c.16.16.08.36-.08.52l-.66.73c-.16.17-.34.09-.48-.05a2,2,0,0,0-1.45-.63A2,2,0,1,0,47.93,137a.35.35,0,0,1,.46,0l.71.6c.18.16.25.33.13.52a3.29,3.29,0,0,1-2.9,1.53,3.82,3.82,0,1,1,0-7.63Z" fill="#0071de"/><path d="M50.4,128.72a.38.38,0,0,1,.35-.35H52a.37.37,0,0,1,.35.35v3.87a2.87,2.87,0,0,1,1.87-.61c2.32,0,3,1.61,3,3.44v3.67a.36.36,0,0,1-.35.35H55.57a.35.35,0,0,1-.34-.35v-3.68c0-1-.46-1.63-1.33-1.63a1.51,1.51,0,0,0-1.52,1.28v4c0,.21-.09.35-.38.35H50.75a.37.37,0,0,1-.35-.35Z" fill="#0071de"/><path d="M62.13,132a3.27,3.27,0,0,1,3.35,3.38,3.71,3.71,0,0,1,0,.47.38.38,0,0,1-.35.34H60.42a1.76,1.76,0,0,0,1.82,1.69,2.44,2.44,0,0,0,1.57-.54c.17-.14.36-.16.47,0l.62.82a.32.32,0,0,1,0,.48,4.14,4.14,0,0,1-2.71,1,3.82,3.82,0,0,1,0-7.63Zm1.36,2.89a1.33,1.33,0,0,0-1.41-1.26,1.45,1.45,0,0,0-1.55,1.26Z" fill="#0071de"/><path d="M66.76,128.72a.38.38,0,0,1,.35-.35h1.28a.38.38,0,0,1,.35.35v10.37a.37.37,0,0,1-.35.35H67.11a.36.36,0,0,1-.35-.35Z" fill="#0071de"/><path d="M70.48,128.72a.38.38,0,0,1,.34-.35H72.1a.38.38,0,0,1,.35.35v10.37a.36.36,0,0,1-.35.35H70.82a.36.36,0,0,1-.34-.35Z" fill="#0071de"/><path d="M77.44,132a3.27,3.27,0,0,1,3.36,3.38,3.73,3.73,0,0,1,0,.47.37.37,0,0,1-.34.34H75.74a1.75,1.75,0,0,0,1.81,1.69,2.42,2.42,0,0,0,1.57-.54c.17-.14.36-.16.47,0l.62.82a.31.31,0,0,1,0,.48,4.15,4.15,0,0,1-2.72,1,3.82,3.82,0,0,1,0-7.63Zm1.36,2.89a1.33,1.33,0,0,0-1.4-1.26,1.44,1.44,0,0,0-1.55,1.26Z" fill="#0071de"/></g></g><g id="Layer_20" data-name="Layer 20"><polygon points="190.46 125.93 188.39 131.37 182.58 131.66 187.11 135.31 185.59 140.93 190.46 137.74 195.34 140.93 193.81 135.31 198.35 131.66 192.53 131.37 190.46 125.93" fill="#ffc220"/><polygon points="208.96 125.93 206.89 131.37 201.07 131.66 205.61 135.31 204.09 140.93 208.96 137.74 213.83 140.93 212.31 135.31 216.85 131.66 211.03 131.37 208.96 125.93" fill="#ffc220"/><polygon points="227.46 125.93 225.39 131.37 219.57 131.66 224.11 135.31 222.58 140.93 227.46 137.74 232.33 140.93 230.81 135.31 235.34 131.66 229.53 131.37 227.46 125.93" fill="#ffc220"/><polygon points="245.96 125.93 243.88 131.37 238.07 131.66 242.6 135.31 241.08 140.93 245.96 137.74 250.83 140.93 249.31 135.31 253.84 131.66 248.03 131.37 245.96 125.93" fill="#ffc220"/><polygon points="264.45 125.93 262.38 131.37 256.57 131.66 261.1 135.31 259.58 140.93 264.45 137.74 269.33 140.93 267.81 135.31 272.34 131.66 266.52 131.37 264.45 125.93" fill="#ffc220"/></g><g id="rect"><rect width="300" height="250" fill="none"/></g></g></g></g></g></svg>