<svg xmlns="http://www.w3.org/2000/svg" viewBox="0 0 728 90"><g id="Layer_2" data-name="Layer 2"><g id="_728x90_Reviews_Hero_G_F1" data-name="728x90_Reviews_Hero G_F1" style="isolation:isolate"><g id="Bubble"><g id="Content"><g id="BUBBLE-2" data-name="BUBBLE"><rect x="206.5" y="6" width="330" height="78" rx="20" fill="#fff"/></g><g id="I_love_that_Walmart_has_saved_me_so_much_money._And_I_love_ord" data-name="I love that Walmart+ has saved me so much money. And I love ord"><path d="M221.33,51.62a.24.24,0,0,1,.23-.24h.83a.25.25,0,0,1,.24.24v8.27a.25.25,0,0,1-.24.24h-.83a.24.24,0,0,1-.23-.24Z" fill="#091b43"/><path d="M227.43,51.65a.28.28,0,0,1,.27-.27h.7a.3.3,0,0,1,.28.27v8.2a.29.29,0,0,1-.28.28h-.7a.28.28,0,0,1-.27-.28Z" fill="#091b43"/><path d="M232.93,54.23a3,3,0,1,1-3,3A3,3,0,0,1,232.93,54.23Zm0,4.85a1.75,1.75,0,0,0,1.71-1.85,1.72,1.72,0,1,0-3.44,0A1.75,1.75,0,0,0,232.93,59.08Z" fill="#091b43"/><path d="M236.34,54.68c-.1-.18,0-.33.21-.33h.76a.25.25,0,0,1,.25.17l1.54,3.53h0l1.61-3.53c.07-.17.22-.17.38-.17h.57c.21,0,.31.15.21.33l-2.5,5.44a.27.27,0,0,1-.24.15h-.07a.28.28,0,0,1-.25-.15Z" fill="#091b43"/><path d="M245.26,54.23a2.57,2.57,0,0,1,2.64,2.65,2.69,2.69,0,0,1,0,.4.26.26,0,0,1-.26.25h-4a1.68,1.68,0,0,0,1.72,1.57,2.24,2.24,0,0,0,1.41-.48c.13-.09.24-.13.34,0l.34.53c.1.12.15.23,0,.38a3.24,3.24,0,0,1-2.13.72,3,3,0,0,1,0-6Zm1.4,2.37a1.35,1.35,0,0,0-1.42-1.31,1.47,1.47,0,0,0-1.55,1.31Z" fill="#091b43"/><path d="M251.56,55.42a.28.28,0,0,1-.27-.28v-.51a.27.27,0,0,1,.27-.28h.67V52.74a.27.27,0,0,1,.27-.27h.71a.27.27,0,0,1,.27.27v1.61H255a.28.28,0,0,1,.28.28v.51a.29.29,0,0,1-.28.28h-1.52v3.07c0,.49.31.59.68.59a1.65,1.65,0,0,0,.7-.21.22.22,0,0,1,.34.12l.23.59c.06.15,0,.25-.14.34a2.77,2.77,0,0,1-1.25.35,1.6,1.6,0,0,1-1.81-1.73V55.42Z" fill="#091b43"/><path d="M256.46,51.65a.29.29,0,0,1,.28-.27h.7a.29.29,0,0,1,.27.27v3.18a2.83,2.83,0,0,1,1.68-.6c1.63,0,2.23,1.15,2.23,2.72v2.9a.28.28,0,0,1-.27.28h-.7a.29.29,0,0,1-.28-.28V56.93c0-1-.4-1.51-1.14-1.51a1.74,1.74,0,0,0-1.52.83v3.6a.26.26,0,0,1-.28.28h-.69a.29.29,0,0,1-.28-.28Z" fill="#091b43"/><path d="M265.06,56.48a4.53,4.53,0,0,1,1.16.17c0-.91-.43-1.32-1.16-1.32a4.27,4.27,0,0,0-1.37.27.27.27,0,0,1-.33-.23l-.11-.48a.26.26,0,0,1,.19-.34,3.72,3.72,0,0,1,1.65-.32c1.85,0,2.36,1.11,2.36,2.55v3.15a.24.24,0,0,1-.26.25.75.75,0,0,1-.77-.68,2.47,2.47,0,0,1-1.81.77,1.79,1.79,0,0,1-1.86-1.93C262.75,57.28,263.58,56.48,265.06,56.48Zm-.18,2.76a1.76,1.76,0,0,0,1.33-.7v-1a2.58,2.58,0,0,0-1-.2c-.67,0-1.18.35-1.18.95A.84.84,0,0,0,264.88,59.24Z" fill="#091b43"/><path d="M268.75,55.42a.28.28,0,0,1-.27-.28v-.51a.27.27,0,0,1,.27-.28h.66V52.74a.28.28,0,0,1,.28-.27h.71a.26.26,0,0,1,.26.27v1.61h1.53a.27.27,0,0,1,.27.28v.51a.28.28,0,0,1-.27.28h-1.53v3.07c0,.49.31.59.69.59a1.65,1.65,0,0,0,.7-.21.22.22,0,0,1,.34.12l.22.59c.06.15,0,.25-.14.34a2.69,2.69,0,0,1-1.25.35,1.6,1.6,0,0,1-1.81-1.73V55.42Z" fill="#091b43"/><path d="M276,51.68a.22.22,0,0,1,.22-.3H277a.25.25,0,0,1,.22.18l1.51,5.73h.05l2-5.9a.24.24,0,0,1,.21-.14h.23a.22.22,0,0,1,.21.14l2.06,5.9h.05l1.49-5.73a.27.27,0,0,1,.23-.18h.83a.22.22,0,0,1,.23.3L284,60.08a.25.25,0,0,1-.23.17h-.2a.23.23,0,0,1-.21-.13l-2.2-6.22h-.06L279,60.12a.23.23,0,0,1-.21.13h-.2a.23.23,0,0,1-.22-.17Z" fill="#091b43"/><path d="M288.85,56.48a4.53,4.53,0,0,1,1.16.17c0-.91-.44-1.32-1.16-1.32a4.35,4.35,0,0,0-1.38.27c-.17,0-.28-.07-.32-.23l-.11-.48a.26.26,0,0,1,.18-.34,3.72,3.72,0,0,1,1.65-.32c1.85,0,2.37,1.11,2.37,2.55v3.15a.25.25,0,0,1-.27.25.74.74,0,0,1-.76-.68,2.47,2.47,0,0,1-1.81.77,1.78,1.78,0,0,1-1.86-1.93C286.54,57.28,287.36,56.48,288.85,56.48Zm-.19,2.76a1.79,1.79,0,0,0,1.34-.7v-1a2.67,2.67,0,0,0-1.05-.2c-.68,0-1.19.35-1.19.95A.84.84,0,0,0,288.66,59.24Z" fill="#091b43"/><path d="M292.85,51.65a.28.28,0,0,1,.27-.27h.7a.3.3,0,0,1,.28.27v8.2a.29.29,0,0,1-.28.28h-.7a.28.28,0,0,1-.27-.28Z" fill="#091b43"/><path d="M295.76,54.55a.25.25,0,0,1,.26-.25.73.73,0,0,1,.75.68,2.51,2.51,0,0,1,1.8-.75,2,2,0,0,1,1.77.91,2.75,2.75,0,0,1,2-.91c1.76,0,2.19,1.22,2.19,2.72v2.9a.27.27,0,0,1-.27.28h-.7a.27.27,0,0,1-.27-.28v-3c0-.92-.35-1.48-1.14-1.48a1.79,1.79,0,0,0-1.39.67,4.87,4.87,0,0,1,.05.78v3a.28.28,0,0,1-.26.28h-.71a.27.27,0,0,1-.28-.28v-3c0-.93-.34-1.48-1.14-1.48a1.46,1.46,0,0,0-1.36.83v3.6a.29.29,0,0,1-.27.28H296a.29.29,0,0,1-.28-.28Z" fill="#091b43"/><path d="M307.92,56.48a4.66,4.66,0,0,1,1.17.17c0-.91-.44-1.32-1.17-1.32a4.27,4.27,0,0,0-1.37.27.27.27,0,0,1-.33-.23l-.11-.48a.26.26,0,0,1,.19-.34,3.72,3.72,0,0,1,1.65-.32c1.85,0,2.36,1.11,2.36,2.55v3.15a.24.24,0,0,1-.26.25.73.73,0,0,1-.76-.68,2.5,2.5,0,0,1-1.82.77,1.79,1.79,0,0,1-1.86-1.93C305.61,57.28,306.44,56.48,307.92,56.48Zm-.18,2.76a1.76,1.76,0,0,0,1.33-.7v-1a2.58,2.58,0,0,0-1.05-.2c-.67,0-1.18.35-1.18.95A.84.84,0,0,0,307.74,59.24Z" fill="#091b43"/><path d="M311.89,54.55a.25.25,0,0,1,.26-.25.76.76,0,0,1,.76.73,2.19,2.19,0,0,1,1.71-.8c.55,0,1.24.15,1.05.54l-.3.62a.25.25,0,0,1-.35.14,1.39,1.39,0,0,0-.52-.11,1.64,1.64,0,0,0-1.36.77v3.66c0,.25-.17.28-.4.28h-.58a.28.28,0,0,1-.27-.28Z" fill="#091b43"/><path d="M316.31,55.42a.28.28,0,0,1-.27-.28v-.51a.27.27,0,0,1,.27-.28H317V52.74a.28.28,0,0,1,.28-.27H318a.26.26,0,0,1,.26.27v1.61h1.53a.27.27,0,0,1,.27.28v.51a.28.28,0,0,1-.27.28h-1.53v3.07c0,.49.32.59.69.59a1.65,1.65,0,0,0,.7-.21A.22.22,0,0,1,320,59l.22.59c.07.15,0,.25-.13.34a2.77,2.77,0,0,1-1.25.35A1.61,1.61,0,0,1,317,58.54V55.42Z" fill="#091b43"/><path d="M323.59,56.3h-1.93a.25.25,0,0,1-.24-.23v-.53a.26.26,0,0,1,.24-.24h1.93V53.37a.23.23,0,0,1,.23-.23h.53a.24.24,0,0,1,.24.23V55.3h1.92a.24.24,0,0,1,.22.24v.53a.23.23,0,0,1-.22.23h-1.92v1.92a.24.24,0,0,1-.24.22h-.53a.23.23,0,0,1-.23-.22Z" fill="#091b43"/><path d="M331.46,51.65a.29.29,0,0,1,.28-.27h.7a.3.3,0,0,1,.27.27v3.18a2.8,2.8,0,0,1,1.68-.6c1.63,0,2.23,1.15,2.23,2.72v2.9a.29.29,0,0,1-.27.28h-.7a.29.29,0,0,1-.28-.28V56.93c0-1-.4-1.51-1.15-1.51a1.73,1.73,0,0,0-1.51.83v3.6a.27.27,0,0,1-.29.28h-.68a.29.29,0,0,1-.28-.28Z" fill="#091b43"/><path d="M340.06,56.48a4.53,4.53,0,0,1,1.16.17c0-.91-.43-1.32-1.16-1.32a4.27,4.27,0,0,0-1.37.27.27.27,0,0,1-.33-.23l-.11-.48a.26.26,0,0,1,.19-.34,3.67,3.67,0,0,1,1.65-.32c1.84,0,2.36,1.11,2.36,2.55v3.15a.25.25,0,0,1-.27.25.74.74,0,0,1-.76-.68,2.47,2.47,0,0,1-1.81.77,1.78,1.78,0,0,1-1.86-1.93C337.75,57.28,338.57,56.48,340.06,56.48Zm-.19,2.76a1.77,1.77,0,0,0,1.34-.7v-1a2.58,2.58,0,0,0-1-.2c-.67,0-1.19.35-1.19.95A.84.84,0,0,0,339.87,59.24Z" fill="#091b43"/><path d="M343.79,59.68a.23.23,0,0,1-.1-.3l.26-.54a.25.25,0,0,1,.37-.07,2.77,2.77,0,0,0,1.44.42c.49,0,.76-.24.76-.56s-.43-.64-1.23-1-1.57-.88-1.57-1.83c0-.72.52-1.57,1.92-1.57a3.28,3.28,0,0,1,1.68.42.35.35,0,0,1,.13.43l-.2.4a.28.28,0,0,1-.38.11,3,3,0,0,0-1.23-.29c-.5,0-.74.25-.74.52s.41.6,1,.85c1.06.45,1.86.83,1.86,1.91a1.84,1.84,0,0,1-2.06,1.69A3.35,3.35,0,0,1,343.79,59.68Z" fill="#091b43"/><path d="M351.59,59.68a.23.23,0,0,1-.1-.3l.26-.54a.25.25,0,0,1,.37-.07,2.77,2.77,0,0,0,1.44.42c.49,0,.76-.24.76-.56s-.44-.64-1.24-1-1.56-.88-1.56-1.83c0-.72.52-1.57,1.91-1.57a3.33,3.33,0,0,1,1.69.42.35.35,0,0,1,.13.43l-.2.4a.28.28,0,0,1-.38.11,3.09,3.09,0,0,0-1.24-.29c-.49,0-.73.25-.73.52s.41.6,1,.85c1.07.45,1.87.83,1.87,1.91a1.84,1.84,0,0,1-2.07,1.69A3.34,3.34,0,0,1,351.59,59.68Z" fill="#091b43"/><path d="M358.62,56.48a4.53,4.53,0,0,1,1.16.17c0-.91-.43-1.32-1.16-1.32a4.27,4.27,0,0,0-1.37.27.27.27,0,0,1-.33-.23l-.11-.48a.26.26,0,0,1,.19-.34,3.67,3.67,0,0,1,1.65-.32c1.85,0,2.36,1.11,2.36,2.55v3.15a.24.24,0,0,1-.26.25.75.75,0,0,1-.77-.68,2.47,2.47,0,0,1-1.81.77,1.78,1.78,0,0,1-1.86-1.93C356.31,57.28,357.14,56.48,358.62,56.48Zm-.19,2.76a1.77,1.77,0,0,0,1.34-.7v-1a2.58,2.58,0,0,0-1-.2c-.67,0-1.19.35-1.19.95A.84.84,0,0,0,358.43,59.24Z" fill="#091b43"/><path d="M361.82,54.68c-.1-.18,0-.33.22-.33h.76a.26.26,0,0,1,.25.17l1.53,3.53h0l1.61-3.53c.08-.17.23-.17.39-.17h.56c.21,0,.31.15.21.33l-2.5,5.44a.25.25,0,0,1-.23.15h-.08a.3.3,0,0,1-.25-.15Z" fill="#091b43"/><path d="M370.75,54.23a2.56,2.56,0,0,1,2.63,2.65c0,.1,0,.3,0,.4a.27.27,0,0,1-.26.25h-4a1.68,1.68,0,0,0,1.72,1.57,2.24,2.24,0,0,0,1.42-.48c.12-.09.23-.13.33,0l.34.53c.1.12.15.23,0,.38a3.3,3.3,0,0,1-2.14.72,3,3,0,0,1,0-6Zm1.4,2.37a1.37,1.37,0,0,0-1.43-1.31,1.47,1.47,0,0,0-1.55,1.31Z" fill="#091b43"/><path d="M377,54.23a4.13,4.13,0,0,1,1.45.3V51.65a.3.3,0,0,1,.27-.27h.72a.28.28,0,0,1,.27.27v8.28a.24.24,0,0,1-.26.25.73.73,0,0,1-.76-.66,2.66,2.66,0,0,1-4.48-2.28A2.85,2.85,0,0,1,377,54.23Zm0,4.85a1.65,1.65,0,0,0,1.43-.85V55.75a2.89,2.89,0,0,0-1.32-.33,1.75,1.75,0,0,0-1.68,1.82A1.7,1.7,0,0,0,377,59.08Z" fill="#091b43"/><path d="M384.22,54.55a.25.25,0,0,1,.27-.25.74.74,0,0,1,.75.68,2.5,2.5,0,0,1,1.79-.75,2,2,0,0,1,1.77.91,2.75,2.75,0,0,1,1.95-.91c1.76,0,2.2,1.22,2.2,2.72v2.9a.28.28,0,0,1-.28.28H392a.27.27,0,0,1-.27-.28v-3c0-.92-.35-1.48-1.14-1.48a1.79,1.79,0,0,0-1.39.67,4.87,4.87,0,0,1,.05.78v3a.28.28,0,0,1-.26.28h-.71a.27.27,0,0,1-.28-.28v-3c0-.93-.34-1.48-1.14-1.48a1.47,1.47,0,0,0-1.36.83v3.6a.29.29,0,0,1-.27.28h-.7a.29.29,0,0,1-.28-.28Z" fill="#091b43"/><path d="M397,54.23a2.57,2.57,0,0,1,2.63,2.65c0,.1,0,.3,0,.4a.28.28,0,0,1-.27.25h-4a1.68,1.68,0,0,0,1.72,1.57,2.24,2.24,0,0,0,1.41-.48c.13-.09.24-.13.34,0l.34.53c.1.12.15.23,0,.38a3.24,3.24,0,0,1-2.13.72,3,3,0,0,1,0-6Zm1.39,2.37A1.35,1.35,0,0,0,397,55.29a1.47,1.47,0,0,0-1.55,1.31Z" fill="#091b43"/><path d="M403.5,59.68a.24.24,0,0,1-.1-.3l.26-.54a.26.26,0,0,1,.38-.07,2.73,2.73,0,0,0,1.43.42c.49,0,.76-.24.76-.56s-.43-.64-1.23-1-1.56-.88-1.56-1.83c0-.72.51-1.57,1.91-1.57a3.25,3.25,0,0,1,1.68.42.35.35,0,0,1,.13.43l-.2.4a.28.28,0,0,1-.38.11,3,3,0,0,0-1.23-.29c-.5,0-.74.25-.74.52s.41.6,1,.85c1.06.45,1.86.83,1.86,1.91a1.83,1.83,0,0,1-2.06,1.69A3.38,3.38,0,0,1,403.5,59.68Z" fill="#091b43"/><path d="M411.25,54.23a3,3,0,1,1-2.95,3A3,3,0,0,1,411.25,54.23Zm0,4.85A1.75,1.75,0,0,0,413,57.23a1.72,1.72,0,1,0-3.44,0A1.75,1.75,0,0,0,411.25,59.08Z" fill="#091b43"/><path d="M418.32,54.55a.25.25,0,0,1,.27-.25.74.74,0,0,1,.75.68,2.5,2.5,0,0,1,1.79-.75,2,2,0,0,1,1.77.91,2.75,2.75,0,0,1,2-.91c1.76,0,2.2,1.22,2.2,2.72v2.9a.28.28,0,0,1-.28.28h-.7a.27.27,0,0,1-.27-.28v-3c0-.92-.35-1.48-1.14-1.48a1.79,1.79,0,0,0-1.39.67,4.87,4.87,0,0,1,.05.78v3a.28.28,0,0,1-.26.28h-.71a.27.27,0,0,1-.28-.28v-3c0-.93-.34-1.48-1.13-1.48a1.48,1.48,0,0,0-1.37.83v3.6a.28.28,0,0,1-.27.28h-.7a.29.29,0,0,1-.28-.28Z" fill="#091b43"/><path d="M428.55,54.63a.3.3,0,0,1,.27-.28h.7a.29.29,0,0,1,.28.28V57.7c0,.95.39,1.38,1.12,1.38a1.43,1.43,0,0,0,1.35-.95v-3.5c0-.24.11-.28.33-.28h.63a.3.3,0,0,1,.29.28v5.3a.24.24,0,0,1-.26.25.73.73,0,0,1-.76-.68,2.33,2.33,0,0,1-1.8.77c-1.73,0-2.15-1.14-2.15-2.65Z" fill="#091b43"/><path d="M437.75,54.23a2.54,2.54,0,0,1,2.1,1,.29.29,0,0,1-.05.41l-.45.41c-.17.15-.28,0-.38-.06a1.71,1.71,0,0,0-1.18-.57,1.83,1.83,0,0,0,0,3.66,1.8,1.8,0,0,0,1.36-.71.26.26,0,0,1,.39,0l.38.31c.14.13.2.27.1.42a2.64,2.64,0,0,1-2.25,1.2,2.94,2.94,0,0,1-2.94-3A3,3,0,0,1,437.75,54.23Z" fill="#091b43"/><path d="M441.17,51.65a.29.29,0,0,1,.28-.27h.7a.29.29,0,0,1,.27.27v3.18a2.83,2.83,0,0,1,1.68-.6c1.63,0,2.23,1.15,2.23,2.72v2.9a.28.28,0,0,1-.27.28h-.7a.29.29,0,0,1-.28-.28V56.93c0-1-.4-1.51-1.14-1.51a1.74,1.74,0,0,0-1.52.83v3.6a.26.26,0,0,1-.28.28h-.69a.29.29,0,0,1-.28-.28Z" fill="#091b43"/><path d="M450.77,54.55a.25.25,0,0,1,.27-.25.74.74,0,0,1,.75.68,2.5,2.5,0,0,1,1.79-.75,2,2,0,0,1,1.77.91,2.75,2.75,0,0,1,1.95-.91c1.76,0,2.2,1.22,2.2,2.72v2.9a.28.28,0,0,1-.28.28h-.7a.27.27,0,0,1-.27-.28v-3c0-.92-.35-1.48-1.14-1.48a1.79,1.79,0,0,0-1.39.67,4.87,4.87,0,0,1,0,.78v3a.28.28,0,0,1-.26.28h-.71a.27.27,0,0,1-.28-.28v-3c0-.93-.33-1.48-1.13-1.48a1.48,1.48,0,0,0-1.37.83v3.6a.28.28,0,0,1-.27.28h-.7a.29.29,0,0,1-.28-.28Z" fill="#091b43"/><path d="M463.65,54.23a3,3,0,1,1-2.95,3A3,3,0,0,1,463.65,54.23Zm0,4.85a1.75,1.75,0,0,0,1.71-1.85,1.72,1.72,0,1,0-3.44,0A1.75,1.75,0,0,0,463.65,59.08Z" fill="#091b43"/><path d="M467.85,54.55a.25.25,0,0,1,.26-.25.73.73,0,0,1,.75.7,2.67,2.67,0,0,1,1.91-.77c1.76,0,2.24,1.22,2.24,2.72v2.9a.29.29,0,0,1-.28.28H472a.28.28,0,0,1-.27-.28v-3c0-.93-.39-1.48-1.14-1.48a1.75,1.75,0,0,0-1.52.83v3.6c0,.19-.1.28-.34.28h-.64a.28.28,0,0,1-.27-.28Z" fill="#091b43"/><path d="M477.1,54.23a2.56,2.56,0,0,1,2.63,2.65c0,.1,0,.3,0,.4a.27.27,0,0,1-.26.25h-4a1.69,1.69,0,0,0,1.73,1.57,2.24,2.24,0,0,0,1.41-.48c.12-.09.23-.13.34,0l.33.53c.1.12.15.23,0,.38a3.3,3.3,0,0,1-2.14.72,3,3,0,0,1,0-6Zm1.4,2.37a1.37,1.37,0,0,0-1.43-1.31,1.47,1.47,0,0,0-1.55,1.31Z" fill="#091b43"/><path d="M480.25,54.73a.26.26,0,0,1,.25-.38h.82a.28.28,0,0,1,.25.17l1.34,4h0l1.62-4c.05-.14.16-.17.3-.17h.78a.25.25,0,0,1,.24.38l-3.52,8.2a.29.29,0,0,1-.24.17h-.8a.26.26,0,0,1-.25-.39l1.17-2.78Z" fill="#091b43"/><path d="M487.61,58.44a.9.9,0,1,1-.87.9A.9.9,0,0,1,487.61,58.44Z" fill="#091b43"/><path d="M492,59.8l3.84-8.41a.32.32,0,0,1,.21-.14h.13a.32.32,0,0,1,.21.14l3.81,8.41a.23.23,0,0,1-.21.33h-.79a.3.3,0,0,1-.29-.19l-.77-1.71h-4.09l-.76,1.71a.32.32,0,0,1-.29.19h-.79A.23.23,0,0,1,492,59.8Zm5.66-2.65-1.53-3.42h-.07l-1.52,3.42Z" fill="#091b43"/><path d="M501,54.55a.25.25,0,0,1,.26-.25.73.73,0,0,1,.75.7,2.67,2.67,0,0,1,1.91-.77c1.76,0,2.24,1.22,2.24,2.72v2.9a.29.29,0,0,1-.28.28h-.7a.28.28,0,0,1-.27-.28v-3c0-.93-.39-1.48-1.14-1.48a1.74,1.74,0,0,0-1.52.83v3.6c0,.19-.1.28-.34.28h-.64a.28.28,0,0,1-.27-.28Z" fill="#091b43"/><path d="M510.2,54.23a4.13,4.13,0,0,1,1.45.3V51.65a.3.3,0,0,1,.27-.27h.71a.29.29,0,0,1,.28.27v8.28a.24.24,0,0,1-.26.25.75.75,0,0,1-.77-.66,2.78,2.78,0,0,1-1.83.75,2.82,2.82,0,0,1-2.64-3A2.85,2.85,0,0,1,510.2,54.23Zm0,4.85a1.65,1.65,0,0,0,1.44-.85V55.75a3,3,0,0,0-1.32-.33,1.75,1.75,0,0,0-1.68,1.82A1.7,1.7,0,0,0,510.22,59.08Z" fill="#091b43"/><path d="M517.67,51.62a.25.25,0,0,1,.24-.24h.83a.24.24,0,0,1,.23.24v8.27a.24.24,0,0,1-.23.24h-.83a.25.25,0,0,1-.24-.24Z" fill="#091b43"/><path d="M221.1,65.65a.29.29,0,0,1,.28-.27h.7a.3.3,0,0,1,.27.27v8.2a.29.29,0,0,1-.27.28h-.7a.29.29,0,0,1-.28-.28Z" fill="#091b43"/><path d="M226.6,68.23a3,3,0,1,1-2.95,3A3,3,0,0,1,226.6,68.23Zm0,4.85a1.75,1.75,0,0,0,1.71-1.85,1.72,1.72,0,1,0-3.43,0A1.75,1.75,0,0,0,226.6,73.08Z" fill="#091b43"/><path d="M230,68.68c-.1-.18,0-.33.22-.33H231a.25.25,0,0,1,.25.17l1.54,3.53h0l1.61-3.53c.08-.17.23-.17.39-.17h.56c.21,0,.32.15.21.33l-2.49,5.44a.28.28,0,0,1-.24.15h-.08a.3.3,0,0,1-.25-.15Z" fill="#091b43"/><path d="M238.94,68.23a2.56,2.56,0,0,1,2.63,2.65c0,.1,0,.3,0,.4a.27.27,0,0,1-.26.25h-4A1.69,1.69,0,0,0,239,73.1a2.24,2.24,0,0,0,1.41-.48c.12-.09.24-.13.34,0l.33.53c.1.12.15.23,0,.38a3.27,3.27,0,0,1-2.14.72,3,3,0,0,1,0-6Zm1.4,2.37a1.37,1.37,0,0,0-1.43-1.31,1.47,1.47,0,0,0-1.55,1.31Z" fill="#091b43"/><path d="M248.23,68.23a3,3,0,1,1-2.95,3A3,3,0,0,1,248.23,68.23Zm0,4.85a1.75,1.75,0,0,0,1.71-1.85,1.72,1.72,0,1,0-3.44,0A1.75,1.75,0,0,0,248.23,73.08Z" fill="#091b43"/><path d="M252.43,68.55a.25.25,0,0,1,.26-.25.76.76,0,0,1,.76.73,2.19,2.19,0,0,1,1.71-.8c.55,0,1.24.15,1,.54l-.3.62a.25.25,0,0,1-.35.14,1.39,1.39,0,0,0-.52-.11,1.64,1.64,0,0,0-1.36.77v3.66c0,.25-.17.28-.4.28h-.58a.28.28,0,0,1-.27-.28Z" fill="#091b43"/><path d="M259.56,68.23a4.06,4.06,0,0,1,1.45.3V65.65a.3.3,0,0,1,.28-.27H262a.28.28,0,0,1,.27.27v8.28a.24.24,0,0,1-.26.25.73.73,0,0,1-.76-.66,2.79,2.79,0,0,1-1.84.75,3,3,0,0,1,.15-6Zm0,4.85a1.65,1.65,0,0,0,1.43-.85V69.75a2.89,2.89,0,0,0-1.32-.33A1.74,1.74,0,0,0,258,71.24,1.69,1.69,0,0,0,259.59,73.08Z" fill="#091b43"/><path d="M266.43,68.23a2.57,2.57,0,0,1,2.63,2.65c0,.1,0,.3,0,.4a.28.28,0,0,1-.27.25h-4a1.68,1.68,0,0,0,1.72,1.57,2.24,2.24,0,0,0,1.41-.48c.13-.09.24-.13.34,0l.34.53c.1.12.15.23,0,.38a3.24,3.24,0,0,1-2.13.72,3,3,0,0,1,0-6Zm1.39,2.37a1.35,1.35,0,0,0-1.42-1.31,1.47,1.47,0,0,0-1.55,1.31Z" fill="#091b43"/><path d="M270.25,68.55a.25.25,0,0,1,.26-.25.78.78,0,0,1,.77.73,2.17,2.17,0,0,1,1.71-.8c.55,0,1.23.15,1.05.54l-.3.62a.26.26,0,0,1-.35.14,1.45,1.45,0,0,0-.53-.11,1.64,1.64,0,0,0-1.36.77v3.66c0,.25-.16.28-.4.28h-.57a.29.29,0,0,1-.28-.28Z" fill="#091b43"/><path d="M274.75,66.28a.83.83,0,0,1,.83-.85.85.85,0,1,1,0,1.69A.83.83,0,0,1,274.75,66.28Zm.2,2.35a.29.29,0,0,1,.28-.28h.7a.3.3,0,0,1,.27.28v5.22a.29.29,0,0,1-.27.28h-.7a.29.29,0,0,1-.28-.28Z" fill="#091b43"/><path d="M277.83,68.55a.25.25,0,0,1,.26-.25.73.73,0,0,1,.75.7,2.67,2.67,0,0,1,1.91-.77c1.76,0,2.24,1.22,2.24,2.72v2.9a.29.29,0,0,1-.28.28H282a.28.28,0,0,1-.27-.28V70.9c0-.93-.39-1.48-1.14-1.48a1.74,1.74,0,0,0-1.52.83v3.6c0,.19-.1.28-.34.28h-.64a.28.28,0,0,1-.27-.28Z" fill="#091b43"/><path d="M289.72,74.17a2.49,2.49,0,0,1-2.67,2.69,3.13,3.13,0,0,1-2-.72.27.27,0,0,1-.06-.33l.3-.54a.25.25,0,0,1,.39-.09,2.16,2.16,0,0,0,1.34.53c.77,0,1.44-.37,1.44-1.54v-.32a2.94,2.94,0,0,1-1.47.42,2.88,2.88,0,0,1-2.79-3,2.83,2.83,0,0,1,2.72-3,2.71,2.71,0,0,1,1.8.66.73.73,0,0,1,.74-.59.25.25,0,0,1,.26.25Zm-2.58-1.09a2.33,2.33,0,0,0,1.33-.46V70.23a1.68,1.68,0,0,0-1.38-.81,1.7,1.7,0,0,0-1.64,1.82A1.78,1.78,0,0,0,287.14,73.08Z" fill="#091b43"/><path d="M293.83,69.42a.28.28,0,0,1-.28-.28v-.51a.27.27,0,0,1,.28-.28h.66V66.74a.27.27,0,0,1,.27-.27h.71a.27.27,0,0,1,.27.27v1.61h1.52a.28.28,0,0,1,.28.28v.51a.29.29,0,0,1-.28.28h-1.52v3.07c0,.49.31.59.68.59a1.65,1.65,0,0,0,.7-.21.22.22,0,0,1,.34.12l.23.59c.06.15,0,.25-.14.34a2.77,2.77,0,0,1-1.25.35,1.6,1.6,0,0,1-1.81-1.73V69.42Z" fill="#091b43"/><path d="M298.72,65.65a.29.29,0,0,1,.28-.27h.7a.29.29,0,0,1,.27.27v3.18a2.83,2.83,0,0,1,1.68-.6c1.64,0,2.24,1.15,2.24,2.72v2.9a.29.29,0,0,1-.28.28h-.7a.28.28,0,0,1-.27-.28V70.93c0-1-.4-1.51-1.15-1.51a1.74,1.74,0,0,0-1.52.83v3.6a.26.26,0,0,1-.28.28H299a.29.29,0,0,1-.28-.28Z" fill="#091b43"/><path d="M305.25,66.28a.83.83,0,0,1,.82-.85.85.85,0,1,1,0,1.69A.83.83,0,0,1,305.25,66.28Zm.2,2.35a.28.28,0,0,1,.27-.28h.7a.3.3,0,0,1,.28.28v5.22a.29.29,0,0,1-.28.28h-.7a.28.28,0,0,1-.27-.28Z" fill="#091b43"/><path d="M308.32,68.55a.25.25,0,0,1,.27-.25.74.74,0,0,1,.75.7,2.65,2.65,0,0,1,1.91-.77c1.76,0,2.24,1.22,2.24,2.72v2.9a.29.29,0,0,1-.28.28h-.7a.28.28,0,0,1-.27-.28V70.9c0-.93-.39-1.48-1.14-1.48a1.77,1.77,0,0,0-1.53.83v3.6c0,.19-.1.28-.33.28h-.64a.29.29,0,0,1-.28-.28Z" fill="#091b43"/><path d="M320.22,74.17a2.49,2.49,0,0,1-2.67,2.69,3.13,3.13,0,0,1-2-.72.27.27,0,0,1-.06-.33l.3-.54a.24.24,0,0,1,.38-.09,2.19,2.19,0,0,0,1.35.53c.77,0,1.44-.37,1.44-1.54v-.32a2.94,2.94,0,0,1-1.47.42,2.88,2.88,0,0,1-2.79-3,2.83,2.83,0,0,1,2.72-3,2.71,2.71,0,0,1,1.8.66.73.73,0,0,1,.74-.59.25.25,0,0,1,.26.25Zm-2.58-1.09a2.33,2.33,0,0,0,1.33-.46V70.23a1.68,1.68,0,0,0-1.38-.81A1.7,1.7,0,0,0,316,71.24,1.78,1.78,0,0,0,317.64,73.08Z" fill="#091b43"/><path d="M321.61,73.68a.24.24,0,0,1-.1-.3l.26-.54a.27.27,0,0,1,.38-.07,2.77,2.77,0,0,0,1.44.42c.48,0,.76-.24.76-.56s-.44-.64-1.24-1-1.56-.88-1.56-1.83c0-.72.51-1.57,1.91-1.57a3.33,3.33,0,0,1,1.69.42.34.34,0,0,1,.12.43l-.2.4a.27.27,0,0,1-.37.11,3.09,3.09,0,0,0-1.24-.29c-.5,0-.74.25-.74.52s.42.6,1,.85c1.06.45,1.86.83,1.86,1.91a1.83,1.83,0,0,1-2.06,1.69A3.41,3.41,0,0,1,321.61,73.68Z" fill="#091b43"/><path d="M329.91,65.62a.24.24,0,0,1,.24-.24H331a.24.24,0,0,1,.24.24v8.27a.24.24,0,0,1-.24.24h-.82a.24.24,0,0,1-.24-.24Z" fill="#091b43"/><path d="M336.46,69.52h-.75a.28.28,0,0,1-.27-.28v-.61a.27.27,0,0,1,.27-.28h.75v-.66c0-1.55.74-2.44,2.14-2.44a2.57,2.57,0,0,1,1.64.58.25.25,0,0,1,.05.32l-.37.53c-.08.14-.22.15-.37,0a1.53,1.53,0,0,0-.93-.29c-.65,0-.91.53-.91,1.25v.66h1.64a.27.27,0,0,1,.27.28v.61a.28.28,0,0,1-.27.28h-1.64v4.33a.29.29,0,0,1-.27.28h-.7a.29.29,0,0,1-.28-.28Z" fill="#091b43"/><path d="M343.1,68.23a3,3,0,1,1-3,3A3,3,0,0,1,343.1,68.23Zm0,4.85a1.75,1.75,0,0,0,1.71-1.85,1.72,1.72,0,1,0-3.44,0A1.75,1.75,0,0,0,343.1,73.08Z" fill="#091b43"/><path d="M347.3,68.55a.25.25,0,0,1,.26-.25.76.76,0,0,1,.76.73,2.2,2.2,0,0,1,1.72-.8c.54,0,1.23.15,1,.54l-.3.62a.24.24,0,0,1-.34.14,1.45,1.45,0,0,0-.53-.11,1.64,1.64,0,0,0-1.36.77v3.66c0,.25-.16.28-.4.28h-.58a.28.28,0,0,1-.27-.28Z" fill="#091b43"/><path d="M357.17,74.17a2.49,2.49,0,0,1-2.67,2.69,3.13,3.13,0,0,1-2-.72.27.27,0,0,1-.06-.33l.3-.54a.24.24,0,0,1,.38-.09,2.19,2.19,0,0,0,1.35.53c.77,0,1.44-.37,1.44-1.54v-.32a2.94,2.94,0,0,1-1.47.42,2.88,2.88,0,0,1-2.79-3,2.83,2.83,0,0,1,2.72-3,2.71,2.71,0,0,1,1.8.66.73.73,0,0,1,.74-.59.25.25,0,0,1,.26.25Zm-2.58-1.09a2.33,2.33,0,0,0,1.33-.46V70.23a1.68,1.68,0,0,0-1.38-.81,1.7,1.7,0,0,0-1.64,1.82A1.78,1.78,0,0,0,354.59,73.08Z" fill="#091b43"/><path d="M361.39,68.23a3,3,0,1,1-2.95,3A3,3,0,0,1,361.39,68.23Zm0,4.85a1.75,1.75,0,0,0,1.71-1.85,1.72,1.72,0,1,0-3.44,0A1.75,1.75,0,0,0,361.39,73.08Z" fill="#091b43"/><path d="M365.24,69.42a.28.28,0,0,1-.28-.28v-.51a.27.27,0,0,1,.28-.28h.66V66.74a.27.27,0,0,1,.27-.27h.72a.26.26,0,0,1,.26.27v1.61h1.52a.28.28,0,0,1,.28.28v.51a.29.29,0,0,1-.28.28h-1.52v3.07c0,.49.31.59.69.59a1.73,1.73,0,0,0,.7-.21.21.21,0,0,1,.33.12l.23.59c.06.15,0,.25-.14.34a2.77,2.77,0,0,1-1.25.35,1.6,1.6,0,0,1-1.81-1.73V69.42Z" fill="#091b43"/><path d="M374.89,70.48a4.53,4.53,0,0,1,1.16.17c0-.91-.44-1.32-1.16-1.32a4.29,4.29,0,0,0-1.38.27.26.26,0,0,1-.32-.23l-.12-.48a.27.27,0,0,1,.19-.34,3.72,3.72,0,0,1,1.65-.32c1.85,0,2.36,1.11,2.36,2.55v3.15a.24.24,0,0,1-.26.25.73.73,0,0,1-.76-.68,2.49,2.49,0,0,1-1.81.77,1.79,1.79,0,0,1-1.87-1.93C372.57,71.28,373.4,70.48,374.89,70.48Zm-.19,2.76a1.81,1.81,0,0,0,1.34-.7v-1a2.67,2.67,0,0,0-1.05-.2c-.68,0-1.19.35-1.19,1A.84.84,0,0,0,374.7,73.24Z" fill="#091b43"/><path d="M378.85,68.55a.25.25,0,0,1,.26-.25.73.73,0,0,1,.75.7,2.67,2.67,0,0,1,1.91-.77c1.76,0,2.24,1.22,2.24,2.72v2.9a.29.29,0,0,1-.28.28H383a.28.28,0,0,1-.27-.28V70.9c0-.93-.39-1.48-1.14-1.48a1.75,1.75,0,0,0-1.52.83v3.6c0,.19-.1.28-.34.28h-.64a.28.28,0,0,1-.27-.28Z" fill="#091b43"/><path d="M388,68.23a4.13,4.13,0,0,1,1.45.3V65.65a.3.3,0,0,1,.27-.27h.72a.28.28,0,0,1,.27.27v8.28a.24.24,0,0,1-.26.25.73.73,0,0,1-.76-.66,2.66,2.66,0,0,1-4.48-2.28A2.85,2.85,0,0,1,388,68.23Zm0,4.85a1.65,1.65,0,0,0,1.43-.85V69.75a2.89,2.89,0,0,0-1.32-.33,1.75,1.75,0,0,0-1.68,1.82A1.7,1.7,0,0,0,388,73.08Z" fill="#091b43"/><path d="M400.4,74.17a2.5,2.5,0,0,1-2.68,2.69,3.13,3.13,0,0,1-2-.72.27.27,0,0,1-.06-.33l.3-.54a.25.25,0,0,1,.39-.09,2.19,2.19,0,0,0,1.35.53c.76,0,1.43-.37,1.43-1.54v-.32a2.8,2.8,0,0,1-4.26-2.61,2.83,2.83,0,0,1,2.73-3,2.76,2.76,0,0,1,1.8.66.71.71,0,0,1,.73-.59.25.25,0,0,1,.27.25Zm-2.59-1.09a2.38,2.38,0,0,0,1.34-.46V70.23a1.63,1.63,0,0,0-3,1A1.78,1.78,0,0,0,397.81,73.08Z" fill="#091b43"/><path d="M404.55,68.23a2.56,2.56,0,0,1,2.63,2.65c0,.1,0,.3,0,.4a.27.27,0,0,1-.26.25h-4a1.69,1.69,0,0,0,1.73,1.57,2.24,2.24,0,0,0,1.41-.48c.12-.09.23-.13.33,0l.34.53c.1.12.15.23,0,.38a3.3,3.3,0,0,1-2.14.72,3,3,0,0,1,0-6ZM406,70.6a1.37,1.37,0,0,0-1.43-1.31A1.47,1.47,0,0,0,403,70.6Z" fill="#091b43"/><path d="M408.1,69.42a.29.29,0,0,1-.28-.28v-.51a.27.27,0,0,1,.28-.28h.66V66.74a.28.28,0,0,1,.28-.27h.71a.26.26,0,0,1,.26.27v1.61h1.53a.27.27,0,0,1,.27.28v.51a.28.28,0,0,1-.27.28H410v3.07c0,.49.31.59.69.59a1.65,1.65,0,0,0,.7-.21.21.21,0,0,1,.33.12l.23.59c.06.15,0,.25-.14.34a2.73,2.73,0,0,1-1.25.35,1.6,1.6,0,0,1-1.81-1.73V69.42Z" fill="#091b43"/><path d="M412.72,69.42a.28.28,0,0,1-.27-.28v-.51a.27.27,0,0,1,.27-.28h.67V66.74a.27.27,0,0,1,.27-.27h.71a.27.27,0,0,1,.27.27v1.61h1.52a.28.28,0,0,1,.28.28v.51a.29.29,0,0,1-.28.28h-1.52v3.07c0,.49.31.59.68.59a1.65,1.65,0,0,0,.7-.21.22.22,0,0,1,.34.12l.22.59c.07.15,0,.25-.13.34a2.77,2.77,0,0,1-1.25.35,1.6,1.6,0,0,1-1.81-1.73V69.42Z" fill="#091b43"/><path d="M417.42,66.28a.84.84,0,0,1,.83-.85.85.85,0,1,1,0,1.69A.84.84,0,0,1,417.42,66.28Zm.2,2.35a.29.29,0,0,1,.28-.28h.7a.29.29,0,0,1,.27.28v5.22a.28.28,0,0,1-.27.28h-.7a.29.29,0,0,1-.28-.28Z" fill="#091b43"/><path d="M420.5,68.55a.25.25,0,0,1,.26-.25.73.73,0,0,1,.75.7,2.67,2.67,0,0,1,1.91-.77c1.76,0,2.24,1.22,2.24,2.72v2.9a.29.29,0,0,1-.28.28h-.7a.28.28,0,0,1-.27-.28V70.9c0-.93-.39-1.48-1.14-1.48a1.75,1.75,0,0,0-1.52.83v3.6c0,.19-.1.28-.34.28h-.64a.28.28,0,0,1-.27-.28Z" fill="#091b43"/><path d="M432.4,74.17a2.5,2.5,0,0,1-2.68,2.69,3.13,3.13,0,0,1-2-.72.27.27,0,0,1-.06-.33l.3-.54a.25.25,0,0,1,.39-.09,2.19,2.19,0,0,0,1.35.53c.76,0,1.43-.37,1.43-1.54v-.32a2.8,2.8,0,0,1-4.26-2.61,2.83,2.83,0,0,1,2.73-3,2.76,2.76,0,0,1,1.8.66.71.71,0,0,1,.73-.59.25.25,0,0,1,.27.25Zm-2.59-1.09a2.38,2.38,0,0,0,1.34-.46V70.23a1.63,1.63,0,0,0-3,1A1.78,1.78,0,0,0,429.81,73.08Z" fill="#091b43"/><path d="M436.5,69.42a.29.29,0,0,1-.28-.28v-.51a.27.27,0,0,1,.28-.28h.66V66.74a.28.28,0,0,1,.28-.27h.71a.26.26,0,0,1,.26.27v1.61h1.53a.28.28,0,0,1,.27.28v.51a.29.29,0,0,1-.27.28h-1.53v3.07c0,.49.31.59.69.59a1.69,1.69,0,0,0,.7-.21.21.21,0,0,1,.33.12l.23.59c.06.15,0,.25-.14.34a2.73,2.73,0,0,1-1.25.35,1.6,1.6,0,0,1-1.81-1.73V69.42Z" fill="#091b43"/><path d="M441.4,65.65a.28.28,0,0,1,.27-.27h.7a.3.3,0,0,1,.28.27v3.18a2.79,2.79,0,0,1,1.67-.6c1.64,0,2.24,1.15,2.24,2.72v2.9a.29.29,0,0,1-.28.28h-.7a.28.28,0,0,1-.27-.28V70.93c0-1-.4-1.51-1.15-1.51a1.7,1.7,0,0,0-1.51.83v3.6a.27.27,0,0,1-.29.28h-.69a.28.28,0,0,1-.27-.28Z" fill="#091b43"/><path d="M450.65,68.23a2.56,2.56,0,0,1,2.63,2.65c0,.1,0,.3,0,.4a.27.27,0,0,1-.26.25h-4a1.69,1.69,0,0,0,1.73,1.57,2.24,2.24,0,0,0,1.41-.48c.12-.09.23-.13.33,0l.34.53c.1.12.15.23,0,.38a3.3,3.3,0,0,1-2.14.72,3,3,0,0,1,0-6Zm1.4,2.37a1.37,1.37,0,0,0-1.43-1.31,1.47,1.47,0,0,0-1.55,1.31Z" fill="#091b43"/><path d="M454.47,68.55a.25.25,0,0,1,.27-.25.74.74,0,0,1,.75.68,2.51,2.51,0,0,1,1.8-.75,2,2,0,0,1,1.76.91,2.75,2.75,0,0,1,1.95-.91c1.76,0,2.2,1.22,2.2,2.72v2.9a.28.28,0,0,1-.28.28h-.7a.27.27,0,0,1-.27-.28V70.9c0-.92-.35-1.48-1.14-1.48a1.79,1.79,0,0,0-1.39.67,4.87,4.87,0,0,1,.05.78v3a.28.28,0,0,1-.26.28h-.71a.27.27,0,0,1-.28-.28V70.9c0-.93-.33-1.48-1.13-1.48a1.48,1.48,0,0,0-1.37.83v3.6a.28.28,0,0,1-.27.28h-.7a.29.29,0,0,1-.28-.28Z" fill="#091b43"/><path d="M467.4,73.68a.24.24,0,0,1-.1-.3l.26-.54a.26.26,0,0,1,.38-.07,2.73,2.73,0,0,0,1.43.42c.49,0,.77-.24.77-.56s-.44-.64-1.24-1-1.56-.88-1.56-1.83c0-.72.51-1.57,1.91-1.57a3.33,3.33,0,0,1,1.69.42.35.35,0,0,1,.12.43l-.2.4a.27.27,0,0,1-.37.11,3.09,3.09,0,0,0-1.24-.29c-.5,0-.74.25-.74.52s.41.6,1,.85c1.06.45,1.86.83,1.86,1.91a1.83,1.83,0,0,1-2.06,1.69A3.38,3.38,0,0,1,467.4,73.68Z" fill="#091b43"/><path d="M474.44,70.48a4.53,4.53,0,0,1,1.16.17c0-.91-.44-1.32-1.16-1.32a4.29,4.29,0,0,0-1.38.27.26.26,0,0,1-.32-.23l-.12-.48a.27.27,0,0,1,.19-.34,3.72,3.72,0,0,1,1.65-.32c1.85,0,2.36,1.11,2.36,2.55v3.15a.24.24,0,0,1-.26.25.73.73,0,0,1-.76-.68,2.49,2.49,0,0,1-1.81.77,1.79,1.79,0,0,1-1.87-1.93C472.12,71.28,473,70.48,474.44,70.48Zm-.19,2.76a1.76,1.76,0,0,0,1.33-.7v-1a2.56,2.56,0,0,0-1-.2c-.68,0-1.19.35-1.19,1A.84.84,0,0,0,474.25,73.24Z" fill="#091b43"/><path d="M478.4,68.55a.25.25,0,0,1,.26-.25.73.73,0,0,1,.75.68,2.51,2.51,0,0,1,1.8-.75,2,2,0,0,1,1.76.91,2.75,2.75,0,0,1,1.95-.91c1.76,0,2.2,1.22,2.2,2.72v2.9a.27.27,0,0,1-.27.28h-.7a.27.27,0,0,1-.28-.28V70.9c0-.92-.35-1.48-1.14-1.48a1.78,1.78,0,0,0-1.38.67,6.44,6.44,0,0,1,0,.78v3a.28.28,0,0,1-.27.28h-.71a.27.27,0,0,1-.27-.28V70.9c0-.93-.34-1.48-1.14-1.48a1.46,1.46,0,0,0-1.36.83v3.6a.29.29,0,0,1-.28.28h-.7a.28.28,0,0,1-.27-.28Z" fill="#091b43"/><path d="M491.21,68.23a2.57,2.57,0,0,1,2.64,2.65c0,.1,0,.3,0,.4a.27.27,0,0,1-.26.25h-4a1.7,1.7,0,0,0,1.73,1.57,2.24,2.24,0,0,0,1.41-.48c.12-.09.24-.13.34,0l.33.53c.1.12.15.23,0,.38a3.25,3.25,0,0,1-2.14.72,3,3,0,0,1,0-6Zm1.4,2.37a1.36,1.36,0,0,0-1.42-1.31,1.46,1.46,0,0,0-1.55,1.31Z" fill="#091b43"/><path d="M500.35,68.23a4.19,4.19,0,0,1,1.45.3V65.65a.3.3,0,0,1,.27-.27h.71a.29.29,0,0,1,.28.27v8.28a.24.24,0,0,1-.26.25.73.73,0,0,1-.76-.66,2.89,2.89,0,1,1-1.69-5.29Zm0,4.85a1.65,1.65,0,0,0,1.44-.85V69.75a2.89,2.89,0,0,0-1.32-.33,1.75,1.75,0,0,0-1.68,1.82A1.7,1.7,0,0,0,500.37,73.08Z" fill="#091b43"/><path d="M506.56,70.48a4.53,4.53,0,0,1,1.16.17c0-.91-.43-1.32-1.16-1.32a4.27,4.27,0,0,0-1.37.27.27.27,0,0,1-.33-.23l-.11-.48a.26.26,0,0,1,.19-.34,3.67,3.67,0,0,1,1.65-.32c1.85,0,2.36,1.11,2.36,2.55v3.15a.24.24,0,0,1-.26.25.74.74,0,0,1-.77-.68,2.47,2.47,0,0,1-1.81.77,1.78,1.78,0,0,1-1.86-1.93C504.25,71.28,505.07,70.48,506.56,70.48Zm-.19,2.76a1.77,1.77,0,0,0,1.34-.7v-1a2.58,2.58,0,0,0-1-.2c-.67,0-1.19.35-1.19,1A.84.84,0,0,0,506.37,73.24Z" fill="#091b43"/><path d="M509.81,68.73a.26.26,0,0,1,.25-.38h.83a.31.31,0,0,1,.25.17l1.33,4h0l1.62-4c0-.14.16-.17.3-.17h.78a.26.26,0,0,1,.25.38l-3.53,8.2a.29.29,0,0,1-.23.17h-.8a.26.26,0,0,1-.25-.39l1.16-2.78Z" fill="#091b43"/><path d="M517.25,72.6a.84.84,0,0,1,.84.83.83.83,0,0,1-.84.82.82.82,0,0,1-.81-.82A.83.83,0,0,1,517.25,72.6ZM516.76,71l-.29-5.15c0-.33.33-.58.79-.58s.8.25.79.58L517.76,71c0,.17-.22.32-.5.32S516.77,71.15,516.76,71Z" fill="#091b43"/><path d="M520.42,72.6a.84.84,0,0,1,.84.83.83.83,0,0,1-1.65,0A.84.84,0,0,1,520.42,72.6ZM519.94,71l-.29-5.15c0-.33.32-.58.79-.58s.79.25.78.58L520.94,71a.47.47,0,0,1-.5.32C520.15,71.3,520,71.15,519.94,71Z" fill="#091b43"/></g><g id="Fort_Worth_TX" data-name="Fort Worth, TX"><path d="M220.61,32.47a.25.25,0,0,1,.25-.25h5.2a.25.25,0,0,1,.25.25v.73a.25.25,0,0,1-.25.24H222v3h3.47a.25.25,0,0,1,.25.24v.72a.26.26,0,0,1-.25.25H222v3.41a.26.26,0,0,1-.24.25h-.85a.25.25,0,0,1-.25-.25Z" fill="#0071de"/><path d="M229.86,35.19a3.14,3.14,0,1,1-3.07,3.12A3.12,3.12,0,0,1,229.86,35.19Zm0,5a1.91,1.91,0,1,0-1.8-1.92A1.82,1.82,0,0,0,229.86,40.23Z" fill="#0071de"/><path d="M234.16,35.52a.25.25,0,0,1,.27-.26.79.79,0,0,1,.79.76,2.28,2.28,0,0,1,1.78-.83c.58,0,1.29.15,1.1.55l-.32.65a.26.26,0,0,1-.36.15,1.5,1.5,0,0,0-.55-.12,1.68,1.68,0,0,0-1.41.81V41c0,.26-.17.28-.42.28h-.6a.29.29,0,0,1-.28-.28Z" fill="#0071de"/><path d="M239,36.42a.28.28,0,0,1-.28-.29V35.6a.27.27,0,0,1,.28-.29h.69V33.64a.29.29,0,0,1,.29-.29h.74a.28.28,0,0,1,.27.29v1.67h1.59a.28.28,0,0,1,.28.29v.53a.3.3,0,0,1-.28.29H241v3.2c0,.51.33.61.72.61a1.65,1.65,0,0,0,.72-.22c.19-.11.3,0,.36.13l.23.61a.26.26,0,0,1-.14.35,2.83,2.83,0,0,1-1.3.36,1.66,1.66,0,0,1-1.89-1.79V36.42Z" fill="#0071de"/><path d="M246.52,32.53a.22.22,0,0,1,.23-.31h.87a.27.27,0,0,1,.24.18l1.57,6h0l2.12-6.14a.25.25,0,0,1,.22-.14h.23a.26.26,0,0,1,.23.14l2.14,6.14h.05l1.55-6a.27.27,0,0,1,.23-.18h.87a.23.23,0,0,1,.24.31l-2.46,8.74a.25.25,0,0,1-.23.18h-.21a.24.24,0,0,1-.22-.14L252,34.85h-.06l-2.25,6.46a.25.25,0,0,1-.22.14h-.21a.26.26,0,0,1-.24-.18Z" fill="#0071de"/><path d="M260.68,35.19a3.14,3.14,0,1,1-3.06,3.12A3.12,3.12,0,0,1,260.68,35.19Zm0,5a1.91,1.91,0,1,0-1.79-1.92A1.82,1.82,0,0,0,260.68,40.23Z" fill="#0071de"/><path d="M265,35.52a.26.26,0,0,1,.28-.26.79.79,0,0,1,.79.76,2.26,2.26,0,0,1,1.78-.83c.57,0,1.29.15,1.09.55l-.31.65a.26.26,0,0,1-.36.15,1.55,1.55,0,0,0-.55-.12,1.68,1.68,0,0,0-1.41.81V41c0,.26-.17.28-.42.28h-.6A.29.29,0,0,1,265,41Z" fill="#0071de"/><path d="M269.83,36.42a.29.29,0,0,1-.29-.29V35.6a.28.28,0,0,1,.29-.29h.69V33.64a.29.29,0,0,1,.28-.29h.75a.28.28,0,0,1,.27.29v1.67h1.59a.28.28,0,0,1,.28.29v.53a.3.3,0,0,1-.28.29h-1.59v3.2c0,.51.32.61.71.61a1.65,1.65,0,0,0,.73-.22.22.22,0,0,1,.35.13l.24.61c.06.16,0,.26-.15.35a2.75,2.75,0,0,1-1.3.36,1.65,1.65,0,0,1-1.88-1.79V36.42Z" fill="#0071de"/><path d="M274.8,32.51a.3.3,0,0,1,.29-.29h.73a.3.3,0,0,1,.28.29v3.3a3,3,0,0,1,1.75-.62c1.7,0,2.32,1.19,2.32,2.83v3a.29.29,0,0,1-.28.28h-.73a.29.29,0,0,1-.29-.28V38c0-1-.41-1.57-1.19-1.57a1.79,1.79,0,0,0-1.58.87V41a.27.27,0,0,1-.3.28h-.71a.29.29,0,0,1-.29-.28Z" fill="#0071de"/><path d="M282.44,39.59c.65,0,1.08.6,1.08,1.5a2.68,2.68,0,0,1-.93,2.06.16.16,0,0,1-.25,0l-.27-.26c-.08-.09,0-.18.05-.26a1.85,1.85,0,0,0,.66-1.21,1.32,1.32,0,0,0,0-.27.91.91,0,0,1-.45.13.75.75,0,0,1-.74-.78A.84.84,0,0,1,282.44,39.59Z" fill="#0071de"/><path d="M289.76,33.44h-2.12a.24.24,0,0,1-.24-.24v-.73a.25.25,0,0,1,.24-.25h5.59a.25.25,0,0,1,.25.25v.73a.24.24,0,0,1-.25.24h-2.11v7.63a.26.26,0,0,1-.25.25H290a.26.26,0,0,1-.25-.25Z" fill="#0071de"/><path d="M296.91,36.65l-2.57-4.07a.23.23,0,0,1,.22-.36h1.1a.26.26,0,0,1,.22.12l1.81,3.11h0l1.86-3.11a.23.23,0,0,1,.21-.12h1.1a.23.23,0,0,1,.22.36l-2.57,4.07L301.21,41a.23.23,0,0,1-.22.36h-1a.26.26,0,0,1-.22-.12l-2-3.32h-.05l-2,3.32a.27.27,0,0,1-.22.12h-1c-.24,0-.34-.19-.24-.36Z" fill="#0071de"/></g><g id="Michelle"><path d="M220.92,16.36a.21.21,0,0,1,.22-.18h.19a.21.21,0,0,1,.2.12L224.17,22h0l2.64-5.67a.22.22,0,0,1,.2-.12h.2a.2.2,0,0,1,.21.18l1.42,8.07a.21.21,0,0,1-.22.28h-1.09a.27.27,0,0,1-.23-.18L226.63,20h0l-2.1,4.71a.21.21,0,0,1-.21.14h-.21a.22.22,0,0,1-.21-.14L221.75,20h0L221,24.53a.24.24,0,0,1-.22.18h-1.08a.23.23,0,0,1-.23-.28Z" fill="#0071de"/><path d="M229.87,17.25a.93.93,0,0,1,.94-.95,1,1,0,1,1-.94.95Zm.21,2.17a.27.27,0,0,1,.27-.26h1a.26.26,0,0,1,.26.26v5a.28.28,0,0,1-.26.27h-1a.28.28,0,0,1-.27-.27Z" fill="#0071de"/><path d="M235.49,19a2.73,2.73,0,0,1,2.07.94c.12.12.06.27-.06.39l-.51.55c-.11.14-.25.08-.35,0a1.54,1.54,0,0,0-1.11-.48,1.53,1.53,0,0,0,0,3.06,1.51,1.51,0,0,0,1.18-.61.25.25,0,0,1,.34,0l.54.46c.14.12.2.25.1.39a2.47,2.47,0,0,1-2.2,1.17,2.9,2.9,0,1,1,0-5.8Z" fill="#0071de"/><path d="M238.6,16.57a.29.29,0,0,1,.26-.27h1a.28.28,0,0,1,.26.27v2.94a2.17,2.17,0,0,1,1.42-.47c1.76,0,2.24,1.22,2.24,2.62v2.78a.28.28,0,0,1-.26.27h-1a.27.27,0,0,1-.26-.27v-2.8c0-.76-.35-1.23-1-1.23a1.14,1.14,0,0,0-1.15,1v3.06c0,.16-.07.27-.29.27h-.95a.28.28,0,0,1-.26-.27Z" fill="#0071de"/><path d="M247.53,19a2.48,2.48,0,0,1,2.54,2.57c0,.08,0,.27,0,.36a.29.29,0,0,1-.27.25h-3.55a1.33,1.33,0,0,0,1.38,1.28,1.87,1.87,0,0,0,1.19-.4c.13-.11.27-.12.36,0l.47.62a.23.23,0,0,1,0,.36,3.11,3.11,0,0,1-2.06.76,2.9,2.9,0,0,1,0-5.8Zm1,2.2a1,1,0,0,0-1.07-1,1.11,1.11,0,0,0-1.18,1Z" fill="#0071de"/><path d="M251.07,16.57a.29.29,0,0,1,.26-.27h1a.29.29,0,0,1,.27.27v7.87a.28.28,0,0,1-.27.27h-1a.28.28,0,0,1-.26-.27Z" fill="#0071de"/><path d="M253.92,16.57a.29.29,0,0,1,.26-.27h1a.3.3,0,0,1,.27.27v7.87a.29.29,0,0,1-.27.27h-1a.28.28,0,0,1-.26-.27Z" fill="#0071de"/><path d="M259.23,19a2.49,2.49,0,0,1,2.55,2.57c0,.08,0,.27,0,.36a.28.28,0,0,1-.26.25h-3.55a1.32,1.32,0,0,0,1.38,1.28,1.83,1.83,0,0,0,1.18-.4c.14-.11.28-.12.36,0l.47.62a.23.23,0,0,1,0,.36,3.14,3.14,0,0,1-2.07.76,2.9,2.9,0,0,1,0-5.8Zm1,2.2a1,1,0,0,0-1.06-1,1.09,1.09,0,0,0-1.18,1Z" fill="#0071de"/></g><g id="Layer_21" data-name="Layer 21"><polygon points="441.51 15.7 439.44 21.14 433.62 21.43 438.16 25.09 436.63 30.7 441.51 27.52 446.38 30.7 444.86 25.09 449.39 21.43 443.58 21.14 441.51 15.7" fill="#ffc220"/><polygon points="460 15.7 457.93 21.14 452.12 21.43 456.65 25.09 455.13 30.7 460 27.52 464.88 30.7 463.36 25.09 467.89 21.43 462.08 21.14 460 15.7" fill="#ffc220"/><polygon points="478.5 15.7 476.43 21.14 470.62 21.43 475.15 25.09 473.63 30.7 478.5 27.52 483.38 30.7 481.86 25.09 486.39 21.43 480.57 21.14 478.5 15.7" fill="#ffc220"/><polygon points="497 15.7 494.93 21.14 489.12 21.43 493.65 25.09 492.13 30.7 497 27.52 501.88 30.7 500.35 25.09 504.89 21.43 499.07 21.14 497 15.7" fill="#ffc220"/><polygon points="515.5 15.7 513.43 21.14 507.61 21.43 512.15 25.09 510.63 30.7 515.5 27.52 520.37 30.7 518.85 25.09 523.38 21.43 517.57 21.14 515.5 15.7" fill="#ffc220"/></g><g id="rect"><rect width="728" height="90" fill="none"/></g></g></g></g></g></svg>